<?xml version="1.0" encoding="UTF-8" standalone="no"?><!DOCTYPE svg PUBLIC "-//W3C//DTD SVG 1.1//EN" "http://www.w3.org/Graphics/SVG/1.1/DTD/svg11.dtd"><svg width="100%" height="100%" viewBox="0 0 267 267" version="1.1" xmlns="http://www.w3.org/2000/svg" xmlns:xlink="http://www.w3.org/1999/xlink" xml:space="preserve" xmlns:serif="http://www.serif.com/" style="fill-rule:evenodd;clip-rule:evenodd;stroke-linejoin:round;stroke-miterlimit:2;"><rect id="admin" x="0" y="0" width="266.667" height="266.667" style="fill:none;"/><path d="M150.786,52.333l-71.254,195.769c-2.36,6.483 -9.539,9.83 -16.022,7.471l-23.492,-8.551c-6.483,-2.359 -9.83,-9.538 -7.471,-16.021l71.254,-195.769c2.36,-6.483 9.539,-9.831 16.022,-7.471l23.492,8.55c6.483,2.36 9.831,9.539 7.471,16.022Z" style="fill:#f20d5e;"/><path d="M132.547,52.333l71.254,195.769c2.36,6.483 9.539,9.83 16.022,7.471l23.492,-8.551c6.483,-2.359 9.831,-9.538 7.471,-16.021l-71.254,-195.769c-2.36,-6.483 -9.539,-9.831 -16.022,-7.471l-23.492,8.55c-6.483,2.36 -9.83,9.539 -7.471,16.022Z" style="fill:#f20d5e;"/><path d="M179.167,37.5l-0,25c-0,6.899 -5.601,12.5 -12.5,12.5l-50,0c-6.899,0 -12.5,-5.601 -12.5,-12.5l-0,-25c-0,-6.899 5.601,-12.5 12.5,-12.5l50,-0c6.899,-0 12.5,5.601 12.5,12.5Z" style="fill:#f20d5e;"/><path d="M204.167,137.5l-0,25c-0,6.899 -5.601,12.5 -12.5,12.5l-100,0c-6.899,0 -12.5,-5.601 -12.5,-12.5l-0,-25c-0,-6.899 5.601,-12.5 12.5,-12.5l100,0c6.899,0 12.5,5.601 12.5,12.5Z" style="fill:#f20d5e;"/><path d="M142.453,43.999l-71.254,195.769c-2.36,6.483 -9.539,9.831 -16.022,7.471l-23.492,-8.55c-6.483,-2.36 -9.831,-9.539 -7.471,-16.022l71.254,-195.769c2.36,-6.483 9.539,-9.83 16.022,-7.471l23.492,8.551c6.483,2.359 9.83,9.538 7.471,16.021Z"/><path d="M124.214,43.999l71.254,195.769c2.36,6.483 9.539,9.831 16.022,7.471l23.492,-8.55c6.483,-2.36 9.83,-9.539 7.471,-16.022l-71.254,-195.769c-2.36,-6.483 -9.539,-9.83 -16.022,-7.471l-23.492,8.551c-6.483,2.359 -9.831,9.538 -7.471,16.021Z"/><path d="M170.833,29.167l0,25c0,6.899 -5.601,12.5 -12.5,12.5l-50,-0c-6.899,-0 -12.5,-5.601 -12.5,-12.5l0,-25c0,-6.899 5.601,-12.5 12.5,-12.5l50,-0c6.899,-0 12.5,5.601 12.5,12.5Z"/><path d="M195.833,129.167l0,25c0,6.899 -5.601,12.5 -12.5,12.5l-100,-0c-6.899,-0 -12.5,-5.601 -12.5,-12.5l0,-25c0,-6.899 5.601,-12.5 12.5,-12.5l100,-0c6.899,-0 12.5,5.601 12.5,12.5Z"/></svg>