<?xml version="1.0" encoding="UTF-8" standalone="no"?><!DOCTYPE svg PUBLIC "-//W3C//DTD SVG 1.1//EN" "http://www.w3.org/Graphics/SVG/1.1/DTD/svg11.dtd"><svg width="100%" height="100%" viewBox="0 0 267 267" version="1.1" xmlns="http://www.w3.org/2000/svg" xmlns:xlink="http://www.w3.org/1999/xlink" xml:space="preserve" xmlns:serif="http://www.serif.com/" style="fill-rule:evenodd;clip-rule:evenodd;stroke-linecap:round;stroke-linejoin:round;stroke-miterlimit:1.5;"><rect id="art-culture" x="0" y="0" width="266.667" height="266.667" style="fill:none;"/><g><path d="M95.833,179.167c0,-0 -41.945,-27.849 -50,-50c-8.333,-22.917 0,-87.5 0,-87.5c0,-0 33.334,12.5 50,12.5c16.667,-0 50,-12.5 50,-12.5c0,-0 8.334,64.583 0,87.5c-8.055,22.151 -50,50 -50,50Z" style="fill:#3882ba;stroke:#3882ba;stroke-width:8.33px;"/><path d="M91.667,170.833c-0,0 -41.945,-27.849 -50,-50c-8.334,-22.916 -0,-87.5 -0,-87.5c-0,0 33.333,12.5 50,12.5c16.666,0 50,-12.5 50,-12.5c-0,0 8.333,64.584 -0,87.5c-8.055,22.151 -50,50 -50,50Z" style="stroke:#000;stroke-width:8.33px;"/><path d="M62.5,108.333c0,0 19.444,12.5 29.167,12.5c9.722,0 29.166,-12.5 29.166,-12.5c0,0 -14.583,17.361 -20.833,20.834c-4.856,2.698 -11.81,2.698 -16.667,-0c-6.25,-3.473 -20.833,-20.834 -20.833,-20.834Z" style="fill:#3882ba;stroke:#3882ba;stroke-width:8.33px;"/><path d="M62.5,66.667c4.167,-0 12.5,6.25 12.5,8.333c0,2.083 -8.333,4.167 -12.5,4.167c-4.167,-0 -12.5,-2.084 -12.5,-4.167c0,-2.083 8.333,-8.333 12.5,-8.333Z" style="fill:#3882ba;"/><path d="M120.833,66.667c4.167,-0 12.5,6.25 12.5,8.333c0,2.083 -8.333,4.167 -12.5,4.167c-4.166,-0 -12.5,-2.084 -12.5,-4.167c0,-2.083 8.334,-8.333 12.5,-8.333Z" style="fill:#3882ba;"/></g><g><clipPath id="_clip1"><path d="M275,12.5l0,266.667l-266.667,-0l0,-266.667l266.667,0Zm-178.333,161.25c-0,-0 41.945,-27.849 50,-50c8.333,-22.917 -0,-87.5 -0,-87.5c-0,-0 -33.334,12.5 -50,12.5c-16.667,-0 -50,-12.5 -50,-12.5c-0,-0 -8.334,64.583 -0,87.5c8.055,22.151 50,50 50,50Z"/></clipPath><g clip-path="url(#_clip1)"><path d="M179.167,241.667c-0,-0 -41.945,-27.849 -50,-50c-8.334,-22.917 -0,-87.5 -0,-87.5c-0,-0 33.333,12.5 50,12.5c16.666,-0 50,-12.5 50,-12.5c-0,-0 8.333,64.583 -0,87.5c-8.055,22.151 -50,50 -50,50Z" style="fill:#3882ba;stroke:#3882ba;stroke-width:8.33px;"/><path d="M175,233.333c0,0 -41.945,-27.849 -50,-50c-8.333,-22.916 0,-87.5 0,-87.5c0,0 33.333,12.5 50,12.5c16.667,0 50,-12.5 50,-12.5c0,0 8.333,64.584 0,87.5c-8.055,22.151 -50,50 -50,50Z" style="stroke:#000;stroke-width:8.33px;"/><path d="M200,193.69c0,0 -16.667,-8.333 -25,-8.333c-8.333,-0 -25,8.333 -25,8.333c0,0 11.111,-17.361 16.667,-20.833c4.711,-2.945 11.955,-2.945 16.666,-0c5.556,3.472 16.667,20.833 16.667,20.833Z" style="fill:#3882ba;stroke:#3882ba;stroke-width:8.33px;"/><path d="M145.833,129.167c4.167,-0 12.5,6.944 12.5,8.333c0,1.389 -8.333,0 -12.5,0c-4.166,0 -12.5,1.389 -12.5,0c0,-1.389 8.334,-8.333 12.5,-8.333Z" style="fill:#3882ba;"/><path d="M204.167,129.167c4.166,-0 12.5,6.944 12.5,8.333c-0,1.389 -8.334,0 -12.5,0c-4.167,0 -12.5,1.389 -12.5,0c-0,-1.389 8.333,-8.333 12.5,-8.333Z" style="fill:#3882ba;"/></g></g></svg>