<?xml version="1.0" encoding="UTF-8" standalone="no"?><!DOCTYPE svg PUBLIC "-//W3C//DTD SVG 1.1//EN" "http://www.w3.org/Graphics/SVG/1.1/DTD/svg11.dtd"><svg width="100%" height="100%" viewBox="0 0 267 267" version="1.1" xmlns="http://www.w3.org/2000/svg" xmlns:xlink="http://www.w3.org/1999/xlink" xml:space="preserve" xmlns:serif="http://www.serif.com/" style="fill-rule:evenodd;clip-rule:evenodd;stroke-linecap:round;stroke-linejoin:round;stroke-miterlimit:1.5;"><rect id="deck-unfilled" x="0" y="0" width="266.667" height="266.667" style="fill:none;"/><path d="M200,30l0,194.167c0,9.166 -8.333,17.5 -17.5,17.5l-110.833,-0" style="fill:none;stroke:#3882ba;stroke-width:8.33px;"/><path d="M212.5,42.5l0,185.833c0,17.5 -8.333,25.834 -25.833,25.834l-102.5,-0" style="fill:none;stroke:#3882ba;stroke-width:8.33px;"/><path d="M187.5,25.833l0,190c0,7.359 -5.974,13.334 -13.333,13.334l-106.667,-0c-7.359,-0 -13.333,-5.975 -13.333,-13.334l-0,-190c-0,-7.359 5.974,-13.333 13.333,-13.333l106.667,-0c7.359,-0 13.333,5.974 13.333,13.333Z" style="fill:none;stroke:#3882ba;stroke-width:8.33px;"/></svg>