<?xml version="1.0" encoding="UTF-8" standalone="no"?><!DOCTYPE svg PUBLIC "-//W3C//DTD SVG 1.1//EN" "http://www.w3.org/Graphics/SVG/1.1/DTD/svg11.dtd"><svg width="100%" height="100%" viewBox="0 0 267 267" version="1.1" xmlns="http://www.w3.org/2000/svg" xmlns:xlink="http://www.w3.org/1999/xlink" xml:space="preserve" xmlns:serif="http://www.serif.com/" style="fill-rule:evenodd;clip-rule:evenodd;stroke-linecap:round;stroke-linejoin:round;stroke-miterlimit:1.5;"><rect id="famous-people" x="0" y="0" width="266.667" height="266.667" style="fill:none;"/><g><path d="M75,220.833c0,-45.993 29.872,-83.333 66.667,-83.333c36.794,0 66.666,37.34 66.666,83.333l-133.333,0Z" style="fill:#3882ba;stroke:#3882ba;stroke-width:8.33px;"/><circle cx="141.667" cy="104.167" r="33.333" style="fill:#3882ba;stroke:#3882ba;stroke-width:8.33px;"/></g><path d="M66.667,212.5c-0,-45.993 29.872,-83.333 66.666,-83.333c36.795,-0 66.667,37.34 66.667,83.333l-133.333,0Z" style="stroke:#000;stroke-width:8.33px;"/><circle cx="133.333" cy="95.833" r="33.333" style="fill:#3882ba;stroke:#000;stroke-width:8.33px;"/><path d="M95.833,45.833l75,0l0,-20.833l-12.5,12.5l-12.5,-12.5l-12.5,12.5l-12.5,-12.5l-12.5,12.5l-12.5,-12.5l0,20.833Z" style="stroke:#000;stroke-width:8.33px;"/><g><rect x="20.833" y="58.333" width="45.833" height="20.833" style="stroke:#000;stroke-width:8.33px;"/><rect x="37.5" y="50" width="12.5" height="8.333" style="fill:#3882ba;stroke:#000;stroke-width:8.33px;"/><circle cx="43.75" cy="68.75" r="12.5" style="fill:#3882ba;stroke:#000;stroke-width:8.33px;"/></g><g><g transform="matrix(33.3333,0,0,33.3333,241.667,84.8551)"></g><text x="225px" y="84.855px" style="font-family:'ArialMT', 'Arial', sans-serif;font-size:33.333px;fill:#3882ba;">♪</text><g transform="matrix(33.3333,0,0,33.3333,233.333,89.0218)"></g><text x="216.667px" y="89.022px" style="font-family:'ArialMT', 'Arial', sans-serif;font-size:33.333px;">♪</text><g transform="matrix(33.3333,0,0,33.3333,254.167,89.0137)"></g><text x="229.167px" y="89.014px" style="font-family:'ArialUnicodeMS', 'Arial Unicode MS', sans-serif;font-size:33.333px;">♬</text></g><g><path d="M12.5,133.333l20.833,0l0,8.334l8.334,25l-0,8.333l-20.834,-0l0,-8.333l-8.333,-25l-0,-8.334Z" style="fill:#3882ba;stroke:#000;stroke-width:8.33px;"/><path d="M37.5,150l4.167,-4.167" style="fill:none;stroke:#000;stroke-width:8.33px;"/><path d="M62.5,125l-16.667,16.667" style="fill:none;stroke:#000;stroke-width:8.33px;"/></g><path d="M224.184,154.167l3.742,11.516l12.109,0l-9.796,7.118l3.742,11.516l-9.797,-7.118l-9.796,7.118l3.742,-11.516l-9.797,-7.118l12.109,0l3.742,-11.516Z" style="fill:#3882ba;stroke:#000;stroke-width:8.33px;"/></svg>