<?xml version="1.0" encoding="UTF-8" standalone="no"?><!DOCTYPE svg PUBLIC "-//W3C//DTD SVG 1.1//EN" "http://www.w3.org/Graphics/SVG/1.1/DTD/svg11.dtd"><svg width="100%" height="100%" viewBox="0 0 267 267" version="1.1" xmlns="http://www.w3.org/2000/svg" xmlns:xlink="http://www.w3.org/1999/xlink" xml:space="preserve" xmlns:serif="http://www.serif.com/" style="fill-rule:evenodd;clip-rule:evenodd;stroke-linecap:round;stroke-linejoin:round;stroke-miterlimit:1.5;"><rect id="famous-people" x="0" y="0" width="266.667" height="266.667" style="fill:none;"/><g><path d="M75,220.833c0,-45.993 29.872,-83.333 66.667,-83.333c36.794,0 66.666,37.34 66.666,83.333l-133.333,0Z" style="fill:#3882ba;stroke:#3882ba;stroke-width:8.33px;"/><circle cx="141.667" cy="104.167" r="33.333" style="fill:#3882ba;stroke:#3882ba;stroke-width:8.33px;"/></g><path d="M66.667,212.5c-0,-45.993 29.872,-83.333 66.666,-83.333c36.795,-0 66.667,37.34 66.667,83.333l-133.333,0Z" style="stroke:#000;stroke-width:8.33px;"/><circle cx="133.333" cy="95.833" r="33.333" style="fill:#3882ba;stroke:#000;stroke-width:8.33px;"/><path d="M95.833,45.833l75,0l0,-20.833l-12.5,12.5l-12.5,-12.5l-12.5,12.5l-12.5,-12.5l-12.5,12.5l-12.5,-12.5l0,20.833Z" style="stroke:#000;stroke-width:8.33px;"/><g><rect x="20.833" y="58.333" width="45.833" height="20.833" style="stroke:#000;stroke-width:8.33px;"/><rect x="37.5" y="50" width="12.5" height="8.333" style="fill:#3882ba;stroke:#000;stroke-width:8.33px;"/><circle cx="43.75" cy="68.75" r="12.5" style="fill:#3882ba;stroke:#000;stroke-width:8.33px;"/></g><g><path d="M232.91,62.671l0.619,-0c1.866,-0 3.098,0.076 3.694,0.228c0.858,0.217 1.612,0.635 2.263,1.253c0.488,0.456 0.873,1.099 1.155,1.929c0.282,0.83 0.423,1.798 0.423,2.905l0,1.676l-1.611,0l0,-0.699c0,-0.738 -0.154,-1.365 -0.464,-1.88c-0.309,-0.516 -0.767,-0.909 -1.375,-1.18c-0.792,-0.348 -1.671,-0.521 -2.637,-0.521l-0.456,-0l0,13.59c0,1.313 -0.173,2.336 -0.52,3.068c-0.348,0.733 -0.944,1.319 -1.791,1.758c-0.846,0.44 -1.768,0.659 -2.767,0.659c-1.182,0 -2.118,-0.333 -2.807,-1.001c-0.689,-0.667 -1.034,-1.543 -1.034,-2.628c0,-1.14 0.413,-2.097 1.237,-2.873c0.825,-0.776 1.904,-1.164 3.239,-1.164c0.846,0 1.79,0.25 2.832,0.749l0,-15.869Z" style="fill:#3882ba;fill-rule:nonzero;"/><path d="M224.577,66.838l0.618,-0c1.867,-0 3.098,0.076 3.695,0.227c0.857,0.217 1.611,0.635 2.262,1.254c0.489,0.455 0.874,1.098 1.156,1.928c0.282,0.83 0.423,1.799 0.423,2.906l0,1.676l-1.611,0l-0,-0.7c-0,-0.738 -0.155,-1.364 -0.464,-1.88c-0.309,-0.515 -0.768,-0.908 -1.375,-1.18c-0.793,-0.347 -1.671,-0.52 -2.637,-0.52l-0.456,-0l0,13.59c0,1.313 -0.173,2.336 -0.521,3.068c-0.347,0.732 -0.944,1.318 -1.79,1.758c-0.846,0.439 -1.769,0.659 -2.767,0.659c-1.183,0 -2.119,-0.334 -2.808,-1.001c-0.689,-0.667 -1.033,-1.543 -1.033,-2.629c-0,-1.139 0.412,-2.096 1.237,-2.872c0.825,-0.776 1.904,-1.164 3.239,-1.164c0.846,0 1.79,0.25 2.832,0.749l-0,-15.869Z" style="fill-rule:nonzero;"/><path d="M250.96,83.317c0,1.291 -0.605,2.452 -1.814,3.483c-1.21,1.031 -2.537,1.546 -3.98,1.546c-0.987,0 -1.755,-0.233 -2.303,-0.7c-0.548,-0.466 -0.822,-1.112 -0.822,-1.936c0,-1.292 0.605,-2.453 1.815,-3.483c1.21,-1.031 2.536,-1.547 3.979,-1.547c0.792,0 1.449,0.158 1.97,0.472l-0,-8.87l-10.108,2.702l0,11.328c0,1.291 -0.605,2.452 -1.815,3.483c-1.209,1.031 -2.536,1.546 -3.979,1.546c-0.987,0 -1.758,-0.233 -2.311,-0.7c-0.554,-0.466 -0.83,-1.106 -0.83,-1.92c-0,-1.292 0.605,-2.455 1.814,-3.492c1.21,-1.036 2.542,-1.554 3.996,-1.554c0.782,0 1.433,0.157 1.953,0.472l0,-17.334l12.435,-3.336l0,19.84Zm-1.155,-14.176l-0,-2.23l-10.108,2.734l0,2.197l10.108,-2.701Z" style="fill-rule:nonzero;"/></g><g><path d="M12.5,133.333l20.833,0l0,8.334l8.334,25l-0,8.333l-20.834,-0l0,-8.333l-8.333,-25l-0,-8.334Z" style="fill:#3882ba;stroke:#000;stroke-width:8.33px;"/><path d="M37.5,150l4.167,-4.167" style="fill:none;stroke:#000;stroke-width:8.33px;"/><path d="M62.5,125l-16.667,16.667" style="fill:none;stroke:#000;stroke-width:8.33px;"/></g><path d="M224.184,154.167l3.742,11.516l12.109,0l-9.796,7.118l3.742,11.516l-9.797,-7.118l-9.796,7.118l3.742,-11.516l-9.797,-7.118l12.109,0l3.742,-11.516Z" style="fill:#3882ba;stroke:#000;stroke-width:8.33px;"/></svg>