<?xml version="1.0" encoding="UTF-8" standalone="no"?><!DOCTYPE svg PUBLIC "-//W3C//DTD SVG 1.1//EN" "http://www.w3.org/Graphics/SVG/1.1/DTD/svg11.dtd"><svg width="100%" height="100%" viewBox="0 0 267 267" version="1.1" xmlns="http://www.w3.org/2000/svg" xmlns:xlink="http://www.w3.org/1999/xlink" xml:space="preserve" xmlns:serif="http://www.serif.com/" style="fill-rule:evenodd;clip-rule:evenodd;stroke-linecap:round;stroke-linejoin:round;stroke-miterlimit:1.5;"><rect id="general-knowledge" x="0" y="0" width="266.667" height="266.667" style="fill:none;"/><path d="M245.833,133.333c0,-58.209 -47.259,-105.468 -105.468,-105.468c-58.21,-0 -105.469,47.259 -105.469,105.468c-0,50.449 40.958,91.407 91.406,91.407c50.449,-0 91.406,-40.958 91.406,-91.407c0,-42.687 -34.656,-77.343 -77.343,-77.343c-42.688,-0 -77.344,34.656 -77.344,77.343c-0,34.926 28.355,63.282 63.281,63.282c34.926,-0 63.281,-28.356 63.281,-63.282c0,-27.164 -22.054,-49.218 -49.218,-49.218c-27.165,-0 -49.219,22.054 -49.219,49.218c-0,19.404 15.753,35.157 35.156,35.157c19.403,-0 35.156,-15.753 35.156,-35.157c0,-11.642 -9.451,-21.093 -21.093,-21.093c-11.642,-0 -21.094,9.451 -21.094,21.093c-0,3.881 3.15,7.032 7.031,7.032c3.881,-0 7.031,-3.151 7.031,-7.032c0,-3.88 3.151,-7.031 7.032,-7.031c3.88,0 7.031,3.151 7.031,7.031c-0,11.642 -9.452,21.094 -21.094,21.094c-11.642,0 -21.094,-9.452 -21.094,-21.094c0,-19.403 15.753,-35.156 35.157,-35.156c19.403,0 35.156,15.753 35.156,35.156c-0,27.165 -22.054,49.219 -49.219,49.219c-27.164,0 -49.219,-22.054 -49.219,-49.219c0,-34.926 28.356,-63.281 63.282,-63.281c34.925,0 63.281,28.355 63.281,63.281c-0,42.688 -34.657,77.344 -77.344,77.344c-42.687,0 -77.344,-34.656 -77.344,-77.344c0,-50.448 40.958,-91.406 91.407,-91.406c50.448,0 91.406,40.958 91.406,91.406c-0,58.21 -47.259,105.469 -105.469,105.469c-58.21,0 -105.469,-47.259 -105.469,-105.469" style="fill:none;stroke:#3882ba;stroke-width:4.17px;"/><g transform="matrix(166.667,0,0,166.667,174.5,197.583)"></g><text x="100.5px" y="197.583px" style="font-family:'Didot-Bold', 'Didot';font-weight:700;font-size:166.667px;fill:#3882ba;">?</text><g transform="matrix(166.667,0,0,166.667,170.333,193.417)"></g><text x="96.333px" y="193.417px" style="font-family:'Didot-Bold', 'Didot';font-weight:700;font-size:166.667px;">?</text></svg>