<?xml version="1.0" encoding="UTF-8" standalone="no"?><!DOCTYPE svg PUBLIC "-//W3C//DTD SVG 1.1//EN" "http://www.w3.org/Graphics/SVG/1.1/DTD/svg11.dtd"><svg width="100%" height="100%" viewBox="0 0 267 267" version="1.1" xmlns="http://www.w3.org/2000/svg" xmlns:xlink="http://www.w3.org/1999/xlink" xml:space="preserve" xmlns:serif="http://www.serif.com/" style="fill-rule:evenodd;clip-rule:evenodd;stroke-linecap:round;stroke-linejoin:round;stroke-miterlimit:1.5;"><rect id="general-knowledge" x="0" y="0" width="266.667" height="266.667" style="fill:none;"/><path d="M245.833,133.333c0,-58.209 -47.259,-105.468 -105.468,-105.468c-58.21,-0 -105.469,47.259 -105.469,105.468c-0,50.449 40.958,91.407 91.406,91.407c50.449,-0 91.406,-40.958 91.406,-91.407c0,-42.687 -34.656,-77.343 -77.343,-77.343c-42.688,-0 -77.344,34.656 -77.344,77.343c-0,34.926 28.355,63.282 63.281,63.282c34.926,-0 63.281,-28.356 63.281,-63.282c0,-27.164 -22.054,-49.218 -49.218,-49.218c-27.165,-0 -49.219,22.054 -49.219,49.218c-0,19.404 15.753,35.157 35.156,35.157c19.403,-0 35.156,-15.753 35.156,-35.157c0,-11.642 -9.451,-21.093 -21.093,-21.093c-11.642,-0 -21.094,9.451 -21.094,21.093c-0,3.881 3.15,7.032 7.031,7.032c3.881,-0 7.031,-3.151 7.031,-7.032c0,-3.88 3.151,-7.031 7.032,-7.031c3.88,0 7.031,3.151 7.031,7.031c-0,11.642 -9.452,21.094 -21.094,21.094c-11.642,0 -21.094,-9.452 -21.094,-21.094c0,-19.403 15.753,-35.156 35.157,-35.156c19.403,0 35.156,15.753 35.156,35.156c-0,27.165 -22.054,49.219 -49.219,49.219c-27.164,0 -49.219,-22.054 -49.219,-49.219c0,-34.926 28.356,-63.281 63.282,-63.281c34.925,0 63.281,28.355 63.281,63.281c-0,42.688 -34.657,77.344 -77.344,77.344c-42.687,0 -77.344,-34.656 -77.344,-77.344c0,-50.448 40.958,-91.406 91.407,-91.406c50.448,0 91.406,40.958 91.406,91.406c-0,58.21 -47.259,105.469 -105.469,105.469c-58.21,0 -105.469,-47.259 -105.469,-105.469" style="fill:none;stroke:#3882ba;stroke-width:4.17px;"/><path d="M110.5,187.417c-0,3.222 1.167,5.972 3.5,8.25c2.333,2.277 5.111,3.416 8.333,3.416c3.223,0 6,-1.139 8.334,-3.416c2.333,-2.278 3.5,-5.028 3.5,-8.25c-0,-3.223 -1.167,-6 -3.5,-8.334c-2.334,-2.333 -5.111,-3.5 -8.334,-3.5c-3.222,0 -6,1.167 -8.333,3.5c-2.333,2.334 -3.5,5.111 -3.5,8.334Zm10.5,-61l-0,39.166l2.833,0l0,-34.166l0.334,-0c0.889,1.222 2.361,2.472 4.416,3.75c2.056,1.277 5.028,1.916 8.917,1.916c2.222,0 4.917,-0.555 8.083,-1.666c3.167,-1.111 6.25,-2.861 9.25,-5.25c3,-2.389 5.556,-5.528 7.667,-9.417c2.111,-3.889 3.167,-8.611 3.167,-14.167c-0,-4.111 -0.639,-8 -1.917,-11.666c-1.278,-3.667 -3.167,-6.889 -5.667,-9.667c-2.5,-2.778 -5.639,-4.972 -9.416,-6.583c-3.778,-1.611 -8.111,-2.417 -13,-2.417c-2.778,-0 -5.584,0.361 -8.417,1.083c-2.833,0.723 -5.417,1.806 -7.75,3.25c-2.333,1.445 -4.222,3.306 -5.667,5.584c-1.444,2.277 -2.166,4.972 -2.166,8.083c-0,2.889 0.944,4.917 2.833,6.083c1.889,1.167 3.944,1.75 6.167,1.75c3.222,0 5.555,-0.527 7,-1.583c1.444,-1.056 2.166,-3.028 2.166,-5.917c0,-1.222 -0.194,-2.222 -0.583,-3c-0.389,-0.777 -0.778,-1.5 -1.167,-2.166c-0.389,-0.667 -0.777,-1.334 -1.166,-2c-0.389,-0.667 -0.584,-1.5 -0.584,-2.5c0,-1.556 0.695,-3 2.084,-4.334c1.389,-1.333 3.583,-2 6.583,-2c2,0 3.667,0.417 5,1.25c1.333,0.834 2.389,2.25 3.167,4.25c0.777,2 1.333,4.639 1.666,7.917c0.334,3.278 0.5,7.361 0.5,12.25c0,9.778 -0.722,17.222 -2.166,22.333c-1.445,5.111 -4.334,7.667 -8.667,7.667c-2.444,-0 -4.5,-0.806 -6.167,-2.417c-1.666,-1.611 -3.166,-3.416 -4.5,-5.416l-2.833,-0Z" style="fill:#3882ba;fill-rule:nonzero;"/><path d="M106.333,183.25c0,3.222 1.167,5.972 3.5,8.25c2.334,2.278 5.111,3.417 8.334,3.417c3.222,-0 6,-1.139 8.333,-3.417c2.333,-2.278 3.5,-5.028 3.5,-8.25c-0,-3.222 -1.167,-6 -3.5,-8.333c-2.333,-2.334 -5.111,-3.5 -8.333,-3.5c-3.223,-0 -6,1.166 -8.334,3.5c-2.333,2.333 -3.5,5.111 -3.5,8.333Zm10.5,-61l0,39.167l2.834,-0l-0,-34.167l0.333,-0c0.889,1.222 2.361,2.472 4.417,3.75c2.055,1.278 5.027,1.917 8.916,1.917c2.223,-0 4.917,-0.556 8.084,-1.667c3.166,-1.111 6.25,-2.861 9.25,-5.25c3,-2.389 5.555,-5.528 7.666,-9.417c2.111,-3.889 3.167,-8.611 3.167,-14.166c-0,-4.111 -0.639,-8 -1.917,-11.667c-1.277,-3.667 -3.166,-6.889 -5.666,-9.667c-2.5,-2.777 -5.639,-4.972 -9.417,-6.583c-3.778,-1.611 -8.111,-2.417 -13,-2.417c-2.778,0 -5.583,0.361 -8.417,1.084c-2.833,0.722 -5.416,1.805 -7.75,3.25c-2.333,1.444 -4.222,3.305 -5.666,5.583c-1.445,2.278 -2.167,4.972 -2.167,8.083c-0,2.889 0.944,4.917 2.833,6.084c1.889,1.166 3.945,1.75 6.167,1.75c3.222,-0 5.556,-0.528 7,-1.584c1.444,-1.055 2.167,-3.027 2.167,-5.916c-0,-1.223 -0.195,-2.223 -0.584,-3c-0.389,-0.778 -0.777,-1.5 -1.166,-2.167c-0.389,-0.667 -0.778,-1.333 -1.167,-2c-0.389,-0.667 -0.583,-1.5 -0.583,-2.5c-0,-1.556 0.694,-3 2.083,-4.333c1.389,-1.334 3.583,-2 6.583,-2c2,-0 3.667,0.416 5,1.25c1.334,0.833 2.389,2.25 3.167,4.25c0.778,2 1.333,4.639 1.667,7.916c0.333,3.278 0.5,7.361 0.5,12.25c-0,9.778 -0.723,17.223 -2.167,22.334c-1.444,5.111 -4.333,7.666 -8.667,7.666c-2.444,0 -4.5,-0.805 -6.166,-2.416c-1.667,-1.611 -3.167,-3.417 -4.5,-5.417l-2.834,-0Z" style="fill-rule:nonzero;"/></svg>