<?xml version="1.0" encoding="UTF-8" standalone="no"?><!DOCTYPE svg PUBLIC "-//W3C//DTD SVG 1.1//EN" "http://www.w3.org/Graphics/SVG/1.1/DTD/svg11.dtd"><svg width="100%" height="100%" viewBox="0 0 267 267" version="1.1" xmlns="http://www.w3.org/2000/svg" xmlns:xlink="http://www.w3.org/1999/xlink" xml:space="preserve" xmlns:serif="http://www.serif.com/" style="fill-rule:evenodd;clip-rule:evenodd;stroke-linecap:round;stroke-linejoin:round;stroke-miterlimit:1.5;"><rect id="geography" x="0" y="0" width="266.667" height="266.667" style="fill:none;"/><g><circle cx="133.341" cy="125" r="66.667" style="fill:#3882ba;"/><path d="M179.091,65.561c2.53,1.952 4.964,4.087 7.283,6.406c29.269,29.27 29.269,76.796 -0,106.066c-29.27,29.27 -76.797,29.27 -106.066,0c-2.3,-2.3 -4.419,-4.712 -6.357,-7.219" style="fill:none;stroke:#3882ba;stroke-width:8.33px;"/><path d="M75.007,183.333l116.667,-116.666" style="fill:none;stroke:#3882ba;stroke-width:8.33px;"/><path d="M133.341,216.667l-0,-29.167" style="fill:none;stroke:#3882ba;stroke-width:8.33px;"/><path d="M108.341,216.667l50,-0" style="fill:none;stroke:#3882ba;stroke-width:8.33px;"/></g><g><circle cx="125.007" cy="116.667" r="66.667"/><path d="M170.758,57.228c2.53,1.951 4.963,4.087 7.282,6.406c29.27,29.269 29.27,76.796 0,106.066c-29.269,29.269 -76.796,29.269 -106.066,-0c-2.299,-2.3 -4.418,-4.712 -6.356,-7.219" style="fill:none;stroke:#000;stroke-width:8.33px;"/><path d="M66.674,175l116.667,-116.667" style="fill:none;stroke:#000;stroke-width:8.33px;"/><path d="M125.007,208.333l0,-29.166" style="fill:none;stroke:#000;stroke-width:8.33px;"/><path d="M100.007,208.333l50,0" style="fill:none;stroke:#000;stroke-width:8.33px;"/></g></svg>