<?xml version="1.0" encoding="UTF-8" standalone="no"?><!DOCTYPE svg PUBLIC "-//W3C//DTD SVG 1.1//EN" "http://www.w3.org/Graphics/SVG/1.1/DTD/svg11.dtd"><svg width="100%" height="100%" viewBox="0 0 267 267" version="1.1" xmlns="http://www.w3.org/2000/svg" xmlns:xlink="http://www.w3.org/1999/xlink" xml:space="preserve" xmlns:serif="http://www.serif.com/" style="fill-rule:evenodd;clip-rule:evenodd;stroke-linecap:round;stroke-linejoin:round;stroke-miterlimit:1.5;"><rect id="geography" x="0" y="0" width="266.667" height="266.667" style="fill:none;"/><g><circle cx="131.257" cy="122.917" r="66.667" style="fill:#3882ba;"/><path d="M177.008,63.478c2.53,1.951 4.963,4.087 7.282,6.406c29.27,29.269 29.27,76.796 0,106.066c-29.269,29.269 -76.796,29.269 -106.066,-0c-2.299,-2.3 -4.418,-4.712 -6.356,-7.219" style="fill:none;stroke:#3882ba;stroke-width:8.33px;"/><path d="M72.924,181.25l116.667,-116.667" style="fill:none;stroke:#3882ba;stroke-width:8.33px;"/><path d="M131.257,214.583l0,-29.166" style="fill:none;stroke:#3882ba;stroke-width:8.33px;"/><path d="M106.257,214.583l50,0" style="fill:none;stroke:#3882ba;stroke-width:8.33px;"/></g><g><circle cx="127.091" cy="118.75" r="66.667"/><path d="M172.841,59.311c2.53,1.952 4.964,4.087 7.283,6.406c29.269,29.27 29.269,76.796 -0,106.066c-29.27,29.27 -76.797,29.27 -106.066,0c-2.3,-2.3 -4.419,-4.712 -6.357,-7.219" style="fill:none;stroke:#000;stroke-width:8.33px;"/><path d="M68.757,177.083l116.667,-116.666" style="fill:none;stroke:#000;stroke-width:8.33px;"/><path d="M127.091,210.417l-0,-29.167" style="fill:none;stroke:#000;stroke-width:8.33px;"/><path d="M102.091,210.417l50,-0" style="fill:none;stroke:#000;stroke-width:8.33px;"/></g><g><clipPath id="_clip1"><circle cx="127.091" cy="118.75" r="66.667"/></clipPath><g clip-path="url(#_clip1)"><path d="M127.558,98.507c-4.842,-0.291 -10.753,-4.935 -17.167,-3.878c-8.009,1.32 -8.622,1.291 -12.914,8.19c-3,4.822 -3.653,13.199 5.351,13.272c9.444,0.076 24.926,-4.693 24.581,13.13c-0.057,2.917 -1.684,6.478 -1.709,9.333c-0.081,9.05 -4.424,12.332 4.228,14.992c1.747,0.537 1.189,-0.96 9.406,-6.861c7.678,-5.513 2.611,-19.782 2.541,-27.842c-0.114,-13.398 0.675,-13.482 0.121,-14.493c-3.963,-7.231 -5.084,-7.681 -11.672,-5.802c-2.471,0.705 -2.737,-0.021 -2.766,-0.041Z" style="fill:#3882ba;stroke:#3882ba;stroke-width:4.17px;"/><path d="M148.244,147.374c0.481,-3.944 2.626,-6.85 4.02,-12.09c3.741,-14.063 5.327,4.271 -0.676,18.25c-0.103,0.24 -1.745,4.062 -2.585,1.99c-0.509,-1.254 -0.735,-7.496 -0.759,-8.15Z" style="fill:#3882ba;stroke:#3882ba;stroke-width:4.17px;"/><path d="M149.09,102.396c-3.851,-0.427 -2.77,-1.99 -5.118,-5.072c-3.569,-4.685 -3.012,-4.989 -5.753,-9.236c-0.313,-0.484 -3.938,-2.348 -4.045,-5.173c-0.316,-8.311 -12.254,-1.698 -10.365,-8.418c1.849,-6.578 9.747,-3.44 16.099,-3.436c0.642,0 1.232,-0.526 1.941,-0.6c0.709,-0.074 11.092,32.361 7.241,31.935Z" style="fill:#3882ba;stroke:#3882ba;stroke-width:4.17px;"/><path d="M96.698,74.928c17.581,0 19.04,-0.588 19.88,-1.672c3.125,-4.033 0.881,-6.679 5.974,-8.915c3.096,-1.359 4.193,-1.392 6.587,-8.672c-0,-0 0.54,-4.097 -1.487,-5.539c-8.598,-6.112 -39.575,3.514 -43.671,9.59c-2.734,4.056 -0.362,7.419 0.004,7.938c3.431,4.865 5.737,6.877 12.713,7.27Z" style="fill:#3882ba;stroke:#3882ba;stroke-width:4.17px;"/><path d="M159.095,88.024c-3.721,0.146 -2.562,-3.315 -6.682,-10.056c-2.599,-4.253 -0.344,-5.118 -3.036,-9.277c-1.418,-2.191 -0.031,-2.69 -1.43,-4.862c-3.529,-5.483 -1.724,-8.666 -1.499,-11.421c13.301,-1.254 12.468,2.391 19.309,7.798c2.537,2.005 2.969,1.166 5.629,2.969c20.409,13.833 19.68,14.854 20.766,17.418c1.726,4.074 0.977,4.976 5.109,6.579c1.631,0.633 12.819,5.841 10.157,11.235c-1.661,3.366 -3.154,2.413 -4.268,5.957c-1.128,3.585 -7.506,3.518 -15.077,6.312c-1.908,0.704 -5.937,0.442 -6.934,-2.787c-1.941,-6.286 -2.426,-6.083 -4.182,-12.387c-0.254,-0.912 -1.062,-3.809 -9.031,-7.638c-5.885,-2.829 -8.352,-0.156 -8.831,0.16Z" style="fill:#3882ba;stroke:#3882ba;stroke-width:4.17px;"/></g></g></svg>