<?xml version="1.0" encoding="UTF-8" standalone="no"?><!DOCTYPE svg PUBLIC "-//W3C//DTD SVG 1.1//EN" "http://www.w3.org/Graphics/SVG/1.1/DTD/svg11.dtd"><svg width="100%" height="100%" viewBox="0 0 267 267" version="1.1" xmlns="http://www.w3.org/2000/svg" xmlns:xlink="http://www.w3.org/1999/xlink" xml:space="preserve" xmlns:serif="http://www.serif.com/" style="fill-rule:evenodd;clip-rule:evenodd;stroke-linecap:round;stroke-linejoin:round;stroke-miterlimit:1.5;"><rect id="history" x="0" y="0" width="266.667" height="266.667" style="fill:none;"/><g><g><path d="M66.667,166.667l-0,-54.167l12.5,0l-0,12.5l12.5,0l-0,-12.5l12.5,0l-0,33.333" style="fill:none;stroke:#3882ba;stroke-width:8.33px;"/><path d="M75,112.5l0,-20.833l20.833,-0l0,20.833" style="fill:none;stroke:#3882ba;stroke-width:8.33px;"/><path d="M87.384,91.667l0.116,-25" style="fill:none;stroke:#3882ba;stroke-width:8.33px;"/><path d="M87.5,70.833l12.5,0l0,4.167l8.333,0" style="fill:none;stroke:#3882ba;stroke-width:8.33px;"/></g><g><path d="M120.833,45.833l20.834,0" style="fill:none;stroke:#3882ba;stroke-width:8.33px;"/><path d="M166.667,45.833l20.833,0" style="fill:none;stroke:#3882ba;stroke-width:8.33px;"/><path d="M136.489,28.156l11.049,11.048" style="fill:none;stroke:#3882ba;stroke-width:8.33px;"/><path d="M160.796,52.462l11.048,11.049" style="fill:none;stroke:#3882ba;stroke-width:8.33px;"/><path d="M154.167,12.5l-0,20.833" style="fill:none;stroke:#3882ba;stroke-width:8.33px;"/><path d="M154.167,58.333l-0,20.834" style="fill:none;stroke:#3882ba;stroke-width:8.33px;"/><path d="M171.844,28.156l-11.048,11.048" style="fill:none;stroke:#3882ba;stroke-width:8.33px;"/><path d="M147.538,52.462l-11.049,11.049" style="fill:none;stroke:#3882ba;stroke-width:8.33px;"/></g><g><path d="M91.667,154.167l75,-0" style="fill:none;stroke:#3882ba;stroke-width:8.33px;"/><path d="M158.389,154.167l-0.056,66.666l-12.5,-12.5l-12.5,12.5l0,-66.666" style="fill:none;stroke:#3882ba;stroke-width:8.33px;"/></g></g><g><path d="M15.705,191.946l216.507,-125" style="fill:none;stroke:#000;stroke-width:8.33px;"/><path d="M128.125,136.663l-8.333,-14.434" style="fill:none;stroke:#000;stroke-width:8.33px;"/><path d="M164.209,115.829l-8.333,-14.433" style="fill:none;stroke:#000;stroke-width:8.33px;"/><path d="M200.294,94.996l-8.334,-14.434" style="fill:none;stroke:#000;stroke-width:8.33px;"/><path d="M236.378,74.163l-8.333,-14.434" style="fill:none;stroke:#000;stroke-width:8.33px;"/><path d="M92.041,157.496l-8.334,-14.434" style="fill:none;stroke:#000;stroke-width:8.33px;"/><path d="M55.956,178.329l-8.333,-14.433" style="fill:none;stroke:#000;stroke-width:8.33px;"/><path d="M19.872,199.163l-8.334,-14.434" style="fill:none;stroke:#000;stroke-width:8.33px;"/><path d="M31.903,161.492c0.072,-0.042 0.123,-0.098 0.155,-0.169c0.031,-0.071 0.011,-0.168 -0.06,-0.29l-2.087,-3.616c-0.051,0.029 -0.108,0.067 -0.173,0.114c-0.064,0.047 -0.124,0.098 -0.178,0.154c-0.055,0.055 -0.1,0.115 -0.135,0.178c-0.035,0.064 -0.047,0.131 -0.036,0.201l-0.129,0.075l-0.788,-1.364l0.13,-0.075c0.037,0.065 0.096,0.092 0.176,0.079c0.079,-0.012 0.148,-0.035 0.205,-0.068c0.123,-0.071 0.204,-0.168 0.243,-0.292c0.04,-0.123 0.028,-0.239 -0.035,-0.348c-0.058,-0.101 -0.119,-0.152 -0.182,-0.154c-0.064,-0.002 -0.14,0.013 -0.227,0.045l-0.075,-0.13l1.753,-1.013l0.075,0.13c-0.078,0.065 -0.136,0.131 -0.172,0.201c-0.037,0.069 -0.035,0.14 0.007,0.212l2.862,4.958c0.071,0.123 0.147,0.187 0.227,0.194c0.081,0.006 0.158,-0.012 0.23,-0.053l0.075,0.13l-1.786,1.031l-0.075,-0.13Z" style="fill-rule:nonzero;"/><path d="M33.849,153.989l0.074,-0.173c0.078,0.003 0.15,-0.015 0.215,-0.052c0.036,-0.021 0.079,-0.101 0.128,-0.24c0.05,-0.139 0.139,-0.314 0.269,-0.523c0.129,-0.209 0.316,-0.44 0.56,-0.692c0.244,-0.251 0.576,-0.498 0.995,-0.74c0.281,-0.162 0.581,-0.297 0.899,-0.404c0.319,-0.107 0.632,-0.165 0.939,-0.174c0.308,-0.009 0.593,0.043 0.855,0.156c0.263,0.113 0.475,0.31 0.638,0.592c0.15,0.26 0.212,0.543 0.188,0.851c-0.025,0.308 -0.15,0.565 -0.377,0.773l0.013,0.022c0.352,-0.107 0.689,-0.112 1.01,-0.013c0.321,0.098 0.576,0.309 0.763,0.634c0.213,0.368 0.296,0.725 0.249,1.069c-0.046,0.344 -0.166,0.666 -0.359,0.965c-0.193,0.299 -0.44,0.567 -0.741,0.803c-0.302,0.237 -0.597,0.439 -0.885,0.605c-0.325,0.188 -0.646,0.332 -0.963,0.433c-0.317,0.101 -0.607,0.173 -0.872,0.215c-0.264,0.042 -0.486,0.069 -0.667,0.082c-0.18,0.013 -0.299,0.036 -0.357,0.069c-0.036,0.021 -0.062,0.046 -0.079,0.075c-0.017,0.029 -0.036,0.059 -0.057,0.09l-0.116,0.024l-0.272,-1.922l0.157,-0.003c0.001,0.018 0.012,0.046 0.033,0.082l0.043,0.075c0.096,0.166 0.261,0.269 0.495,0.307c0.234,0.038 0.487,0.039 0.759,0.002c0.272,-0.037 0.542,-0.102 0.811,-0.195c0.269,-0.092 0.487,-0.186 0.653,-0.282c0.129,-0.075 0.276,-0.176 0.438,-0.304c0.162,-0.127 0.302,-0.268 0.42,-0.423c0.117,-0.154 0.198,-0.319 0.242,-0.493c0.043,-0.174 0.013,-0.352 -0.091,-0.532c-0.1,-0.173 -0.233,-0.282 -0.398,-0.326c-0.165,-0.045 -0.34,-0.052 -0.525,-0.022c-0.185,0.03 -0.367,0.085 -0.547,0.164c-0.18,0.08 -0.331,0.156 -0.454,0.227c-0.173,0.1 -0.314,0.202 -0.421,0.308c-0.108,0.105 -0.146,0.235 -0.114,0.39l-0.13,0.075l-0.85,-1.472l0.13,-0.075c0.098,0.136 0.231,0.187 0.398,0.152c0.168,-0.034 0.339,-0.101 0.512,-0.201c0.115,-0.067 0.243,-0.155 0.382,-0.264c0.139,-0.109 0.258,-0.231 0.359,-0.366c0.1,-0.135 0.168,-0.28 0.203,-0.435c0.036,-0.155 0.01,-0.308 -0.078,-0.46c-0.083,-0.144 -0.192,-0.238 -0.328,-0.28c-0.135,-0.042 -0.284,-0.05 -0.446,-0.024c-0.163,0.027 -0.331,0.078 -0.503,0.154c-0.173,0.076 -0.343,0.161 -0.509,0.257c-0.194,0.113 -0.38,0.249 -0.557,0.409c-0.178,0.16 -0.328,0.324 -0.453,0.492c-0.124,0.168 -0.215,0.326 -0.273,0.475c-0.059,0.15 -0.063,0.267 -0.013,0.354c0.017,0.029 0.04,0.061 0.07,0.097c0.031,0.035 0.063,0.067 0.098,0.095l-0.059,0.121l-1.504,-0.604Z" style="fill-rule:nonzero;"/><path d="M43.241,148.681c-0.252,0.146 -0.458,0.332 -0.616,0.558c-0.158,0.226 -0.264,0.472 -0.317,0.739c-0.053,0.266 -0.055,0.546 -0.005,0.84c0.049,0.294 0.155,0.582 0.317,0.863c0.163,0.282 0.359,0.517 0.589,0.707c0.23,0.19 0.473,0.328 0.73,0.415c0.258,0.087 0.524,0.119 0.799,0.095c0.274,-0.024 0.538,-0.109 0.791,-0.255c0.252,-0.145 0.458,-0.331 0.616,-0.557c0.158,-0.226 0.264,-0.473 0.317,-0.739c0.053,-0.266 0.055,-0.547 0.005,-0.84c-0.049,-0.294 -0.155,-0.582 -0.317,-0.863c-0.163,-0.282 -0.359,-0.517 -0.589,-0.707c-0.23,-0.19 -0.473,-0.328 -0.73,-0.415c-0.258,-0.088 -0.524,-0.119 -0.799,-0.095c-0.274,0.024 -0.538,0.109 -0.791,0.254Zm-0.537,-0.931c0.418,-0.241 0.852,-0.395 1.299,-0.461c0.448,-0.066 0.882,-0.048 1.303,0.056c0.421,0.104 0.811,0.287 1.17,0.551c0.359,0.264 0.662,0.609 0.908,1.035c0.245,0.426 0.393,0.86 0.442,1.304c0.049,0.443 0.012,0.871 -0.111,1.283c-0.122,0.413 -0.326,0.793 -0.612,1.14c-0.285,0.348 -0.637,0.642 -1.055,0.884c-0.419,0.242 -0.85,0.399 -1.294,0.472c-0.443,0.074 -0.874,0.06 -1.293,-0.04c-0.419,-0.1 -0.808,-0.282 -1.167,-0.546c-0.359,-0.264 -0.662,-0.609 -0.908,-1.034c-0.245,-0.426 -0.393,-0.861 -0.442,-1.304c-0.049,-0.443 -0.013,-0.873 0.108,-1.289c0.12,-0.416 0.321,-0.801 0.602,-1.156c0.281,-0.355 0.631,-0.653 1.05,-0.895Z" style="fill-rule:nonzero;"/><path d="M49.856,144.863c-0.253,0.145 -0.458,0.331 -0.617,0.557c-0.158,0.226 -0.263,0.473 -0.316,0.739c-0.054,0.266 -0.055,0.547 -0.006,0.84c0.049,0.294 0.155,0.582 0.318,0.863c0.162,0.282 0.358,0.517 0.588,0.707c0.23,0.19 0.474,0.328 0.731,0.416c0.257,0.087 0.523,0.118 0.798,0.094c0.275,-0.024 0.538,-0.108 0.791,-0.254c0.253,-0.146 0.458,-0.332 0.616,-0.558c0.158,-0.226 0.264,-0.472 0.317,-0.739c0.053,-0.266 0.055,-0.546 0.006,-0.84c-0.05,-0.294 -0.156,-0.582 -0.318,-0.863c-0.163,-0.282 -0.359,-0.517 -0.589,-0.707c-0.229,-0.189 -0.473,-0.328 -0.73,-0.415c-0.257,-0.087 -0.523,-0.119 -0.798,-0.095c-0.275,0.024 -0.539,0.109 -0.791,0.255Zm-0.538,-0.931c0.419,-0.242 0.852,-0.396 1.3,-0.462c0.447,-0.066 0.882,-0.047 1.302,0.056c0.421,0.104 0.811,0.288 1.17,0.552c0.359,0.264 0.662,0.609 0.908,1.034c0.246,0.426 0.393,0.861 0.442,1.304c0.049,0.443 0.012,0.871 -0.11,1.283c-0.123,0.413 -0.327,0.793 -0.612,1.14c-0.286,0.348 -0.638,0.643 -1.056,0.884c-0.419,0.242 -0.85,0.399 -1.294,0.473c-0.443,0.073 -0.874,0.06 -1.293,-0.04c-0.418,-0.1 -0.807,-0.282 -1.167,-0.546c-0.359,-0.264 -0.661,-0.609 -0.907,-1.035c-0.246,-0.426 -0.394,-0.86 -0.443,-1.304c-0.049,-0.443 -0.013,-0.872 0.108,-1.288c0.12,-0.417 0.321,-0.802 0.602,-1.157c0.282,-0.354 0.631,-0.653 1.05,-0.894Z" style="fill-rule:nonzero;"/><path d="M95.151,175.915l-1.104,0.638l-2.396,-4.149c-0.043,0.048 -0.101,0.106 -0.174,0.174c-0.073,0.068 -0.131,0.124 -0.172,0.166l-0.348,-0.602c0.074,-0.076 0.165,-0.171 0.273,-0.285c0.108,-0.114 0.572,-0.596 0.686,-0.716c0.114,-0.12 0.214,-0.224 0.3,-0.311l2.935,5.085Z" style="fill-rule:nonzero;"/><path d="M99.127,172.901l-3.23,1.865l-0.415,-0.719c0.007,-0.216 0.016,-0.486 0.025,-0.811c0.01,-0.325 0.02,-0.67 0.03,-1.036c0.01,-0.365 0.02,-0.734 0.031,-1.106c0.01,-0.373 0.047,-1.607 0.053,-1.824c0.006,-0.218 0.009,-0.355 0.009,-0.411l0.592,-0.342l2.936,5.085l-1.105,0.638l-1.794,-3.108c-0.002,0.086 -0.006,0.19 -0.01,0.312c-0.005,0.122 -0.025,0.685 -0.03,0.839c-0.006,0.153 -0.01,0.304 -0.014,0.452c-0.012,0.345 -0.024,0.711 -0.035,1.098l2.621,-1.513l0.336,0.581Z" style="fill-rule:nonzero;"/><path d="M102.772,169.387c0.128,0.222 0.207,0.454 0.236,0.696c0.029,0.241 0.012,0.477 -0.051,0.705c-0.063,0.229 -0.167,0.441 -0.313,0.636c-0.146,0.195 -0.33,0.356 -0.552,0.484c-0.222,0.128 -0.454,0.207 -0.696,0.236c-0.241,0.029 -0.476,0.013 -0.704,-0.048c-0.228,-0.061 -0.439,-0.164 -0.634,-0.31c-0.195,-0.146 -0.356,-0.33 -0.484,-0.552l-1.093,-1.893c-0.128,-0.222 -0.207,-0.454 -0.236,-0.695c-0.029,-0.242 -0.013,-0.477 0.048,-0.704c0.061,-0.228 0.165,-0.44 0.311,-0.634c0.146,-0.195 0.33,-0.357 0.552,-0.485c0.222,-0.128 0.454,-0.207 0.695,-0.236c0.242,-0.029 0.478,-0.013 0.707,0.047c0.23,0.06 0.442,0.163 0.637,0.309c0.195,0.146 0.356,0.33 0.484,0.552l1.093,1.892Zm-2.713,-2.148c-0.093,0.002 -0.19,0.018 -0.29,0.048c-0.1,0.03 -0.193,0.069 -0.277,0.118c-0.081,0.047 -0.16,0.106 -0.236,0.178c-0.076,0.072 -0.138,0.148 -0.186,0.227l2.124,3.679c0.091,-0.005 0.187,-0.022 0.288,-0.05c0.102,-0.028 0.193,-0.065 0.274,-0.112c0.085,-0.049 0.165,-0.109 0.241,-0.181c0.076,-0.072 0.138,-0.148 0.186,-0.228l-2.124,-3.679Z" style="fill-rule:nonzero;"/><path d="M107.027,166.931c0.128,0.222 0.207,0.453 0.236,0.695c0.029,0.242 0.012,0.477 -0.051,0.706c-0.063,0.229 -0.167,0.441 -0.313,0.635c-0.146,0.195 -0.33,0.356 -0.552,0.485c-0.222,0.128 -0.454,0.206 -0.696,0.235c-0.241,0.03 -0.476,0.014 -0.704,-0.048c-0.228,-0.061 -0.439,-0.164 -0.634,-0.31c-0.195,-0.146 -0.356,-0.33 -0.484,-0.552l-1.093,-1.892c-0.128,-0.222 -0.206,-0.454 -0.236,-0.696c-0.029,-0.242 -0.013,-0.476 0.048,-0.704c0.061,-0.228 0.165,-0.439 0.311,-0.634c0.146,-0.195 0.33,-0.356 0.552,-0.484c0.222,-0.129 0.454,-0.207 0.695,-0.236c0.242,-0.029 0.478,-0.014 0.707,0.046c0.23,0.06 0.442,0.163 0.637,0.309c0.195,0.146 0.356,0.33 0.484,0.552l1.093,1.893Zm-2.713,-2.148c-0.093,0.002 -0.19,0.018 -0.29,0.047c-0.1,0.03 -0.193,0.069 -0.277,0.118c-0.081,0.047 -0.16,0.106 -0.236,0.178c-0.076,0.072 -0.138,0.148 -0.186,0.227l2.124,3.679c0.091,-0.005 0.187,-0.022 0.289,-0.05c0.101,-0.028 0.192,-0.065 0.273,-0.112c0.085,-0.049 0.165,-0.109 0.241,-0.181c0.076,-0.072 0.138,-0.148 0.186,-0.227l-2.124,-3.679Z" style="fill-rule:nonzero;"/><path d="M105.46,114.624l-0.25,-0.433c0.062,-0.186 0.127,-0.37 0.197,-0.551c0.069,-0.181 0.148,-0.379 0.237,-0.595c0.089,-0.216 0.187,-0.43 0.293,-0.641c0.106,-0.212 0.233,-0.44 0.382,-0.686c0.357,0.17 0.61,0.383 0.758,0.641c0.081,0.141 0.142,0.315 0.182,0.522c0.04,0.207 0.072,0.452 0.096,0.734c0.024,0.282 0.055,0.635 0.093,1.059c0.116,1.16 0.243,2.098 0.381,2.815c0.139,0.716 0.27,1.181 0.395,1.396c0.01,0.018 0.062,0.08 0.156,0.185c0.093,0.106 0.158,0.189 0.192,0.248c0.059,0.103 0.062,0.174 0.008,0.215c-0.054,0.04 -0.149,0.066 -0.283,0.078c-0.348,0.023 -0.603,0.001 -0.764,-0.066c-0.161,-0.067 -0.296,-0.196 -0.406,-0.386c-0.197,-0.342 -0.378,-0.944 -0.543,-1.808c-0.083,-0.436 -0.143,-0.882 -0.182,-1.34c-0.038,-0.457 -0.061,-0.929 -0.067,-1.416c-0.007,-0.487 -0.008,-0.939 -0.004,-1.355c-0.302,0.396 -0.592,0.857 -0.871,1.384Z" style="fill-rule:nonzero;"/><path d="M109.189,110.681c0.622,-0.321 1.095,-0.576 1.419,-0.763c0.476,-0.275 0.925,-0.548 1.346,-0.819c0.034,0.417 0.044,0.774 0.03,1.071c-0.014,0.298 -0.042,0.475 -0.084,0.532c-0.076,0.081 -0.411,0.293 -1.007,0.637c-0.549,0.318 -0.944,0.541 -1.184,0.67c-0.202,0.563 -0.277,1.165 -0.226,1.808c0.529,-0.606 0.957,-1.004 1.285,-1.193c0.427,-0.246 0.829,-0.317 1.207,-0.211c0.378,0.106 0.7,0.388 0.964,0.846c0.336,0.582 0.447,1.211 0.332,1.888c-0.114,0.676 -0.392,1.31 -0.833,1.901c-0.441,0.591 -0.967,1.062 -1.577,1.414c-0.348,0.201 -0.627,0.29 -0.837,0.265c-0.209,-0.025 -0.397,-0.182 -0.564,-0.471c-0.096,-0.166 -0.143,-0.32 -0.141,-0.464c0.001,-0.145 0.048,-0.307 0.141,-0.488c0.227,-0.445 0.538,-0.782 0.932,-1.01c0.043,-0.024 0.072,-0.022 0.088,0.006c0.008,0.014 0.003,0.036 -0.015,0.065c-0.018,0.029 -0.029,0.045 -0.033,0.047c-0.352,0.424 -0.5,0.684 -0.445,0.779c0.053,0.091 0.227,0.052 0.523,-0.119c0.434,-0.25 0.823,-0.62 1.168,-1.108c0.346,-0.488 0.592,-0.972 0.74,-1.453c0.148,-0.48 0.168,-0.813 0.06,-1c-0.081,-0.141 -0.211,-0.214 -0.39,-0.218c-0.179,-0.005 -0.392,0.064 -0.638,0.206c-0.24,0.138 -0.446,0.284 -0.618,0.438c-0.172,0.153 -0.362,0.335 -0.569,0.547c-0.207,0.211 -0.34,0.334 -0.4,0.368c-0.117,0.067 -0.225,0.062 -0.327,-0.016c-0.091,-0.06 -0.18,-0.12 -0.269,-0.179c-0.088,-0.06 -0.171,-0.127 -0.25,-0.201c-0.078,-0.075 -0.136,-0.141 -0.174,-0.199c-0.228,-0.883 -0.113,-2.075 0.346,-3.576Z" style="fill-rule:nonzero;"/><path d="M116.014,107.086c0.208,-0.022 0.399,0.029 0.571,0.153c0.173,0.124 0.353,0.349 0.543,0.677c0.286,0.497 0.496,1.09 0.629,1.779c0.132,0.69 0.165,1.39 0.098,2.1c-0.066,0.711 -0.236,1.363 -0.508,1.957c-0.307,0.666 -0.626,1.094 -0.957,1.285c-0.257,0.149 -0.543,0.211 -0.858,0.186c-0.315,-0.025 -0.623,-0.142 -0.922,-0.352c-0.3,-0.21 -0.561,-0.507 -0.783,-0.891c-0.309,-0.536 -0.487,-1.184 -0.533,-1.944c-0.047,-0.76 0.019,-1.509 0.197,-2.246c0.178,-0.737 0.439,-1.376 0.782,-1.917c0.343,-0.541 0.713,-0.875 1.11,-1.001c0.258,-0.083 0.468,-0.011 0.631,0.214Zm-0.618,1.738l-0.037,-0.493c-0.147,0.226 -0.27,0.436 -0.37,0.63c-0.1,0.193 -0.198,0.443 -0.297,0.749c-0.098,0.306 -0.179,0.665 -0.241,1.077c-0.096,0.68 -0.111,1.293 -0.044,1.84c0.066,0.546 0.188,0.973 0.365,1.28c0.254,0.44 0.529,0.575 0.825,0.404c0.169,-0.098 0.359,-0.329 0.568,-0.694c0.21,-0.366 0.398,-0.811 0.566,-1.335c0.159,-0.505 0.255,-1.024 0.289,-1.555c0.034,-0.532 0.011,-1.024 -0.069,-1.475c-0.08,-0.452 -0.197,-0.81 -0.349,-1.075c-0.098,-0.169 -0.211,-0.279 -0.338,-0.329c-0.128,-0.051 -0.249,-0.044 -0.361,0.021c-0.106,0.061 -0.195,0.167 -0.266,0.316c-0.071,0.149 -0.151,0.362 -0.241,0.639Z" style="fill-rule:nonzero;"/><path d="M120.755,104.349c0.209,-0.022 0.399,0.029 0.572,0.153c0.172,0.123 0.353,0.349 0.542,0.677c0.287,0.497 0.497,1.09 0.629,1.779c0.133,0.689 0.165,1.389 0.099,2.1c-0.067,0.71 -0.237,1.362 -0.509,1.957c-0.306,0.665 -0.625,1.094 -0.956,1.285c-0.258,0.148 -0.544,0.21 -0.859,0.185c-0.315,-0.024 -0.622,-0.142 -0.922,-0.352c-0.3,-0.21 -0.561,-0.507 -0.782,-0.891c-0.31,-0.535 -0.487,-1.183 -0.534,-1.943c-0.046,-0.76 0.019,-1.509 0.197,-2.246c0.179,-0.737 0.439,-1.377 0.782,-1.918c0.343,-0.541 0.713,-0.874 1.111,-1c0.257,-0.083 0.467,-0.012 0.63,0.214Zm-0.617,1.738l-0.038,-0.493c-0.147,0.226 -0.27,0.435 -0.37,0.629c-0.099,0.194 -0.198,0.444 -0.296,0.749c-0.099,0.306 -0.179,0.665 -0.242,1.077c-0.096,0.681 -0.111,1.294 -0.044,1.841c0.066,0.546 0.188,0.973 0.365,1.279c0.255,0.441 0.53,0.575 0.826,0.405c0.169,-0.098 0.358,-0.33 0.568,-0.695c0.209,-0.365 0.398,-0.81 0.565,-1.334c0.159,-0.505 0.256,-1.024 0.29,-1.556c0.033,-0.531 0.01,-1.023 -0.07,-1.475c-0.08,-0.452 -0.196,-0.81 -0.349,-1.074c-0.097,-0.169 -0.21,-0.279 -0.338,-0.33c-0.128,-0.05 -0.248,-0.043 -0.361,0.022c-0.106,0.061 -0.194,0.166 -0.266,0.315c-0.071,0.15 -0.151,0.363 -0.24,0.64Z" style="fill-rule:nonzero;"/><path d="M166.45,134.435l-3.775,-6.538l-0.635,1.449l-0.675,-1.169l0.635,-1.45l1.104,-0.637l4.45,7.708l-1.104,0.637Z" style="fill-rule:nonzero;"/><path d="M167.607,123.49l0.613,3.962l0.035,0.009c0.019,-0.05 0.061,-0.106 0.127,-0.167c0.065,-0.062 0.159,-0.128 0.282,-0.199c0.195,-0.113 0.402,-0.17 0.622,-0.172c0.221,-0.002 0.419,0.042 0.596,0.132c0.097,0.05 0.182,0.107 0.257,0.17c0.075,0.062 0.16,0.152 0.257,0.27c0.089,0.121 0.195,0.279 0.317,0.474c0.122,0.194 0.27,0.443 0.445,0.746c0.146,0.252 0.262,0.462 0.349,0.628c0.086,0.167 0.153,0.308 0.201,0.425c0.045,0.128 0.075,0.241 0.088,0.339c0.013,0.098 0.02,0.205 0.019,0.321c-0.007,0.322 -0.093,0.617 -0.26,0.887c-0.167,0.269 -0.402,0.491 -0.705,0.666c-0.303,0.175 -0.612,0.265 -0.927,0.269c-0.316,0.004 -0.612,-0.068 -0.89,-0.216c-0.108,-0.053 -0.201,-0.11 -0.279,-0.171c-0.078,-0.06 -0.158,-0.144 -0.239,-0.251c-0.084,-0.096 -0.177,-0.223 -0.278,-0.381c-0.101,-0.158 -0.224,-0.364 -0.37,-0.616c-0.137,-0.238 -0.247,-0.437 -0.33,-0.597c-0.082,-0.159 -0.149,-0.3 -0.202,-0.424c-0.048,-0.117 -0.083,-0.229 -0.107,-0.335c-0.023,-0.107 -0.045,-0.222 -0.068,-0.344l-0.787,-4.713l1.234,-0.712Zm2.003,5.094c-0.096,-0.166 -0.227,-0.269 -0.394,-0.307c-0.166,-0.039 -0.322,-0.016 -0.466,0.067c-0.144,0.083 -0.241,0.207 -0.291,0.37c-0.05,0.164 -0.027,0.329 0.069,0.495l0.825,1.429c0.095,0.165 0.227,0.268 0.393,0.306c0.167,0.039 0.322,0.016 0.467,-0.067c0.144,-0.083 0.241,-0.207 0.291,-0.37c0.05,-0.164 0.027,-0.329 -0.069,-0.494l-0.825,-1.429Z" style="fill-rule:nonzero;"/><path d="M169.663,124.425c-0.15,-0.26 -0.238,-0.517 -0.265,-0.771c-0.026,-0.254 -0.005,-0.497 0.063,-0.729c0.068,-0.232 0.18,-0.443 0.334,-0.633c0.155,-0.191 0.341,-0.348 0.557,-0.473c0.217,-0.125 0.446,-0.207 0.688,-0.246c0.242,-0.039 0.481,-0.03 0.716,0.027c0.235,0.057 0.456,0.16 0.662,0.31c0.207,0.15 0.386,0.355 0.536,0.615l2.612,4.525c0.15,0.26 0.238,0.517 0.265,0.771c0.026,0.254 0.006,0.497 -0.063,0.729c-0.068,0.232 -0.179,0.443 -0.334,0.633c-0.155,0.191 -0.34,0.348 -0.557,0.473c-0.216,0.125 -0.446,0.207 -0.688,0.246c-0.242,0.039 -0.481,0.03 -0.716,-0.027c-0.235,-0.057 -0.455,-0.16 -0.662,-0.31c-0.207,-0.15 -0.386,-0.355 -0.536,-0.615l-2.612,-4.525Zm3.717,3.888c0.091,0.158 0.218,0.261 0.379,0.307c0.162,0.046 0.322,0.024 0.481,-0.068c0.158,-0.092 0.258,-0.219 0.299,-0.382c0.04,-0.163 0.015,-0.324 -0.077,-0.482l-2.612,-4.525c-0.092,-0.159 -0.219,-0.262 -0.38,-0.308c-0.162,-0.046 -0.322,-0.024 -0.48,0.068c-0.159,0.092 -0.259,0.219 -0.3,0.382c-0.04,0.163 -0.015,0.324 0.077,0.483l2.613,4.525Z" style="fill-rule:nonzero;"/><path d="M173.69,122.1c-0.15,-0.26 -0.238,-0.517 -0.265,-0.771c-0.026,-0.254 -0.005,-0.497 0.063,-0.729c0.068,-0.232 0.18,-0.443 0.334,-0.633c0.155,-0.191 0.341,-0.348 0.557,-0.473c0.217,-0.125 0.446,-0.207 0.688,-0.246c0.242,-0.039 0.481,-0.03 0.716,0.027c0.235,0.057 0.456,0.16 0.662,0.31c0.207,0.15 0.386,0.355 0.536,0.615l2.612,4.525c0.15,0.26 0.239,0.517 0.265,0.771c0.026,0.254 0.006,0.497 -0.063,0.729c-0.068,0.232 -0.179,0.443 -0.334,0.633c-0.155,0.191 -0.34,0.348 -0.557,0.473c-0.216,0.125 -0.446,0.207 -0.688,0.246c-0.242,0.039 -0.481,0.03 -0.716,-0.027c-0.235,-0.057 -0.455,-0.16 -0.662,-0.31c-0.207,-0.15 -0.386,-0.355 -0.536,-0.615l-2.612,-4.525Zm3.717,3.888c0.091,0.158 0.218,0.261 0.379,0.307c0.162,0.046 0.322,0.024 0.481,-0.068c0.158,-0.092 0.258,-0.219 0.299,-0.382c0.04,-0.163 0.015,-0.324 -0.077,-0.482l-2.612,-4.525c-0.092,-0.159 -0.219,-0.262 -0.38,-0.308c-0.162,-0.046 -0.322,-0.024 -0.48,0.068c-0.159,0.092 -0.259,0.219 -0.3,0.382c-0.04,0.163 -0.015,0.324 0.077,0.483l2.613,4.525Z" style="fill-rule:nonzero;"/><path d="M179.245,79.688l-0.903,0.522l-3.937,-6.819l-0.042,0.025l-1.069,2.372l-0.553,-0.957l1.066,-2.476l0.904,-0.522l4.534,7.855Z" style="fill-rule:nonzero;"/><path d="M176.973,70.527l4.905,-2.832l0.494,0.856l0.833,8.851l-0.973,0.562l-0.767,-8.861l-0.037,-0.063l-3.985,2.301l-0.47,-0.814Z" style="fill-rule:nonzero;"/><path d="M186.433,70.14l0.146,0.253c0.564,0.977 1.172,1.65 1.825,2.02c0.653,0.37 1.264,0.391 1.833,0.062c0.569,-0.329 0.859,-0.869 0.868,-1.622c0.01,-0.752 -0.267,-1.617 -0.831,-2.593l-0.146,-0.253c-0.564,-0.977 -1.175,-1.65 -1.834,-2.022c-0.658,-0.372 -1.272,-0.393 -1.841,-0.064c-0.569,0.328 -0.856,0.869 -0.86,1.624c-0.004,0.754 0.276,1.619 0.84,2.595Zm-0.762,0.792l-0.159,-0.275c-0.698,-1.209 -1.009,-2.311 -0.934,-3.309c0.075,-0.997 0.544,-1.745 1.408,-2.243c0.867,-0.5 1.749,-0.533 2.646,-0.097c0.898,0.435 1.696,1.257 2.393,2.466l0.159,0.275c0.698,1.209 1.01,2.309 0.936,3.3c-0.073,0.992 -0.543,1.738 -1.41,2.238c-0.864,0.499 -1.745,0.533 -2.644,0.103c-0.899,-0.43 -1.697,-1.249 -2.395,-2.458Z" style="fill-rule:nonzero;"/><path d="M193.553,66.029l0.146,0.254c0.564,0.976 1.172,1.649 1.825,2.019c0.653,0.37 1.264,0.391 1.833,0.062c0.569,-0.328 0.859,-0.869 0.868,-1.621c0.01,-0.753 -0.267,-1.617 -0.831,-2.593l-0.146,-0.254c-0.564,-0.976 -1.175,-1.65 -1.834,-2.022c-0.658,-0.371 -1.272,-0.393 -1.841,-0.064c-0.569,0.328 -0.856,0.87 -0.86,1.624c-0.004,0.754 0.276,1.619 0.84,2.595Zm-0.762,0.792l-0.159,-0.275c-0.698,-1.208 -1.009,-2.311 -0.934,-3.308c0.075,-0.997 0.544,-1.745 1.408,-2.244c0.867,-0.5 1.749,-0.533 2.646,-0.097c0.898,0.436 1.696,1.258 2.393,2.466l0.159,0.275c0.698,1.209 1.01,2.309 0.936,3.301c-0.073,0.991 -0.543,1.737 -1.41,2.238c-0.864,0.498 -1.745,0.532 -2.644,0.102c-0.899,-0.43 -1.697,-1.249 -2.395,-2.458Z" style="fill-rule:nonzero;"/><path d="M233.188,95.444l1.66,-0.958l-3.442,-5.962l-1.435,2.104l-0.592,-1.026l1.433,-2.082l1.068,-0.616l4.025,6.972l1.639,-0.946l0.516,0.893l-4.356,2.515l-0.516,-0.894Z" style="fill-rule:nonzero;"/><path d="M239.887,87.771c-0.476,0.275 -0.767,0.62 -0.872,1.036c-0.105,0.415 -0.018,0.866 0.263,1.352c0.281,0.487 0.63,0.789 1.048,0.907c0.419,0.118 0.862,0.042 1.331,-0.229c0.479,-0.277 0.771,-0.623 0.877,-1.038c0.105,-0.416 0.015,-0.87 -0.27,-1.364c-0.278,-0.483 -0.626,-0.782 -1.043,-0.898c-0.417,-0.117 -0.862,-0.038 -1.334,0.234Zm-1.187,0.093c-0.522,0.147 -1.002,0.135 -1.44,-0.035c-0.439,-0.17 -0.788,-0.478 -1.046,-0.926c-0.362,-0.627 -0.436,-1.248 -0.222,-1.862c0.213,-0.615 0.687,-1.133 1.42,-1.557c0.736,-0.425 1.424,-0.576 2.063,-0.454c0.639,0.122 1.139,0.496 1.502,1.124c0.258,0.447 0.351,0.903 0.279,1.368c-0.073,0.465 -0.303,0.886 -0.69,1.265c0.596,-0.189 1.135,-0.188 1.619,0.003c0.483,0.19 0.887,0.566 1.21,1.126c0.411,0.712 0.506,1.4 0.283,2.064c-0.223,0.664 -0.736,1.228 -1.539,1.692c-0.804,0.464 -1.547,0.627 -2.231,0.488c-0.684,-0.138 -1.23,-0.562 -1.639,-1.27c-0.325,-0.564 -0.45,-1.104 -0.375,-1.62c0.076,-0.515 0.345,-0.984 0.806,-1.406Zm-1.365,-1.474c0.244,0.423 0.543,0.681 0.896,0.772c0.354,0.092 0.744,0.015 1.17,-0.231c0.43,-0.248 0.694,-0.549 0.791,-0.901c0.098,-0.352 0.024,-0.74 -0.22,-1.162c-0.248,-0.43 -0.549,-0.693 -0.903,-0.79c-0.354,-0.096 -0.748,-0.019 -1.181,0.231c-0.427,0.246 -0.687,0.548 -0.781,0.906c-0.095,0.357 -0.019,0.749 0.228,1.175Z" style="fill-rule:nonzero;"/><path d="M243.944,79.748c0.843,-0.486 1.678,-0.51 2.506,-0.072c0.829,0.438 1.631,1.33 2.409,2.676c0.777,1.346 1.148,2.487 1.113,3.423c-0.035,0.937 -0.474,1.648 -1.316,2.134c-0.842,0.487 -1.676,0.51 -2.503,0.071c-0.827,-0.439 -1.629,-1.331 -2.406,-2.677c-0.777,-1.346 -1.149,-2.487 -1.116,-3.422c0.033,-0.936 0.471,-1.647 1.313,-2.133Zm4.224,7.316c0.5,-0.289 0.719,-0.77 0.657,-1.444c-0.062,-0.673 -0.409,-1.556 -1.039,-2.649c-0.336,-0.581 -0.674,-1.086 -1.016,-1.514l-0.242,5.391c0.6,0.428 1.147,0.5 1.64,0.216Zm-3.735,-6.47c-0.497,0.287 -0.715,0.767 -0.652,1.44c0.062,0.674 0.409,1.557 1.039,2.649c0.287,0.497 0.589,0.943 0.906,1.338l0.196,-5.35c-0.538,-0.314 -1.035,-0.34 -1.489,-0.077Z" style="fill-rule:nonzero;"/><path d="M250.462,75.985c0.842,-0.486 1.677,-0.51 2.506,-0.072c0.828,0.438 1.631,1.33 2.408,2.676c0.777,1.346 1.148,2.487 1.113,3.424c-0.035,0.936 -0.473,1.647 -1.315,2.134c-0.843,0.486 -1.677,0.509 -2.504,0.07c-0.826,-0.438 -1.628,-1.331 -2.405,-2.677c-0.778,-1.346 -1.15,-2.487 -1.116,-3.422c0.033,-0.936 0.471,-1.646 1.313,-2.133Zm4.223,7.316c0.501,-0.289 0.72,-0.77 0.657,-1.444c-0.062,-0.673 -0.408,-1.556 -1.039,-2.649c-0.336,-0.581 -0.674,-1.086 -1.015,-1.514l-0.243,5.391c0.6,0.429 1.147,0.501 1.64,0.216Zm-3.735,-6.47c-0.497,0.287 -0.714,0.767 -0.652,1.441c0.062,0.673 0.409,1.556 1.04,2.648c0.287,0.497 0.589,0.943 0.906,1.338l0.195,-5.35c-0.538,-0.314 -1.034,-0.339 -1.489,-0.077Z" style="fill-rule:nonzero;"/><path d="M20.805,218.754l-1.545,0.748l-4.3,-7.448l-0.585,0.338l-1.514,1.928l0.369,0.638l1.345,-1.57l3.818,6.614l-1.398,0.952l0.325,0.563l3.81,-2.2l-0.325,-0.563Z" style="fill-rule:nonzero;"/><path d="M28.068,214.359l-4.341,2.506c1.57,-4.731 1.725,-6.062 0.8,-7.664c-0.737,-1.278 -1.946,-1.72 -3.515,-0.814c-0.693,0.4 -1.443,1.151 -1.933,1.953l1.106,1.916l0.726,-0.419l-0.801,-1.587c0.263,-0.369 0.649,-0.75 1.093,-1.007c1.137,-0.656 1.948,-0.301 2.454,0.576c0.837,1.45 0.577,2.899 -1.02,7.632l0.431,0.747l5.412,-3.125l-0.412,-0.714Z" style="fill-rule:nonzero;"/><path d="M27.474,204.656c-2.024,1.168 -1.925,3.089 -0.263,5.968c1.469,2.544 3.144,3.497 4.931,2.465c2.067,-1.193 1.925,-3.089 0.263,-5.968c-1.469,-2.544 -3.155,-3.49 -4.931,-2.465Zm4.363,7.656c-1.266,0.732 -2.464,-0.092 -3.783,-2.377c-1.612,-2.792 -1.291,-3.887 -0.263,-4.481c1.256,-0.725 2.447,0.089 3.76,2.362c1.618,2.804 1.326,3.896 0.286,4.496Z" style="fill-rule:nonzero;"/><path d="M33.97,200.906c-2.025,1.168 -1.926,3.089 -0.264,5.968c1.469,2.544 3.145,3.497 4.931,2.465c2.067,-1.193 1.926,-3.089 0.263,-5.968c-1.469,-2.544 -3.155,-3.49 -4.93,-2.465Zm4.363,7.656c-1.267,0.732 -2.465,-0.092 -3.783,-2.377c-1.613,-2.792 -1.292,-3.887 -0.264,-4.481c1.256,-0.725 2.447,0.089 3.76,2.362c1.619,2.804 1.326,3.896 0.287,4.496Z" style="fill-rule:nonzero;"/></g><g><path d="M62.5,162.5l-0,-54.167l12.5,0l-0,12.5l12.5,0l-0,-12.5l12.5,0l-0,33.334" style="fill:none;stroke:#000;stroke-width:8.33px;"/><path d="M70.833,108.333l0,-20.833l20.834,0l-0,20.833" style="fill:none;stroke:#000;stroke-width:8.33px;"/><path d="M83.218,87.5l0.115,-25" style="fill:none;stroke:#000;stroke-width:8.33px;"/><path d="M83.333,66.667l12.5,-0l0,4.166l8.334,0" style="fill:none;stroke:#000;stroke-width:8.33px;"/></g><g><path d="M212.5,179.167l4.167,-8.334l-4.167,0l25,0l-4.052,0l4.052,8.334" style="fill:none;stroke:#000;stroke-width:8.33px;"/><path d="M216.783,170.833l-0.116,-45.833l16.666,0l0,45.833" style="fill:none;stroke:#000;stroke-width:8.33px;"/><path d="M216.667,150l16.666,0" style="fill:none;stroke:#000;stroke-width:8.33px;"/><path d="M216.667,158.333l8.591,-8.333l8.075,8.333" style="fill:none;stroke:#000;stroke-width:8.33px;"/><path d="M216.667,162.5l8.333,8.333l8.333,-8.333" style="fill:none;stroke:#000;stroke-width:8.33px;"/></g><g><path d="M87.5,150l75,0" style="fill:none;stroke:#000;stroke-width:8.33px;"/><path d="M154.222,150l-0.055,66.667l-12.5,-12.5l-12.5,12.5l-0,-66.667" style="fill:none;stroke:#000;stroke-width:8.33px;"/></g></svg>