<?xml version="1.0" encoding="UTF-8" standalone="no"?><!DOCTYPE svg PUBLIC "-//W3C//DTD SVG 1.1//EN" "http://www.w3.org/Graphics/SVG/1.1/DTD/svg11.dtd"><svg width="100%" height="100%" viewBox="0 0 267 267" version="1.1" xmlns="http://www.w3.org/2000/svg" xmlns:xlink="http://www.w3.org/1999/xlink" xml:space="preserve" xmlns:serif="http://www.serif.com/" style="fill-rule:evenodd;clip-rule:evenodd;stroke-linecap:round;stroke-linejoin:round;stroke-miterlimit:1.5;"><rect id="history" x="0" y="0" width="266.667" height="266.667" style="fill:none;"/><g><g><path d="M19.872,196.112l216.506,-125" style="fill:none;stroke:#3882ba;stroke-width:8.33px;"/><path d="M132.292,140.829l-8.334,-14.433" style="fill:none;stroke:#3882ba;stroke-width:8.33px;"/><path d="M168.376,119.996l-8.333,-14.434" style="fill:none;stroke:#3882ba;stroke-width:8.33px;"/><path d="M204.46,99.163l-8.333,-14.434" style="fill:none;stroke:#3882ba;stroke-width:8.33px;"/><path d="M240.545,78.329l-8.333,-14.433" style="fill:none;stroke:#3882ba;stroke-width:8.33px;"/><path d="M96.207,161.663l-8.333,-14.434" style="fill:none;stroke:#3882ba;stroke-width:8.33px;"/><path d="M60.123,182.496l-8.333,-14.434" style="fill:none;stroke:#3882ba;stroke-width:8.33px;"/><path d="M24.038,203.329l-8.333,-14.433" style="fill:none;stroke:#3882ba;stroke-width:8.33px;"/><g transform="matrix(0.866025,-0.5,0.5,0.866025,-571.227,-781.247)"><g transform="matrix(12.5,0,0,12.5,80.1686,1123.84)"></g><text x="49.619px" y="1123.84px" style="font-family:'Copperplate';font-size:12.5px;fill:#3882ba;">1300</text></g><g transform="matrix(0.866025,-0.5,0.5,0.866025,-571.227,-750.745)"><g transform="matrix(12.5,0,0,12.5,130.683,1141.39)"></g><text x="112.94px" y="1141.39px" style="font-family:'Beirut';font-weight:700;font-size:12.5px;fill:#3882ba;">1400</text></g><g transform="matrix(0.866025,-0.5,0.5,0.866025,-540.725,-750.745)"><g transform="matrix(12.5,0,0,12.5,146.898,1084.05)"></g><text x="127.227px" y="1084.05px" style="font-family:'BrushScriptMT', 'Brush Script MT', cursive;font-style:italic;font-size:12.5px;fill:#3882ba;">1500</text></g><g transform="matrix(0.866025,-0.5,0.5,0.866025,-540.725,-720.243)"><g transform="matrix(12.5,0,0,12.5,203.28,1099.45)"></g><text x="184.68px" y="1099.45px" style="font-family:'DINCondensed-Bold', 'DIN Condensed';font-weight:700;font-stretch:condensed;font-size:12.5px;fill:#3882ba;">1600</text></g><g transform="matrix(0.866025,-0.5,0.5,0.866025,-510.223,-720.243)"><g transform="matrix(12.5,0,0,12.5,224.115,1043.19)"></g><text x="194.348px" y="1043.19px" style="font-family:'Galvji', sans-serif;font-size:12.5px;fill:#3882ba;">1700</text></g><g transform="matrix(0.866025,-0.5,0.5,0.866025,-510.223,-689.74)"><g transform="matrix(12.5,0,0,12.5,281.2,1058.42)"></g><text x="251.098px" y="1058.42px" style="font-family:'Menlo-Regular', 'Menlo', monospace;font-size:12.5px;fill:#3882ba;">1800</text></g><g transform="matrix(0.866025,-0.5,0.5,0.866025,-601.729,-781.247)"><g transform="matrix(12.5,0,0,12.5,64.6426,1183.63)"></g><text x="34.643px" y="1183.63px" style="font-family:'ToppanBunkyuGothicPr6N-Regular', 'Toppan Bunkyu Gothic', sans-serif;font-size:12.5px;fill:#3882ba;">1200</text></g></g><g><path d="M66.667,166.667l-0,-54.167l12.5,0l-0,12.5l12.5,0l-0,-12.5l12.5,0l-0,33.333" style="fill:none;stroke:#3882ba;stroke-width:8.33px;"/><path d="M75,112.5l0,-20.833l20.833,-0l0,20.833" style="fill:none;stroke:#3882ba;stroke-width:8.33px;"/><path d="M87.384,91.667l0.116,-25" style="fill:none;stroke:#3882ba;stroke-width:8.33px;"/><path d="M87.5,70.833l12.5,0l0,4.167l8.333,0" style="fill:none;stroke:#3882ba;stroke-width:8.33px;"/></g><g><path d="M120.833,45.833l20.834,0" style="fill:none;stroke:#3882ba;stroke-width:8.33px;"/><path d="M166.667,45.833l20.833,0" style="fill:none;stroke:#3882ba;stroke-width:8.33px;"/><path d="M136.489,28.156l11.049,11.048" style="fill:none;stroke:#3882ba;stroke-width:8.33px;"/><path d="M160.796,52.462l11.048,11.049" style="fill:none;stroke:#3882ba;stroke-width:8.33px;"/><path d="M154.167,12.5l-0,20.833" style="fill:none;stroke:#3882ba;stroke-width:8.33px;"/><path d="M154.167,58.333l-0,20.834" style="fill:none;stroke:#3882ba;stroke-width:8.33px;"/><path d="M171.844,28.156l-11.048,11.048" style="fill:none;stroke:#3882ba;stroke-width:8.33px;"/><path d="M147.538,52.462l-11.049,11.049" style="fill:none;stroke:#3882ba;stroke-width:8.33px;"/></g><g><path d="M216.667,183.333l4.166,-8.333l-4.166,0l25,0l-4.052,0l4.052,8.333" style="fill:none;stroke:#3882ba;stroke-width:8.33px;"/><path d="M220.949,175l-0.116,-45.833l16.667,-0l-0,45.833" style="fill:none;stroke:#3882ba;stroke-width:8.33px;"/><path d="M220.833,154.167l16.667,-0" style="fill:none;stroke:#3882ba;stroke-width:8.33px;"/><path d="M220.833,162.5l8.591,-8.333l8.076,8.333" style="fill:none;stroke:#3882ba;stroke-width:8.33px;"/><path d="M220.833,166.667l8.334,8.333l8.333,-8.333" style="fill:none;stroke:#3882ba;stroke-width:8.33px;"/></g><g><path d="M91.667,154.167l75,-0" style="fill:none;stroke:#3882ba;stroke-width:8.33px;"/><path d="M158.389,154.167l-0.056,66.666l-12.5,-12.5l-12.5,12.5l0,-66.666" style="fill:none;stroke:#3882ba;stroke-width:8.33px;"/></g></g><g><path d="M15.705,191.946l216.507,-125" style="fill:none;stroke:#000;stroke-width:8.33px;"/><path d="M128.125,136.663l-8.333,-14.434" style="fill:none;stroke:#000;stroke-width:8.33px;"/><path d="M164.209,115.829l-8.333,-14.433" style="fill:none;stroke:#000;stroke-width:8.33px;"/><path d="M200.294,94.996l-8.334,-14.434" style="fill:none;stroke:#000;stroke-width:8.33px;"/><path d="M236.378,74.163l-8.333,-14.434" style="fill:none;stroke:#000;stroke-width:8.33px;"/><path d="M92.041,157.496l-8.334,-14.434" style="fill:none;stroke:#000;stroke-width:8.33px;"/><path d="M55.956,178.329l-8.333,-14.433" style="fill:none;stroke:#000;stroke-width:8.33px;"/><path d="M19.872,199.163l-8.334,-14.434" style="fill:none;stroke:#000;stroke-width:8.33px;"/><g transform="matrix(0.866025,-0.5,0.5,0.866025,-569.702,-783.888)"><g transform="matrix(12.5,0,0,12.5,76.0019,1119.68)"></g><text x="45.452px" y="1119.68px" style="font-family:'Copperplate';font-size:12.5px;">1300</text></g><g transform="matrix(0.866025,-0.5,0.5,0.866025,-569.702,-753.386)"><g transform="matrix(12.5,0,0,12.5,126.516,1137.23)"></g><text x="108.773px" y="1137.23px" style="font-family:'Beirut';font-weight:700;font-size:12.5px;">1400</text></g><g transform="matrix(0.866025,-0.5,0.5,0.866025,-539.2,-753.386)"><g transform="matrix(12.5,0,0,12.5,142.732,1079.88)"></g><text x="123.06px" y="1079.88px" style="font-family:'BrushScriptMT', 'Brush Script MT', cursive;font-style:italic;font-size:12.5px;">1500</text></g><g transform="matrix(0.866025,-0.5,0.5,0.866025,-539.2,-722.884)"><g transform="matrix(12.5,0,0,12.5,199.113,1095.28)"></g><text x="180.513px" y="1095.29px" style="font-family:'DINCondensed-Bold', 'DIN Condensed';font-weight:700;font-stretch:condensed;font-size:12.5px;">1600</text></g><g transform="matrix(0.866025,-0.5,0.5,0.866025,-508.698,-722.884)"><g transform="matrix(12.5,0,0,12.5,219.948,1039.02)"></g><text x="190.181px" y="1039.02px" style="font-family:'Galvji', sans-serif;font-size:12.5px;">1700</text></g><g transform="matrix(0.866025,-0.5,0.5,0.866025,-508.698,-692.382)"><g transform="matrix(12.5,0,0,12.5,277.034,1054.25)"></g><text x="246.931px" y="1054.25px" style="font-family:'Menlo-Regular', 'Menlo', monospace;font-size:12.5px;">1800</text></g><g transform="matrix(0.866025,-0.5,0.5,0.866025,-600.204,-783.888)"><g transform="matrix(12.5,0,0,12.5,60.4759,1179.47)"></g><text x="30.476px" y="1179.47px" style="font-family:'ToppanBunkyuGothicPr6N-Regular', 'Toppan Bunkyu Gothic', sans-serif;font-size:12.5px;">1200</text></g></g><g><path d="M62.5,162.5l-0,-54.167l12.5,0l-0,12.5l12.5,0l-0,-12.5l12.5,0l-0,33.334" style="fill:none;stroke:#000;stroke-width:8.33px;"/><path d="M70.833,108.333l0,-20.833l20.834,0l-0,20.833" style="fill:none;stroke:#000;stroke-width:8.33px;"/><path d="M83.218,87.5l0.115,-25" style="fill:none;stroke:#000;stroke-width:8.33px;"/><path d="M83.333,66.667l12.5,-0l0,4.166l8.334,0" style="fill:none;stroke:#000;stroke-width:8.33px;"/></g><g><path d="M116.667,41.667l20.833,-0" style="fill:none;stroke:#000;stroke-width:8.33px;"/><path d="M162.5,41.667l20.833,-0" style="fill:none;stroke:#000;stroke-width:8.33px;"/><path d="M132.322,23.989l11.049,11.049" style="fill:none;stroke:#000;stroke-width:8.33px;"/><path d="M156.629,48.296l11.049,11.048" style="fill:none;stroke:#000;stroke-width:8.33px;"/><path d="M150,8.333l-0,20.834" style="fill:none;stroke:#000;stroke-width:8.33px;"/><path d="M150,54.167l-0,20.833" style="fill:none;stroke:#000;stroke-width:8.33px;"/><path d="M167.678,23.989l-11.049,11.049" style="fill:none;stroke:#000;stroke-width:8.33px;"/><path d="M143.371,48.296l-11.049,11.048" style="fill:none;stroke:#000;stroke-width:8.33px;"/></g><g><path d="M212.5,179.167l4.167,-8.334l-4.167,0l25,0l-4.052,0l4.052,8.334" style="fill:none;stroke:#000;stroke-width:8.33px;"/><path d="M216.783,170.833l-0.116,-45.833l16.666,0l0,45.833" style="fill:none;stroke:#000;stroke-width:8.33px;"/><path d="M216.667,150l16.666,0" style="fill:none;stroke:#000;stroke-width:8.33px;"/><path d="M216.667,158.333l8.591,-8.333l8.075,8.333" style="fill:none;stroke:#000;stroke-width:8.33px;"/><path d="M216.667,162.5l8.333,8.333l8.333,-8.333" style="fill:none;stroke:#000;stroke-width:8.33px;"/></g><g><path d="M87.5,150l75,0" style="fill:none;stroke:#000;stroke-width:8.33px;"/><path d="M154.222,150l-0.055,66.667l-12.5,-12.5l-12.5,12.5l-0,-66.667" style="fill:none;stroke:#000;stroke-width:8.33px;"/></g></svg>