<?xml version="1.0" encoding="UTF-8" standalone="no"?><!DOCTYPE svg PUBLIC "-//W3C//DTD SVG 1.1//EN" "http://www.w3.org/Graphics/SVG/1.1/DTD/svg11.dtd"><svg width="100%" height="100%" viewBox="0 0 267 267" version="1.1" xmlns="http://www.w3.org/2000/svg" xmlns:xlink="http://www.w3.org/1999/xlink" xml:space="preserve" xmlns:serif="http://www.serif.com/" style="fill-rule:evenodd;clip-rule:evenodd;stroke-linejoin:round;stroke-miterlimit:2;"><rect id="language" x="0" y="0" width="266.667" height="266.667" style="fill:none;"/><g><text x="87.5px" y="12.833px" style="font-family:'STSongti-SC-Regular', 'Songti SC';font-size:12.5px;fill:#3882ba;">语言</text><g transform="matrix(12.5,0,0,12.5,243.941,12.6333)"></g><text x="222.725px" y="12.633px" style="font-family:'SavoyeLetPlain', 'Savoye LET';font-size:12.5px;fill:#3882ba;">idioma</text><g transform="matrix(12.5,0,0,12.5,41.6616,29.3396)"></g><text x="25.005px" y="29.34px" style="font-family:'TimesNewRomanPSMT', 'Times New Roman', serif;font-size:12.5px;fill:#3882ba;">لغة</text><text x="155.223px" y="29.744px" style="font-family:'KohinoorBangla-Regular', 'Kohinoor Bangla';font-size:12.5px;fill:#3882ba;">ভাষা</text><text x="88.291px" y="46.154px" style="font-family:'GeezaPro', 'Geeza Pro';font-size:12.5px;fill:#3882ba;">زبان</text><g transform="matrix(12.5,0,0,12.5,244.973,45.9666)"></g><text x="221.694px" y="45.967px" style="font-family:'SavoyeLetPlain', 'Savoye LET';font-size:12.5px;fill:#3882ba;">sprache</text><g transform="matrix(12.5,0,0,12.5,103.787,79.2999)"></g><text x="96.213px" y="79.3px" style="font-family:'SavoyeLetPlain', 'Savoye LET';font-size:12.5px;fill:#3882ba;">dil</text><text x="211.095px" y="79.285px" style="font-family:'TamilSangamMN', 'Tamil Sangam MN';font-size:12.5px;fill:#3882ba;">மொழி</text><text x="21.624px" y="96.154px" style="font-family:'GeezaPro', 'Geeza Pro';font-size:12.5px;fill:#3882ba;">زبان</text><text x="151.735px" y="96.017px" style="font-family:'KefaIII-Regular', 'Kefa III';font-size:12.5px;fill:#3882ba;">ቋንቋ</text><g transform="matrix(12.5,0,0,12.5,109.634,112.633)"></g><text x="90.366px" y="112.633px" style="font-family:'SavoyeLetPlain', 'Savoye LET';font-size:12.5px;fill:#3882ba;">lingua</text><text x="220.49px" y="112.796px" style="font-family:'NotoSansKannada-Regular', 'Noto Sans Kannada', sans-serif;font-size:12.5px;fill:#3882ba;">ಭಾಷೆ</text><g transform="matrix(12.5,0,0,12.5,38.3474,129.3)"></g><text x="28.319px" y="129.3px" style="font-family:'SavoyeLetPlain', 'Savoye LET';font-size:12.5px;fill:#3882ba;">ède</text><g transform="matrix(12.5,0,0,12.5,172.691,129.3)"></g><text x="160.642px" y="129.3px" style="font-family:'SavoyeLetPlain', 'Savoye LET';font-size:12.5px;fill:#3882ba;">kieli</text><g transform="matrix(12.5,0,0,12.5,106.625,145.967)"></g><text x="93.375px" y="145.967px" style="font-family:'SavoyeLetPlain', 'Savoye LET';font-size:12.5px;fill:#3882ba;">holh</text><g transform="matrix(12.5,0,0,12.5,241.793,145.967)"></g><text x="224.874px" y="145.967px" style="font-family:'SavoyeLetPlain', 'Savoye LET';font-size:12.5px;fill:#3882ba;">asụsụ</text><text x="19.909px" y="162.82px" style="font-family:'GeezaPro', 'Geeza Pro';font-size:12.5px;fill:#3882ba;">بولی</text><text x="154.008px" y="162.612px" style="font-family:'MalayalamSangamMN', 'Malayalam Sangam MN';font-size:12.5px;fill:#3882ba;">ഭാഷ</text><g transform="matrix(12.5,0,0,12.5,112.704,179.3)"></g><text x="87.296px" y="179.3px" style="font-family:'SavoyeLetPlain', 'Savoye LET';font-size:12.5px;fill:#3882ba;">luqadda</text><g transform="matrix(12.5,0,0,12.5,236.254,179.3)"></g><text x="230.413px" y="179.3px" style="font-family:'SavoyeLetPlain', 'Savoye LET';font-size:12.5px;fill:#3882ba;">til</text><g transform="matrix(12.5,0,0,12.5,41.7348,195.967)"></g><text x="24.932px" y="195.967px" style="font-family:'SavoyeLetPlain', 'Savoye LET';font-size:12.5px;fill:#3882ba;">мова</text><g transform="matrix(12.5,0,0,12.5,175.163,195.967)"></g><text x="158.171px" y="195.967px" style="font-family:'SavoyeLetPlain', 'Savoye LET';font-size:12.5px;fill:#3882ba;">språk</text><g transform="matrix(12.5,0,0,12.5,105.737,212.633)"></g><text x="94.263px" y="212.633px" style="font-family:'SavoyeLetPlain', 'Savoye LET';font-size:12.5px;fill:#3882ba;">keel</text><g transform="matrix(12.5,0,0,12.5,237.121,212.633)"></g><text x="229.546px" y="212.633px" style="font-family:'SavoyeLetPlain', 'Savoye LET';font-size:12.5px;fill:#3882ba;">dil</text><g transform="matrix(12.5,0,0,12.5,40.9139,229.3)"></g><text x="25.753px" y="229.3px" style="font-family:'SavoyeLetPlain', 'Savoye LET';font-size:12.5px;fill:#3882ba;">језик</text><g transform="matrix(12.5,0,0,12.5,173.567,229.3)"></g><text x="159.767px" y="229.3px" style="font-family:'SavoyeLetPlain', 'Savoye LET';font-size:12.5px;fill:#3882ba;">iaith</text><g transform="matrix(12.5,0,0,12.5,111.908,245.967)"></g><text x="88.092px" y="245.967px" style="font-family:'SavoyeLetPlain', 'Savoye LET';font-size:12.5px;fill:#3882ba;">gagana</text><g transform="matrix(12.5,0,0,12.5,248.028,245.967)"></g><text x="218.639px" y="245.967px" style="font-family:'SavoyeLetPlain', 'Savoye LET';font-size:12.5px;fill:#3882ba;">tungumál</text><text x="15.256px" y="262.413px" style="font-family:'Kailasa';font-size:12.5px;fill:#3882ba;">སྐད༌ཡིག༌</text><g transform="matrix(12.5,0,0,12.5,172.953,262.633)"></g><text x="160.38px" y="262.633px" style="font-family:'SavoyeLetPlain', 'Savoye LET';font-size:12.5px;fill:#3882ba;">ćhib</text><text x="20.833px" y="62.833px" style="font-family:'STSongti-SC-Regular', 'Songti SC';font-size:12.5px;fill:#3882ba;">言語</text><g transform="matrix(12.5,0,0,12.5,176.2,62.8072)"></g><text x="157.133px" y="62.807px" style="font-family:'AksharUnicode', 'Akshar Unicode';font-size:12.5px;fill:#3882ba;">భాష</text></g><g><text x="156.035px" y="13.077px" style="font-family:'KohinoorDevanagari-Regular', 'Kohinoor Devanagari';font-size:12.5px;">भाषा</text><g transform="matrix(12.5,0,0,12.5,110.248,29.2999)"></g><text x="89.752px" y="29.3px" style="font-family:'SavoyeLetPlain', 'Savoye LET';font-size:12.5px;">langue</text><g transform="matrix(12.5,0,0,12.5,249.331,29.2999)"></g><text x="217.336px" y="29.3px" style="font-family:'SavoyeLetPlain', 'Savoye LET';font-size:12.5px;">linguagem</text><g transform="matrix(12.5,0,0,12.5,44.6554,45.9666)"></g><text x="22.011px" y="45.967px" style="font-family:'SavoyeLetPlain', 'Savoye LET';font-size:12.5px;">bahasa</text><g transform="matrix(12.5,0,0,12.5,174.049,45.9666)"></g><text x="159.284px" y="45.967px" style="font-family:'SavoyeLetPlain', 'Savoye LET';font-size:12.5px;">язык</text><g transform="matrix(12.5,0,0,12.5,43.456,79.2999)"></g><text x="23.211px" y="79.3px" style="font-family:'SavoyeLetPlain', 'Savoye LET';font-size:12.5px;">harshe</text><text x="156.873px" y="75.542px" style="font-family:'MuktaMahee-Regular', 'Mukta Mahee';font-size:12.5px;">ਭਾਸ<tspan x="165.485px 173.51px " y="76.054px 75.542px ">਼ਾ</tspan></text><text x="89.188px" y="96.404px" style="font-family:'AppleSDGothicNeo-Regular', 'Apple SD Gothic Neo';font-size:12.5px;">언어</text><text x="218.805px" y="96.593px" style="font-family:'Thonburi';font-size:12.5px;">ภาษา</text><g transform="matrix(12.5,0,0,12.5,40.6759,112.633)"></g><text x="25.991px" y="112.633px" style="font-family:'SavoyeLetPlain', 'Savoye LET';font-size:12.5px;">basa</text><text x="154.604px" y="112.708px" style="font-family:'KohinoorGujarati-Regular', 'Kohinoor Gujarati';font-size:12.5px;">ભાષા</text><text x="87.994px" y="129.744px" style="font-family:'KohinoorDevanagari-Regular', 'Kohinoor Devanagari';font-size:12.5px;">भाखा</text><g transform="matrix(12.5,0,0,12.5,239.147,129.3)"></g><text x="227.52px" y="129.3px" style="font-family:'SavoyeLetPlain', 'Savoye LET';font-size:12.5px;">тіл</text><g transform="matrix(12.5,0,0,12.5,40.7583,145.967)"></g><text x="25.908px" y="145.967px" style="font-family:'SavoyeLetPlain', 'Savoye LET';font-size:12.5px;">język</text><g transform="matrix(12.5,0,0,12.5,175.404,145.967)"></g><text x="157.929px" y="145.967px" style="font-family:'SavoyeLetPlain', 'Savoye LET';font-size:12.5px;">limbă</text><g transform="matrix(12.5,0,0,12.5,106.085,162.633)"></g><text x="93.915px" y="162.633px" style="font-family:'SavoyeLetPlain', 'Savoye LET';font-size:12.5px;">taal</text><g transform="matrix(12.5,0,0,12.5,243.95,162.633)"></g><text x="222.716px" y="162.633px" style="font-family:'SavoyeLetPlain', 'Savoye LET';font-size:12.5px;">teanga</text><g transform="matrix(12.5,0,0,12.5,50.823,179.3)"></g><text x="15.844px" y="179.3px" style="font-family:'SavoyeLetPlain', 'Savoye LET';font-size:12.5px;">pinulongan</text><g transform="matrix(12.5,0,0,12.5,174.528,179.3)"></g><text x="158.805px" y="179.3px" style="font-family:'SavoyeLetPlain', 'Savoye LET';font-size:12.5px;">nyelv</text><g transform="matrix(12.5,0,0,12.5,108.667,195.967)"></g><text x="91.333px" y="195.967px" style="font-family:'SavoyeLetPlain', 'Savoye LET';font-size:12.5px;">wolde</text><g transform="matrix(12.5,0,0,12.5,242.943,195.967)"></g><text x="223.723px" y="195.967px" style="font-family:'SavoyeLetPlain', 'Savoye LET';font-size:12.5px;">cànan</text><g transform="matrix(12.5,0,0,12.5,42.4581,212.633)"></g><text x="24.209px" y="212.633px" style="font-family:'SavoyeLetPlain', 'Savoye LET';font-size:12.5px;">afaan</text><text x="154.167px" y="212.833px" style="font-family:'STSongti-SC-Regular', 'Songti SC';font-size:12.5px;">語言</text><g transform="matrix(12.5,0,0,12.5,111.227,229.3)"></g><text x="88.773px" y="229.3px" style="font-family:'SavoyeLetPlain', 'Savoye LET';font-size:12.5px;">ururimi</text><g transform="matrix(12.5,0,0,12.5,242.479,262.633)"></g><text x="224.187px" y="262.633px" style="font-family:'SavoyeLetPlain', 'Savoye LET';font-size:12.5px;">lingvo</text><g transform="matrix(12.5,0,0,12.5,50.1638,245.967)"></g><text x="16.503px" y="245.967px" style="font-family:'SavoyeLetPlain', 'Savoye LET';font-size:12.5px;">uqausiqtaq</text><g transform="matrix(12.5,0,0,12.5,147.441,246.042)"><path d="M0.187,-0.146l-0.006,-0c-0.023,-0 -0.035,0.008 -0.035,0.024c0,0.016 0.006,0.024 0.017,0.024c0.01,0 0.017,-0.008 0.02,-0.025l0.004,-0.023Zm0.092,0.041c-0.012,0.07 -0.051,0.105 -0.116,0.105c-0.076,-0 -0.114,-0.041 -0.114,-0.122c-0,-0.081 0.044,-0.122 0.132,-0.122c0.008,-0 0.016,0 0.024,0l0.027,-0.159c0.016,-0.089 0.09,-0.134 0.222,-0.134c0.231,-0 0.346,0.085 0.346,0.254c-0,0.025 -0.003,0.052 -0.008,0.081l-0.031,0.178c-0.007,0.016 -0.024,0.024 -0.05,0.024c-0.026,0 -0.043,-0.009 -0.051,-0.028c-0.003,-0.008 -0.005,-0.016 -0.005,-0.024c-0,-0.01 0.002,-0.019 0.008,-0.028c0.009,-0.016 0.015,-0.034 0.018,-0.054l0.015,-0.086c0.003,-0.018 0.005,-0.034 0.005,-0.05c-0,-0.113 -0.083,-0.169 -0.247,-0.169c-0.077,-0 -0.119,0.018 -0.126,0.054l-0.049,0.28Zm0.015,-0.53c-0.021,0 -0.031,0.01 -0.031,0.03c-0,0.016 0.007,0.039 0.021,0.068c-0.041,-0.019 -0.074,-0.04 -0.099,-0.063c-0.026,-0.023 -0.039,-0.051 -0.039,-0.084c0,-0.032 0.033,-0.048 0.098,-0.048l0.635,-0c0.242,-0 0.364,0.085 0.364,0.256c-0,0.025 -0.003,0.051 -0.008,0.079l-0.066,0.373c-0.006,0.016 -0.023,0.024 -0.049,0.024c-0.027,-0 -0.044,-0.009 -0.051,-0.028c-0.004,-0.008 -0.006,-0.016 -0.006,-0.024c0,-0.01 0.003,-0.019 0.008,-0.028c0.009,-0.016 0.016,-0.034 0.019,-0.054l0.049,-0.281c0.003,-0.017 0.005,-0.034 0.005,-0.049c0,-0.114 -0.088,-0.171 -0.265,-0.171l-0.585,0Z" style="fill-rule:nonzero;"/></g><g transform="matrix(12.5,0,0,12.5,147.441,246.042)"></g><g transform="matrix(12.5,0,0,12.5,159.221,246.042)"></g><g transform="matrix(12.5,0,0,12.5,163.92,246.042)"><path d="M0.478,-0.526c0.176,0.015 0.264,0.084 0.264,0.205c-0,0.016 -0.002,0.034 -0.005,0.052l-0.008,0.037c-0.002,0.011 -0.003,0.022 -0.003,0.032c0,0.068 0.049,0.102 0.146,0.102c0.141,0 0.223,-0.065 0.246,-0.196c0.014,-0.081 0.021,-0.138 0.021,-0.172c-0,-0.022 -0.003,-0.035 -0.009,-0.038l-0.109,-0.069c-0.02,-0.013 -0.03,-0.031 -0.03,-0.056c-0,-0.011 0.002,-0.024 0.007,-0.038c0.013,-0.043 0.045,-0.065 0.095,-0.065l0.366,-0c0.151,-0 0.226,0.075 0.226,0.227c0,0.032 -0.003,0.068 -0.01,0.108l-0.066,0.373c-0.007,0.016 -0.024,0.024 -0.05,0.024c-0.026,0 -0.043,-0.009 -0.051,-0.028c-0.003,-0.008 -0.005,-0.016 -0.005,-0.024c-0,-0.01 0.003,-0.019 0.008,-0.028c0.009,-0.016 0.015,-0.034 0.018,-0.054l0.05,-0.281c0.005,-0.029 0.007,-0.055 0.007,-0.078c0,-0.095 -0.042,-0.142 -0.127,-0.142l-0.372,0l0.086,0.052c0.038,0.022 0.057,0.074 0.057,0.154c-0,0.041 -0.005,0.09 -0.015,0.146c-0.033,0.189 -0.148,0.283 -0.343,0.283c-0.163,0 -0.245,-0.065 -0.245,-0.194c0,-0.018 0.002,-0.037 0.006,-0.058l0.008,-0.035c0.001,-0.009 0.002,-0.017 0.002,-0.024c0,-0.081 -0.084,-0.122 -0.252,-0.122c-0.078,0 -0.12,0.019 -0.126,0.055l-0.028,0.151c-0.005,0.029 -0.007,0.053 -0.007,0.073c-0,0.035 0.008,0.056 0.024,0.063c0.009,0.004 0.017,0.006 0.025,0.006c0.013,0 0.023,-0.006 0.031,-0.018c0.006,-0.01 0.009,-0.019 0.009,-0.027c-0,-0.016 -0.012,-0.026 -0.035,-0.032c-0.029,-0.002 -0.044,-0.014 -0.044,-0.034c0,-0.004 0.001,-0.009 0.002,-0.014c0.005,-0.02 0.018,-0.03 0.039,-0.03c0.008,-0 0.018,0.001 0.029,0.005c0.064,0.017 0.096,0.049 0.096,0.096c0,0.024 -0.008,0.053 -0.025,0.085c-0.026,0.036 -0.06,0.054 -0.101,0.054c-0.02,0 -0.041,-0.004 -0.065,-0.013c-0.054,-0.019 -0.082,-0.068 -0.082,-0.148c0,-0.026 0.003,-0.055 0.009,-0.087l0.027,-0.148c0.012,-0.069 0.059,-0.111 0.14,-0.127l-0.083,-0.05c-0.021,-0.013 -0.031,-0.031 -0.031,-0.056c0,-0.011 0.003,-0.024 0.007,-0.038c0.013,-0.043 0.045,-0.065 0.095,-0.065l0.285,-0c0.065,-0 0.097,0.016 0.097,0.048c0,0.033 -0.032,0.049 -0.097,0.049l-0.29,0l0.186,0.109Z" style="fill-rule:nonzero;"/></g><g transform="matrix(12.5,0,0,12.5,163.92,246.042)"></g><g transform="matrix(12.5,0,0,12.5,181.277,246.042)"></g><g transform="matrix(12.5,0,0,12.5,185.893,246.042)"></g><g transform="matrix(12.5,0,0,12.5,107.944,262.633)"></g><text x="92.056px" y="262.633px" style="font-family:'SavoyeLetPlain', 'Savoye LET';font-size:12.5px;">jazyk</text><text x="213.463px" y="229.079px" style="font-family:'Kailasa';font-size:12.5px;">སྐད་རིགས</text><g transform="matrix(12.5,0,0,12.5,115.1,62.6333)"></g><text x="84.9px" y="62.633px" style="font-family:'SavoyeLetPlain', 'Savoye LET';font-size:12.5px;">ngôn ngữ</text><g transform="matrix(12.5,0,0,12.5,241.988,62.6333)"></g><text x="224.679px" y="62.633px" style="font-family:'SavoyeLetPlain', 'Savoye LET';font-size:12.5px;">lugha</text><g transform="matrix(12.5,0,0,12.5,47.5057,12.6333)"></g><text x="19.161px" y="12.633px" style="font-family:'SavoyeLetPlain', 'Savoye LET';font-size:12.5px;">language</text></g></svg>