<?xml version="1.0" encoding="UTF-8" standalone="no"?><!DOCTYPE svg PUBLIC "-//W3C//DTD SVG 1.1//EN" "http://www.w3.org/Graphics/SVG/1.1/DTD/svg11.dtd"><svg width="100%" height="100%" viewBox="0 0 267 267" version="1.1" xmlns="http://www.w3.org/2000/svg" xmlns:xlink="http://www.w3.org/1999/xlink" xml:space="preserve" xmlns:serif="http://www.serif.com/" style="fill-rule:evenodd;clip-rule:evenodd;stroke-linecap:round;stroke-linejoin:round;stroke-miterlimit:1.5;"><rect id="science-tech" x="0" y="0" width="266.667" height="266.667" style="fill:none;"/><path d="M191.667,50l-4.167,-20.833l-4.167,-0l-8.333,41.666l-4.167,0l-8.333,-41.666l-4.167,-0l-8.333,41.666l-4.167,0l-8.333,-41.666l-4.167,-0l-8.333,41.666l-4.167,0l-4.166,-20.833l-4.167,0" style="fill:none;stroke:#3882ba;stroke-width:4.17px;"/><path d="M33.333,50l4.167,-20.833l4.167,-0l8.333,41.666l4.167,0l8.333,-41.666l4.167,-0l8.333,41.666l4.167,0l8.333,-41.666l4.167,-0l8.333,41.666l4.167,0l4.166,-20.833l4.167,0" style="fill:none;stroke:#000;stroke-width:4.17px;"/><g><ellipse cx="195.833" cy="91.667" rx="45.833" ry="8.333" style="fill:none;stroke:#3882ba;stroke-width:4.17px;"/><path d="M204.167,91.667c-0,25.296 -3.734,45.833 -8.334,45.833c-4.599,0 -8.333,-20.537 -8.333,-45.833c0,-25.296 3.734,-45.834 8.333,-45.834c4.6,0 8.334,20.538 8.334,45.834Z" style="fill:none;stroke:#3882ba;stroke-width:4.17px;"/><path d="M201.726,97.559c-17.887,17.887 -35.05,29.769 -38.302,26.517c-3.252,-3.252 8.63,-20.415 26.517,-38.302c17.887,-17.887 35.049,-29.769 38.301,-26.516c3.253,3.252 -8.629,20.414 -26.516,38.301Z" style="fill:none;stroke:#3882ba;stroke-width:4.17px;"/><path d="M201.726,85.774c17.887,17.887 29.769,35.05 26.516,38.302c-3.252,3.252 -20.414,-8.63 -38.301,-26.517c-17.887,-17.887 -29.769,-35.049 -26.517,-38.301c3.252,-3.253 20.415,8.629 38.302,26.516Z" style="fill:none;stroke:#3882ba;stroke-width:4.17px;"/><circle cx="195.833" cy="91.667" r="4.167" style="fill:#3882ba;"/></g><g><ellipse cx="191.667" cy="87.5" rx="45.833" ry="8.333" style="fill:none;stroke:#000;stroke-width:4.17px;"/><path d="M200,87.5c0,25.296 -3.734,45.833 -8.333,45.833c-4.6,0 -8.334,-20.537 -8.334,-45.833c0,-25.296 3.734,-45.833 8.334,-45.833c4.599,-0 8.333,20.537 8.333,45.833Z" style="fill:none;stroke:#000;stroke-width:4.17px;"/><path d="M197.559,93.393c-17.887,17.887 -35.049,29.768 -38.301,26.516c-3.253,-3.252 8.629,-20.415 26.516,-38.302c17.887,-17.887 35.05,-29.768 38.302,-26.516c3.252,3.252 -8.63,20.415 -26.517,38.302Z" style="fill:none;stroke:#000;stroke-width:4.17px;"/><path d="M197.559,81.607c17.887,17.887 29.769,35.05 26.517,38.302c-3.252,3.252 -20.415,-8.629 -38.302,-26.516c-17.887,-17.887 -29.769,-35.05 -26.516,-38.302c3.252,-3.252 20.414,8.629 38.301,26.516Z" style="fill:none;stroke:#000;stroke-width:4.17px;"/><circle cx="191.667" cy="87.5" r="4.167"/></g><g><path d="M112.5,156.636c0,-0 -12.837,-17.67 -20.833,-25c-8.334,-7.639 -18.75,-15.278 -29.167,-20.834c-10.417,-5.555 -33.333,-12.5 -33.333,-12.5c-0,0 31.25,-5.555 41.666,0c10.417,5.556 23.611,29.862 20.834,33.334c-2.778,3.472 -27.084,-6.945 -37.5,-12.5c-9.572,-5.105 -25,-20.834 -25,-20.834l33.333,12.5l29.167,20.834l20.833,25Z" style="fill:#3882ba;"/><path d="M112.5,156.636c0,-0 -12.837,-17.67 -20.833,-25c-8.334,-7.639 -18.75,-15.278 -29.167,-20.834c-10.417,-5.555 -33.333,-12.5 -33.333,-12.5c-0,0 31.25,-5.555 41.666,0c10.417,5.556 23.611,29.862 20.834,33.334c-2.778,3.472 -27.084,-6.945 -37.5,-12.5c-9.572,-5.105 -25,-20.834 -25,-20.834" style="fill:none;stroke:#000;stroke-width:4.17px;"/></g><g><path d="M104.167,158.333l25,0l-0,54.167l16.666,16.667l0,8.333l-58.333,0l0,-8.333l16.667,-16.667l-0,-54.167Z" style="fill:#3882ba;stroke:#3882ba;stroke-width:4.17px;"/><path d="M120.833,170.833l8.334,0" style="fill:none;stroke:#3882ba;stroke-width:4.17px;"/><path d="M120.833,179.167l8.334,-0" style="fill:none;stroke:#3882ba;stroke-width:4.17px;"/><path d="M120.833,187.5l8.334,0" style="fill:none;stroke:#3882ba;stroke-width:4.17px;"/><path d="M120.833,195.833l8.334,0" style="fill:none;stroke:#3882ba;stroke-width:4.17px;"/><path d="M120.833,204.167l8.334,-0" style="fill:none;stroke:#3882ba;stroke-width:4.17px;"/></g><g><path d="M100,154.167l25,-0l0,54.166l16.667,16.667l-0,8.333l-58.334,0l0,-8.333l16.667,-16.667l0,-54.166Z" style="fill:#3882ba;stroke:#000;stroke-width:4.17px;"/><path d="M116.667,166.667l8.333,-0" style="fill:none;stroke:#000;stroke-width:4.17px;"/><path d="M116.667,175l8.333,0" style="fill:none;stroke:#000;stroke-width:4.17px;"/><path d="M116.667,183.333l8.333,0" style="fill:none;stroke:#000;stroke-width:4.17px;"/><path d="M116.667,191.667l8.333,-0" style="fill:none;stroke:#000;stroke-width:4.17px;"/><path d="M116.667,200l8.333,0" style="fill:none;stroke:#000;stroke-width:4.17px;"/></g></svg>