<?xml version="1.0" encoding="UTF-8" standalone="no"?><!DOCTYPE svg PUBLIC "-//W3C//DTD SVG 1.1//EN" "http://www.w3.org/Graphics/SVG/1.1/DTD/svg11.dtd"><svg width="100%" height="100%" viewBox="0 0 267 267" version="1.1" xmlns="http://www.w3.org/2000/svg" xmlns:xlink="http://www.w3.org/1999/xlink" xml:space="preserve" xmlns:serif="http://www.serif.com/" style="fill-rule:evenodd;clip-rule:evenodd;stroke-linecap:round;stroke-linejoin:round;stroke-miterlimit:1.5;"><rect id="sports-rec" x="0" y="0" width="266.667" height="266.667" style="fill:none;"/><g><path d="M58.333,141.667l0,-108.334" style="fill:none;stroke:#3882ba;stroke-width:4.17px;"/><path d="M66.667,141.667l-0,-108.334" style="fill:none;stroke:#3882ba;stroke-width:4.17px;"/><path d="M75,141.667l0,-108.334" style="fill:none;stroke:#3882ba;stroke-width:4.17px;"/><path d="M83.333,141.667l0,-108.334" style="fill:none;stroke:#3882ba;stroke-width:4.17px;"/><path d="M91.667,141.667l-0,-108.334" style="fill:none;stroke:#3882ba;stroke-width:4.17px;"/><path d="M100,141.667l0,-108.334" style="fill:none;stroke:#3882ba;stroke-width:4.17px;"/><path d="M108.333,141.667l0,-108.334" style="fill:none;stroke:#3882ba;stroke-width:4.17px;"/><path d="M116.667,141.667l-0,-108.334" style="fill:none;stroke:#3882ba;stroke-width:4.17px;"/><path d="M125,141.667l0,-108.334" style="fill:none;stroke:#3882ba;stroke-width:4.17px;"/><path d="M133.333,141.667l0,-108.334" style="fill:none;stroke:#3882ba;stroke-width:4.17px;"/><path d="M141.667,141.667l-0,-108.334" style="fill:none;stroke:#3882ba;stroke-width:4.17px;"/><path d="M150,141.667l0,-108.334" style="fill:none;stroke:#3882ba;stroke-width:4.17px;"/><path d="M158.333,141.667l0,-108.334" style="fill:none;stroke:#3882ba;stroke-width:4.17px;"/><path d="M166.667,141.667l-0,-108.334" style="fill:none;stroke:#3882ba;stroke-width:4.17px;"/><path d="M175,141.667l0,-108.334" style="fill:none;stroke:#3882ba;stroke-width:4.17px;"/><path d="M183.333,141.667l0,-108.334" style="fill:none;stroke:#3882ba;stroke-width:4.17px;"/><path d="M191.667,141.667l-0,-108.334" style="fill:none;stroke:#3882ba;stroke-width:4.17px;"/><path d="M200,141.667l0,-108.334" style="fill:none;stroke:#3882ba;stroke-width:4.17px;"/><path d="M50,141.667l158.333,-0" style="fill:none;stroke:#3882ba;stroke-width:4.17px;"/><path d="M50,133.333l158.333,0" style="fill:none;stroke:#3882ba;stroke-width:4.17px;"/><path d="M50,125l158.333,0" style="fill:none;stroke:#3882ba;stroke-width:4.17px;"/><path d="M50,116.667l158.333,-0" style="fill:none;stroke:#3882ba;stroke-width:4.17px;"/><path d="M50,108.333l158.333,0" style="fill:none;stroke:#3882ba;stroke-width:4.17px;"/><path d="M50,100l158.333,0" style="fill:none;stroke:#3882ba;stroke-width:4.17px;"/><path d="M50,91.667l158.333,-0" style="fill:none;stroke:#3882ba;stroke-width:4.17px;"/><path d="M50,83.333l158.333,0" style="fill:none;stroke:#3882ba;stroke-width:4.17px;"/><path d="M50,75l158.333,0" style="fill:none;stroke:#3882ba;stroke-width:4.17px;"/><path d="M50,66.667l158.333,-0" style="fill:none;stroke:#3882ba;stroke-width:4.17px;"/><path d="M50,58.333l158.333,0" style="fill:none;stroke:#3882ba;stroke-width:4.17px;"/><path d="M50,50l158.333,0" style="fill:none;stroke:#3882ba;stroke-width:4.17px;"/><path d="M50,41.667l158.333,-0" style="fill:none;stroke:#3882ba;stroke-width:4.17px;"/><path d="M45.833,141.667l4.167,-108.334l158.333,0l4.167,108.334" style="fill:none;stroke:#000;stroke-width:12.5px;"/><path d="M33.333,150l12.5,-8.333l4.167,-8.334l-20.833,4.167l-0,-12.5l20.833,0l-0,-8.333l-20.833,-0l-0,-8.334l20.833,0l-0,-8.333l-20.833,0l-0,-8.333l20.833,-0l-0,-8.334l-20.833,0l-0,-8.333l20.833,0l-0,-8.333l-20.833,-0l-0,-8.334l20.833,0l-0,-8.333l-16.667,0l0,-8.333l16.667,-0l-0,-8.334l-16.667,0l0,-16.666l16.667,16.666l-0,-16.666l8.333,-0l0,16.666l8.334,0l-0,-16.666l8.333,-0l-0,16.666l8.333,0l0,-16.666l8.334,-0l-0,16.666l8.333,0l-0,-16.666l8.333,-0l0,16.666l8.334,0l-0,-16.666l8.333,-0l-0,16.666l8.333,0l0,-16.666l8.334,-0l-0,16.666l8.333,0l-0,-16.666l8.333,-0l0,16.666l8.334,0l-0,-16.666l8.333,-0l-0,16.666l8.333,0l0,-16.666l8.334,-0l-0,16.666l8.333,0l-0,-16.666l8.333,-0l0,16.666l12.5,-16.666l4.167,-0l-0,16.666l-16.667,0l0,8.334l16.667,-0l-0,8.333l-16.667,0l0,8.333l16.667,0l-0,8.334l-16.667,-0l0,8.333l16.667,0l-0,8.333l-16.667,0l0,8.334l16.667,-0l-0,8.333l-16.667,0l0,8.333l16.667,0l-0,8.334l-16.667,-0l0,8.333l16.667,0l-0,12.5l-16.667,-4.167l4.167,8.334l12.5,8.333" style="fill:none;stroke:#000;stroke-width:4.17px;"/><path d="M29.167,154.167l4.166,-137.5l191.667,-0l4.167,137.5" style="fill:none;stroke:#000;stroke-width:12.5px;"/></g><g><g><path d="M162.5,212.5l16.667,0l8.333,12.5l-8.333,12.5l-16.667,0l-8.333,-12.5l8.333,-12.5Z"/><path d="M162.5,187.5l16.667,0l8.333,12.5l-8.333,12.5l-16.667,0l-8.333,-12.5l8.333,-12.5Z"/><path d="M187.5,175l16.667,0l8.333,12.5l-8.333,12.5l-16.667,0l-8.333,-12.5l8.333,-12.5Z"/><path d="M212.5,187.5l16.667,0l8.333,12.5l-8.333,12.5l-16.667,0l-8.333,-12.5l8.333,-12.5Z"/><path d="M212.5,212.5l16.667,0l8.333,12.5l-8.333,12.5l-16.667,0l-8.333,-12.5l8.333,-12.5Z"/><path d="M187.5,225l16.667,0l8.333,12.5l-8.333,12.5l-16.667,0l-8.333,-12.5l8.333,-12.5Z"/></g><g><g><path d="M158.333,204.167l16.667,-0l8.333,12.5l-8.333,12.5l-16.667,-0l-8.333,-12.5l8.333,-12.5Z"/><path d="M158.333,179.167l16.667,-0l8.333,12.5l-8.333,12.5l-16.667,-0l-8.333,-12.5l8.333,-12.5Z" style="fill:#3882ba;"/><path d="M183.333,166.667l16.667,-0l8.333,12.5l-8.333,12.5l-16.667,-0l-8.333,-12.5l8.333,-12.5Z"/><path d="M208.333,179.167l16.667,-0l8.333,12.5l-8.333,12.5l-16.667,-0l-8.333,-12.5l8.333,-12.5Z" style="fill:#3882ba;"/><path d="M208.333,204.167l16.667,-0l8.333,12.5l-8.333,12.5l-16.667,-0l-8.333,-12.5l8.333,-12.5Z"/><path d="M183.333,216.667l16.667,-0l8.333,12.5l-8.333,12.5l-16.667,-0l-8.333,-12.5l8.333,-12.5Z" style="fill:#3882ba;"/></g><g transform="matrix(33.3333,0,0,33.3333,208.333,178.597)"></g><text x="175px" y="178.597px" style="font-family:'ArialUnicodeMS', 'Arial Unicode MS', sans-serif;font-size:33.333px;fill:#3882ba;">♟</text></g></g><g><circle cx="79.167" cy="170.833" r="8.333"/><path d="M66.667,183.333l-25,25" style="fill:none;stroke:#3882ba;stroke-width:4.17px;"/><path d="M66.667,175l-20.834,20.833" style="fill:none;stroke:#3882ba;stroke-width:4.17px;"/><path d="M75,183.333l-20.833,20.834" style="fill:none;stroke:#3882ba;stroke-width:4.17px;"/></g></svg>