<?xml version="1.0" encoding="UTF-8" standalone="no"?><!DOCTYPE svg PUBLIC "-//W3C//DTD SVG 1.1//EN" "http://www.w3.org/Graphics/SVG/1.1/DTD/svg11.dtd"><svg width="100%" height="100%" viewBox="0 0 267 267" version="1.1" xmlns="http://www.w3.org/2000/svg" xmlns:xlink="http://www.w3.org/1999/xlink" xml:space="preserve" xmlns:serif="http://www.serif.com/" style="fill-rule:evenodd;clip-rule:evenodd;stroke-linecap:round;stroke-linejoin:round;stroke-miterlimit:1.5;"><rect id="star-unfilled-hover" x="0" y="0" width="266.667" height="266.667" style="fill:none;"/><path d="M129.371,23.337c0.557,-1.717 2.157,-2.879 3.962,-2.879c1.805,-0 3.405,1.162 3.963,2.879c7.322,22.534 22.231,68.418 22.231,68.418c-0,0 48.245,0 71.939,0c1.805,0 3.405,1.163 3.963,2.879c0.558,1.717 -0.053,3.598 -1.514,4.659c-19.169,13.927 -58.2,42.285 -58.2,42.285c-0,-0 14.909,45.884 22.231,68.419c0.557,1.716 -0.054,3.597 -1.514,4.658c-1.46,1.061 -3.438,1.061 -4.898,0c-19.169,-13.927 -58.201,-42.285 -58.201,-42.285c0,0 -39.031,28.358 -58.2,42.285c-1.46,1.061 -3.438,1.061 -4.898,0c-1.461,-1.061 -2.072,-2.942 -1.514,-4.658c7.322,-22.535 22.231,-68.419 22.231,-68.419c-0,-0 -39.032,-28.358 -58.201,-42.285c-1.46,-1.061 -2.071,-2.942 -1.513,-4.659c0.557,-1.716 2.157,-2.879 3.962,-2.879c23.695,0 71.94,0 71.94,0c0,0 14.909,-45.884 22.231,-68.418Z" style="fill:none;stroke:#a3b;stroke-width:8.33px;"/></svg>