<?xml version="1.0" encoding="UTF-8" standalone="no"?><!DOCTYPE svg PUBLIC "-//W3C//DTD SVG 1.1//EN" "http://www.w3.org/Graphics/SVG/1.1/DTD/svg11.dtd"><svg width="100%" height="100%" viewBox="0 0 267 267" version="1.1" xmlns="http://www.w3.org/2000/svg" xmlns:xlink="http://www.w3.org/1999/xlink" xml:space="preserve" xmlns:serif="http://www.serif.com/" style="fill-rule:evenodd;clip-rule:evenodd;stroke-linejoin:round;stroke-miterlimit:2;"><rect id="trivia-grandmaster" x="0" y="0" width="266.667" height="266.667" style="fill:none;"/><path d="M266.667,26.667l-0,213.333c-0,14.718 -11.949,26.667 -26.667,26.667l-213.333,-0c-14.718,-0 -26.667,-11.949 -26.667,-26.667l-0,-213.333c-0,-14.718 11.949,-26.667 26.667,-26.667l213.333,-0c14.718,-0 26.667,11.949 26.667,26.667Z"/><path d="M166.667,37.5l-0,208.333c-6.899,0 -12.5,5.601 -12.5,12.5l-25,0c-0,-6.899 -5.601,-12.5 -12.5,-12.5l-0,-208.333c6.899,0 12.5,-5.601 12.5,-12.5l25,0c-0,6.899 5.601,12.5 12.5,12.5Z" style="fill:#444;"/><path d="M233.333,37.5l0,25c-6.899,0 -12.5,5.601 -12.5,12.5l-158.333,0c0,-6.899 -5.601,-12.5 -12.5,-12.5l0,-25c6.899,0 12.5,-5.601 12.5,-12.5l158.333,0c0,6.899 5.601,12.5 12.5,12.5Z" style="fill:#444;"/><path d="M158.333,29.167l0,208.333c-6.899,-0 -12.5,5.601 -12.5,12.5l-25,0c0,-6.899 -5.601,-12.5 -12.5,-12.5l0,-208.333c6.899,-0 12.5,-5.601 12.5,-12.5l25,-0c0,6.899 5.601,12.5 12.5,12.5Z" style="fill:#fff;"/><path d="M225,29.167l0,25c-6.899,-0 -12.5,5.601 -12.5,12.5l-158.333,-0c-0,-6.899 -5.601,-12.5 -12.5,-12.5l-0,-25c6.899,-0 12.5,-5.601 12.5,-12.5l158.333,-0c-0,6.899 5.601,12.5 12.5,12.5Z" style="fill:#fff;"/></svg>