<?xml version="1.0" encoding="UTF-8" standalone="no"?><!DOCTYPE svg PUBLIC "-//W3C//DTD SVG 1.1//EN" "http://www.w3.org/Graphics/SVG/1.1/DTD/svg11.dtd"><svg width="100%" height="100%" viewBox="0 0 534 267" version="1.1" xmlns="http://www.w3.org/2000/svg" xmlns:xlink="http://www.w3.org/1999/xlink" xml:space="preserve" xmlns:serif="http://www.serif.com/" style="fill-rule:evenodd;clip-rule:evenodd;stroke-linecap:round;stroke-linejoin:round;stroke-miterlimit:1.5;"><rect id="wasteland" x="0" y="0" width="533.333" height="266.667" style="fill:none;"/><path d="M16.667,195.833c7.936,-8.333 23.809,-25 35.714,-25c11.905,0 23.809,25 35.714,25c11.905,0 23.81,-25 35.715,-25c11.904,0 23.809,25 35.714,25c11.905,0 23.809,-25 35.714,-25c11.905,0 23.81,25 35.714,25c11.905,0 23.81,-25 35.715,-25c11.904,0 23.809,25 35.714,25c11.905,0 23.809,-25 35.714,-25c11.905,0 23.81,25 35.715,25c11.904,0 23.809,-25 35.714,-25c11.905,0 23.809,25 35.714,25c11.905,0 23.81,-25 35.714,-25c11.905,0 27.778,16.667 35.715,25" style="fill:none;stroke:#3882ba;stroke-width:8.33px;"/><path d="M125,170.833l0,-54.166" style="fill:none;stroke:#3882ba;stroke-width:8.33px;"/><path d="M104.167,120.833c-0,0 0.737,9.757 4.166,12.5c3.473,2.778 16.667,4.167 16.667,4.167c0,0 13.194,-1.389 16.667,-4.167c3.429,-2.743 4.166,-12.5 4.166,-12.5" style="fill:none;stroke:#3882ba;stroke-width:8.33px;"/><g><path d="M287.5,175c6.904,0 12.5,-5.596 12.5,-12.5c-0,-6.497 -5.267,-11.765 -11.765,-11.765c-6.064,0 -10.98,4.916 -10.98,10.981c-0,5.631 4.565,10.196 10.196,10.196c5.198,-0 9.412,-4.214 9.412,-9.412c-0,-4.765 -3.863,-8.627 -8.628,-8.627c-4.331,-0 -7.843,3.511 -7.843,7.843c0,3.898 3.161,7.059 7.059,7.059c3.465,-0 6.274,-2.81 6.274,-6.275c0,-3.032 -2.458,-5.49 -5.49,-5.49c-2.599,-0 -4.706,2.107 -4.706,4.706c0,2.166 1.756,3.921 3.922,3.921c1.733,0 3.137,-1.404 3.137,-3.137c0,-1.299 -1.053,-2.353 -2.353,-2.353c-0.866,0 -1.568,0.702 -1.568,1.569c-0,0.433 0.351,0.784 0.784,0.784" style="fill:none;stroke:#3882ba;stroke-width:0.83px;"/><path d="M287.5,150c-6.899,0 -12.5,5.601 -12.5,12.5c0,6.899 5.601,12.5 12.5,12.5c6.037,0 10.938,-4.901 10.938,-10.938c-0,-6.036 -4.901,-10.937 -10.938,-10.937c-5.174,0 -9.375,4.201 -9.375,9.375c0,5.174 4.201,9.375 9.375,9.375c4.312,0 7.813,-3.501 7.813,-7.813c-0,-4.311 -3.501,-7.812 -7.813,-7.812c-3.449,0 -6.25,2.801 -6.25,6.25c0,3.449 2.801,6.25 6.25,6.25c2.587,0 4.688,-2.1 4.688,-4.688c-0,-2.587 -2.101,-4.687 -4.688,-4.687c-1.725,0 -3.125,1.4 -3.125,3.125c0,1.725 1.4,3.125 3.125,3.125c0.862,0 1.563,-0.7 1.563,-1.563c-0,-0.862 -0.701,-1.562 -1.563,-1.562" style="fill:none;stroke:#3882ba;stroke-width:0.83px;"/></g><path d="M460.271,25l4.331,0.455l-2.165,20.606l6.402,-19.705l4.142,1.346l-6.402,19.705l10.359,-17.944l3.772,2.178l-10.359,17.944l13.863,-15.398l3.237,2.914l-13.864,15.398l16.762,-12.179l2.56,3.524l-16.762,12.178l18.928,-8.427l1.772,3.979l-18.928,8.427l20.266,-4.308l0.906,4.261l-20.267,4.307l20.719,0l0,4.356l-20.719,-0l20.267,4.307l-0.906,4.261l-20.266,-4.308l18.928,8.427l-1.772,3.979l-18.928,-8.427l16.762,12.178l-2.56,3.524l-16.762,-12.179l13.864,15.398l-3.237,2.914l-13.863,-15.397l10.359,17.943l-3.772,2.178l-10.359,-17.944l6.402,19.705l-4.142,1.346l-6.402,-19.705l2.165,20.606l-4.331,0.455l-2.166,-20.606l-2.166,20.606l-4.331,-0.455l2.166,-20.606l-6.403,19.705l-4.142,-1.346l6.402,-19.705l-10.359,17.944l-3.772,-2.178l10.36,-17.943l-13.864,15.397l-3.237,-2.914l13.864,-15.398l-16.762,12.179l-2.56,-3.524l16.762,-12.178l-18.928,8.427l-1.772,-3.979l18.928,-8.427l-20.266,4.308l-0.906,-4.261l20.267,-4.307l-20.719,-0l-0,-4.356l20.719,0l-20.267,-4.307l0.906,-4.261l20.266,4.308l-18.928,-8.427l1.772,-3.979l18.928,8.427l-16.762,-12.178l2.56,-3.524l16.762,12.179l-13.864,-15.398l3.237,-2.914l13.864,15.398l-10.36,-17.944l3.772,-2.178l10.359,17.944l-6.402,-19.705l4.142,-1.346l6.403,19.705l-2.166,-20.606l4.331,-0.455l2.166,20.606l2.166,-20.606Z" style="fill:none;stroke:#3882ba;stroke-width:2.08px;"/></svg>