<?xml version="1.0" encoding="UTF-8" standalone="no"?>
<!DOCTYPE svg PUBLIC "-//W3C//DTD SVG 1.1//EN" "http://www.w3.org/Graphics/SVG/1.1/DTD/svg11.dtd">
<svg width="100%" height="100%" viewBox="0 0 100 100" version="1.1" xmlns="http://www.w3.org/2000/svg" xmlns:xlink="http://www.w3.org/1999/xlink" xml:space="preserve" xmlns:serif="http://www.serif.com/" style="fill-rule:evenodd;clip-rule:evenodd;stroke-linecap:round;stroke-linejoin:round;stroke-miterlimit:1.5;">
    <g transform="matrix(1.125,0,0,1.125,-6.25,-6.25)">
        <path d="M90,18L90,82C90,86.415 86.415,90 82,90L18,90C13.585,90 10,86.415 10,82L10,18C10,13.585 13.585,10 18,10L82,10C86.415,10 90,13.585 90,18Z" style="fill:rgb(164,118,196);stroke:black;stroke-width:1.78px;"/>
    </g>
    <g transform="matrix(1,0,0,1,-10.3523,8.88178e-16)">
        <g transform="matrix(12.5,0,0,12.5,86.4485,18.9539)">
            <path d="M0.498,-0.541L0.41,-0.534C0.402,-0.568 0.391,-0.593 0.377,-0.609C0.353,-0.634 0.324,-0.646 0.289,-0.646C0.261,-0.646 0.236,-0.639 0.215,-0.623C0.188,-0.603 0.166,-0.573 0.15,-0.535C0.134,-0.496 0.126,-0.441 0.125,-0.369C0.146,-0.401 0.172,-0.425 0.203,-0.441C0.233,-0.457 0.265,-0.464 0.299,-0.464C0.357,-0.464 0.407,-0.443 0.448,-0.4C0.49,-0.357 0.51,-0.301 0.51,-0.232C0.51,-0.188 0.501,-0.146 0.481,-0.107C0.462,-0.069 0.435,-0.039 0.401,-0.019C0.368,0.002 0.329,0.012 0.286,0.012C0.213,0.012 0.153,-0.015 0.107,-0.069C0.061,-0.122 0.038,-0.211 0.038,-0.335C0.038,-0.473 0.063,-0.574 0.114,-0.637C0.159,-0.691 0.219,-0.719 0.294,-0.719C0.351,-0.719 0.397,-0.703 0.433,-0.671C0.469,-0.64 0.49,-0.596 0.498,-0.541ZM0.139,-0.232C0.139,-0.202 0.145,-0.173 0.158,-0.145C0.171,-0.117 0.189,-0.096 0.212,-0.082C0.235,-0.067 0.259,-0.06 0.285,-0.06C0.322,-0.06 0.354,-0.075 0.38,-0.105C0.407,-0.135 0.42,-0.176 0.42,-0.227C0.42,-0.277 0.407,-0.316 0.381,-0.344C0.354,-0.372 0.321,-0.387 0.281,-0.387C0.242,-0.387 0.208,-0.372 0.18,-0.344C0.153,-0.316 0.139,-0.278 0.139,-0.232Z" style="fill-rule:nonzero;"/>
        </g>
        <g transform="matrix(12.5,0,0,12.5,93.4004,18.9539)">
            <path d="M0.042,-0.189L0.13,-0.201C0.14,-0.151 0.157,-0.115 0.181,-0.093C0.206,-0.071 0.235,-0.06 0.27,-0.06C0.311,-0.06 0.346,-0.074 0.375,-0.103C0.403,-0.132 0.417,-0.167 0.417,-0.209C0.417,-0.25 0.404,-0.283 0.378,-0.309C0.352,-0.336 0.318,-0.349 0.277,-0.349C0.261,-0.349 0.24,-0.345 0.215,-0.339L0.225,-0.416C0.231,-0.415 0.236,-0.415 0.239,-0.415C0.277,-0.415 0.31,-0.425 0.34,-0.444C0.37,-0.464 0.385,-0.494 0.385,-0.535C0.385,-0.567 0.374,-0.594 0.353,-0.615C0.331,-0.636 0.303,-0.646 0.268,-0.646C0.234,-0.646 0.205,-0.636 0.183,-0.614C0.16,-0.593 0.145,-0.561 0.139,-0.518L0.051,-0.533C0.062,-0.592 0.086,-0.638 0.124,-0.67C0.162,-0.703 0.209,-0.719 0.266,-0.719C0.305,-0.719 0.341,-0.71 0.374,-0.694C0.407,-0.677 0.432,-0.654 0.449,-0.625C0.467,-0.596 0.476,-0.565 0.476,-0.533C0.476,-0.502 0.467,-0.474 0.451,-0.448C0.434,-0.423 0.41,-0.403 0.377,-0.388C0.419,-0.378 0.452,-0.358 0.476,-0.327C0.499,-0.296 0.511,-0.258 0.511,-0.211C0.511,-0.149 0.488,-0.096 0.442,-0.052C0.397,-0.009 0.339,0.013 0.27,0.013C0.207,0.013 0.155,-0.006 0.113,-0.043C0.072,-0.081 0.048,-0.129 0.042,-0.189Z" style="fill-rule:nonzero;"/>
        </g>
    </g>
    <g transform="matrix(1,0,0,1,0,10)">
        <g transform="matrix(39.5833,0,0,39.5833,28.3625,54.2059)">
            <path d="M0.075,-0L0.53,-0L0.53,-0.102L0.183,-0.102L0.183,-0.311L0.479,-0.311L0.479,-0.407L0.183,-0.407L0.183,-0.61L0.53,-0.61L0.53,-0.712L0.075,-0.712L0.075,-0Z" style="fill-rule:nonzero;"/>
        </g>
        <g transform="matrix(39.5833,0,0,39.5833,50.3769,54.2059)">
            <path d="M0.066,-0.17C0.067,-0.113 0.085,-0.069 0.122,-0.04C0.156,-0.01 0.194,0.005 0.236,0.006C0.29,0.006 0.334,-0.014 0.367,-0.054L0.369,-0.054L0.369,-0L0.471,-0L0.471,-0.507L0.369,-0.507L0.369,-0.205C0.369,-0.171 0.36,-0.144 0.341,-0.125C0.322,-0.106 0.298,-0.096 0.269,-0.096C0.24,-0.096 0.216,-0.106 0.197,-0.125C0.178,-0.144 0.168,-0.171 0.168,-0.205L0.168,-0.507L0.066,-0.507L0.066,-0.17Z" style="fill-rule:nonzero;"/>
        </g>
    </g>
</svg>
