<?xml version="1.0" encoding="UTF-8" standalone="no"?>
<!DOCTYPE svg PUBLIC "-//W3C//DTD SVG 1.1//EN" "http://www.w3.org/Graphics/SVG/1.1/DTD/svg11.dtd">
<svg width="100%" height="100%" viewBox="0 0 100 100" version="1.1" xmlns="http://www.w3.org/2000/svg" xmlns:xlink="http://www.w3.org/1999/xlink" xml:space="preserve" xmlns:serif="http://www.serif.com/" style="fill-rule:evenodd;clip-rule:evenodd;stroke-linecap:round;stroke-linejoin:round;stroke-miterlimit:1.5;">
    <g transform="matrix(1.125,0,0,1.125,-6.25,-6.25)">
        <path d="M90,18L90,82C90,86.415 86.415,90 82,90L18,90C13.585,90 10,86.415 10,82L10,18C10,13.585 13.585,10 18,10L82,10C86.415,10 90,13.585 90,18Z" style="fill:rgb(6,191,255);stroke:black;stroke-width:1.78px;"/>
    </g>
    <g transform="matrix(1,0,0,1,-10.3523,8.88178e-16)">
        <g transform="matrix(12.5,0,0,12.5,86.4485,18.9539)">
            <path d="M0.042,-0.189L0.13,-0.201C0.14,-0.151 0.157,-0.115 0.181,-0.093C0.206,-0.071 0.235,-0.06 0.27,-0.06C0.311,-0.06 0.346,-0.074 0.375,-0.103C0.403,-0.132 0.417,-0.167 0.417,-0.209C0.417,-0.25 0.404,-0.283 0.378,-0.309C0.352,-0.336 0.318,-0.349 0.277,-0.349C0.261,-0.349 0.24,-0.345 0.215,-0.339L0.225,-0.416C0.231,-0.415 0.236,-0.415 0.239,-0.415C0.277,-0.415 0.31,-0.425 0.34,-0.444C0.37,-0.464 0.385,-0.494 0.385,-0.535C0.385,-0.567 0.374,-0.594 0.353,-0.615C0.331,-0.636 0.303,-0.646 0.268,-0.646C0.234,-0.646 0.205,-0.636 0.183,-0.614C0.16,-0.593 0.145,-0.561 0.139,-0.518L0.051,-0.533C0.062,-0.592 0.086,-0.638 0.124,-0.67C0.162,-0.703 0.209,-0.719 0.266,-0.719C0.305,-0.719 0.341,-0.71 0.374,-0.694C0.407,-0.677 0.432,-0.654 0.449,-0.625C0.467,-0.596 0.476,-0.565 0.476,-0.533C0.476,-0.502 0.467,-0.474 0.451,-0.448C0.434,-0.423 0.41,-0.403 0.377,-0.388C0.419,-0.378 0.452,-0.358 0.476,-0.327C0.499,-0.296 0.511,-0.258 0.511,-0.211C0.511,-0.149 0.488,-0.096 0.442,-0.052C0.397,-0.009 0.339,0.013 0.27,0.013C0.207,0.013 0.155,-0.006 0.113,-0.043C0.072,-0.081 0.048,-0.129 0.042,-0.189Z" style="fill-rule:nonzero;"/>
        </g>
        <g transform="matrix(12.5,0,0,12.5,93.4004,18.9539)">
            <path d="M0.323,-0L0.323,-0.171L0.013,-0.171L0.013,-0.252L0.339,-0.716L0.411,-0.716L0.411,-0.252L0.508,-0.252L0.508,-0.171L0.411,-0.171L0.411,-0L0.323,-0ZM0.323,-0.252L0.323,-0.575L0.099,-0.252L0.323,-0.252Z" style="fill-rule:nonzero;"/>
        </g>
    </g>
    <g transform="matrix(1,0,0,1,0,10)">
        <g transform="matrix(39.5833,0,0,39.5833,28.7491,54.2059)">
            <path d="M0.084,-0.173L0.013,-0.092C0.089,-0.027 0.18,0.006 0.285,0.006C0.448,0.004 0.532,-0.065 0.535,-0.201C0.535,-0.252 0.519,-0.296 0.488,-0.334C0.456,-0.373 0.407,-0.397 0.34,-0.406C0.306,-0.41 0.279,-0.414 0.26,-0.417C0.225,-0.424 0.199,-0.435 0.183,-0.452C0.167,-0.469 0.159,-0.487 0.159,-0.508C0.16,-0.542 0.172,-0.568 0.195,-0.585C0.217,-0.602 0.245,-0.61 0.278,-0.61C0.342,-0.609 0.401,-0.59 0.454,-0.555L0.514,-0.644C0.449,-0.691 0.372,-0.716 0.283,-0.718C0.21,-0.717 0.153,-0.698 0.113,-0.66C0.071,-0.622 0.051,-0.572 0.051,-0.51C0.051,-0.458 0.067,-0.414 0.1,-0.378C0.132,-0.343 0.179,-0.32 0.24,-0.31C0.274,-0.305 0.305,-0.301 0.334,-0.297C0.396,-0.286 0.427,-0.254 0.427,-0.201C0.425,-0.136 0.379,-0.103 0.286,-0.102C0.208,-0.103 0.141,-0.126 0.084,-0.173Z" style="fill-rule:nonzero;"/>
        </g>
        <g transform="matrix(39.5833,0,0,39.5833,51.4592,54.2059)">
            <path d="M0.459,-0.215L0.459,-0.299C0.458,-0.366 0.438,-0.418 0.397,-0.456C0.357,-0.493 0.308,-0.513 0.25,-0.513C0.226,-0.513 0.201,-0.509 0.177,-0.5C0.152,-0.491 0.129,-0.477 0.109,-0.457C0.089,-0.438 0.073,-0.411 0.06,-0.377C0.047,-0.344 0.041,-0.302 0.041,-0.252C0.041,-0.2 0.048,-0.158 0.063,-0.125C0.076,-0.091 0.094,-0.065 0.115,-0.046C0.126,-0.037 0.138,-0.029 0.151,-0.023C0.163,-0.016 0.175,-0.01 0.188,-0.006C0.213,0.002 0.239,0.006 0.266,0.006C0.336,0.007 0.397,-0.021 0.449,-0.076L0.375,-0.139C0.342,-0.106 0.306,-0.09 0.264,-0.09C0.229,-0.09 0.2,-0.101 0.178,-0.122C0.155,-0.143 0.143,-0.174 0.143,-0.215L0.459,-0.215ZM0.143,-0.299C0.145,-0.338 0.156,-0.368 0.175,-0.388C0.194,-0.407 0.219,-0.417 0.25,-0.417C0.281,-0.417 0.306,-0.407 0.325,-0.388C0.345,-0.368 0.356,-0.338 0.357,-0.299L0.143,-0.299Z" style="fill-rule:nonzero;"/>
        </g>
    </g>
</svg>
