<?xml version="1.0" encoding="UTF-8" standalone="no"?>
<!DOCTYPE svg PUBLIC "-//W3C//DTD SVG 1.1//EN" "http://www.w3.org/Graphics/SVG/1.1/DTD/svg11.dtd">
<svg width="100%" height="100%" viewBox="0 0 100 100" version="1.1" xmlns="http://www.w3.org/2000/svg" xmlns:xlink="http://www.w3.org/1999/xlink" xml:space="preserve" xmlns:serif="http://www.serif.com/" style="fill-rule:evenodd;clip-rule:evenodd;stroke-linecap:round;stroke-linejoin:round;stroke-miterlimit:1.5;">
    <g transform="matrix(1.125,0,0,1.125,-6.25,-6.25)">
        <path d="M90,18L90,82C90,86.415 86.415,90 82,90L18,90C13.585,90 10,86.415 10,82L10,18C10,13.585 13.585,10 18,10L82,10C86.415,10 90,13.585 90,18Z" style="fill:rgb(229,242,13);stroke:black;stroke-width:1.78px;"/>
    </g>
    <g transform="matrix(1,0,0,1,-10.3523,8.88178e-16)">
        <g transform="matrix(12.5,0,0,12.5,80.4243,18.9539)">
            <path d="M0.373,-0L0.285,-0L0.285,-0.56C0.264,-0.54 0.236,-0.52 0.201,-0.5C0.167,-0.479 0.136,-0.464 0.109,-0.454L0.109,-0.539C0.158,-0.562 0.201,-0.59 0.238,-0.623C0.275,-0.656 0.301,-0.688 0.316,-0.719L0.373,-0.719L0.373,-0Z" style="fill-rule:nonzero;"/>
        </g>
        <g transform="matrix(12.5,0,0,12.5,86.4485,18.9539)">
            <path d="M0.373,-0L0.285,-0L0.285,-0.56C0.264,-0.54 0.236,-0.52 0.201,-0.5C0.167,-0.479 0.136,-0.464 0.109,-0.454L0.109,-0.539C0.158,-0.562 0.201,-0.59 0.238,-0.623C0.275,-0.656 0.301,-0.688 0.316,-0.719L0.373,-0.719L0.373,-0Z" style="fill-rule:nonzero;"/>
        </g>
        <g transform="matrix(12.5,0,0,12.5,93.4004,18.9539)">
            <path d="M0.503,-0.084L0.503,-0L0.03,-0C0.03,-0.021 0.033,-0.042 0.041,-0.061C0.053,-0.093 0.072,-0.125 0.098,-0.156C0.125,-0.188 0.163,-0.224 0.213,-0.265C0.291,-0.328 0.344,-0.379 0.371,-0.416C0.398,-0.454 0.412,-0.489 0.412,-0.522C0.412,-0.557 0.4,-0.586 0.375,-0.61C0.35,-0.634 0.317,-0.646 0.277,-0.646C0.235,-0.646 0.201,-0.633 0.176,-0.608C0.15,-0.583 0.138,-0.547 0.137,-0.502L0.047,-0.512C0.053,-0.579 0.076,-0.63 0.117,-0.666C0.157,-0.701 0.211,-0.719 0.279,-0.719C0.348,-0.719 0.402,-0.7 0.442,-0.662C0.482,-0.624 0.502,-0.576 0.502,-0.52C0.502,-0.491 0.497,-0.463 0.485,-0.436C0.473,-0.408 0.454,-0.379 0.427,-0.348C0.399,-0.318 0.354,-0.276 0.291,-0.222C0.238,-0.178 0.204,-0.148 0.189,-0.132C0.174,-0.116 0.162,-0.1 0.152,-0.084L0.503,-0.084Z" style="fill-rule:nonzero;"/>
        </g>
    </g>
    <g transform="matrix(1,0,0,1,0,10)">
        <g transform="matrix(39.5833,0,0,39.5833,28.3625,54.2059)">
            <path d="M0.441,-0.199C0.411,-0.134 0.366,-0.102 0.305,-0.102C0.28,-0.102 0.258,-0.107 0.24,-0.118C0.221,-0.127 0.206,-0.139 0.195,-0.154C0.181,-0.169 0.172,-0.189 0.167,-0.214C0.162,-0.239 0.159,-0.286 0.159,-0.356C0.159,-0.426 0.162,-0.474 0.167,-0.499C0.172,-0.523 0.181,-0.543 0.195,-0.558C0.206,-0.573 0.221,-0.585 0.24,-0.595C0.258,-0.604 0.28,-0.609 0.305,-0.61C0.34,-0.609 0.369,-0.599 0.393,-0.58C0.416,-0.56 0.432,-0.535 0.441,-0.507L0.555,-0.507C0.544,-0.566 0.516,-0.616 0.473,-0.657C0.43,-0.697 0.374,-0.717 0.305,-0.718C0.249,-0.717 0.202,-0.704 0.165,-0.678C0.127,-0.652 0.099,-0.623 0.082,-0.59C0.071,-0.573 0.063,-0.55 0.058,-0.522C0.053,-0.494 0.051,-0.439 0.051,-0.356C0.051,-0.275 0.053,-0.22 0.058,-0.191C0.061,-0.176 0.064,-0.163 0.068,-0.153C0.072,-0.143 0.077,-0.133 0.082,-0.122C0.099,-0.089 0.127,-0.06 0.165,-0.035C0.202,-0.009 0.249,0.005 0.305,0.006C0.367,0.006 0.421,-0.012 0.466,-0.047C0.51,-0.082 0.54,-0.133 0.555,-0.199L0.441,-0.199Z" style="fill-rule:nonzero;"/>
        </g>
        <g transform="matrix(39.5833,0,0,39.5833,50.3769,54.2059)">
            <path d="M0.066,-0L0.168,-0L0.168,-0.302C0.168,-0.337 0.178,-0.364 0.197,-0.383C0.216,-0.402 0.24,-0.411 0.269,-0.411C0.298,-0.411 0.322,-0.402 0.341,-0.383C0.36,-0.364 0.369,-0.337 0.369,-0.302L0.369,-0L0.471,-0L0.471,-0.337C0.47,-0.395 0.451,-0.439 0.417,-0.469C0.382,-0.498 0.344,-0.513 0.302,-0.513C0.247,-0.513 0.203,-0.493 0.17,-0.453L0.168,-0.453L0.168,-0.507L0.066,-0.507L0.066,-0Z" style="fill-rule:nonzero;"/>
        </g>
    </g>
</svg>
