<?xml version="1.0" encoding="UTF-8" standalone="no"?>
<!DOCTYPE svg PUBLIC "-//W3C//DTD SVG 1.1//EN" "http://www.w3.org/Graphics/SVG/1.1/DTD/svg11.dtd">
<svg width="100%" height="100%" viewBox="0 0 100 100" version="1.1" xmlns="http://www.w3.org/2000/svg" xmlns:xlink="http://www.w3.org/1999/xlink" xml:space="preserve" xmlns:serif="http://www.serif.com/" style="fill-rule:evenodd;clip-rule:evenodd;stroke-linecap:round;stroke-linejoin:round;stroke-miterlimit:1.5;">
    <g transform="matrix(1.125,0,0,1.125,-6.25,-6.25)">
        <path d="M90,18L90,82C90,86.415 86.415,90 82,90L18,90C13.585,90 10,86.415 10,82L10,18C10,13.585 13.585,10 18,10L82,10C86.415,10 90,13.585 90,18Z" style="fill:rgb(164,118,196);stroke:black;stroke-width:1.78px;"/>
    </g>
    <g transform="matrix(1,0,0,1,-10.3523,8.88178e-16)">
        <g transform="matrix(12.5,0,0,12.5,86.4485,18.9539)">
            <path d="M0.498,-0.541L0.41,-0.534C0.402,-0.568 0.391,-0.593 0.377,-0.609C0.353,-0.634 0.324,-0.646 0.289,-0.646C0.261,-0.646 0.236,-0.639 0.215,-0.623C0.188,-0.603 0.166,-0.573 0.15,-0.535C0.134,-0.496 0.126,-0.441 0.125,-0.369C0.146,-0.401 0.172,-0.425 0.203,-0.441C0.233,-0.457 0.265,-0.464 0.299,-0.464C0.357,-0.464 0.407,-0.443 0.448,-0.4C0.49,-0.357 0.51,-0.301 0.51,-0.232C0.51,-0.188 0.501,-0.146 0.481,-0.107C0.462,-0.069 0.435,-0.039 0.401,-0.019C0.368,0.002 0.329,0.012 0.286,0.012C0.213,0.012 0.153,-0.015 0.107,-0.069C0.061,-0.122 0.038,-0.211 0.038,-0.335C0.038,-0.473 0.063,-0.574 0.114,-0.637C0.159,-0.691 0.219,-0.719 0.294,-0.719C0.351,-0.719 0.397,-0.703 0.433,-0.671C0.469,-0.64 0.49,-0.596 0.498,-0.541ZM0.139,-0.232C0.139,-0.202 0.145,-0.173 0.158,-0.145C0.171,-0.117 0.189,-0.096 0.212,-0.082C0.235,-0.067 0.259,-0.06 0.285,-0.06C0.322,-0.06 0.354,-0.075 0.38,-0.105C0.407,-0.135 0.42,-0.176 0.42,-0.227C0.42,-0.277 0.407,-0.316 0.381,-0.344C0.354,-0.372 0.321,-0.387 0.281,-0.387C0.242,-0.387 0.208,-0.372 0.18,-0.344C0.153,-0.316 0.139,-0.278 0.139,-0.232Z" style="fill-rule:nonzero;"/>
        </g>
        <g transform="matrix(12.5,0,0,12.5,93.4004,18.9539)">
            <path d="M0.503,-0.084L0.503,-0L0.03,-0C0.03,-0.021 0.033,-0.042 0.041,-0.061C0.053,-0.093 0.072,-0.125 0.098,-0.156C0.125,-0.188 0.163,-0.224 0.213,-0.265C0.291,-0.328 0.344,-0.379 0.371,-0.416C0.398,-0.454 0.412,-0.489 0.412,-0.522C0.412,-0.557 0.4,-0.586 0.375,-0.61C0.35,-0.634 0.317,-0.646 0.277,-0.646C0.235,-0.646 0.201,-0.633 0.176,-0.608C0.15,-0.583 0.138,-0.547 0.137,-0.502L0.047,-0.512C0.053,-0.579 0.076,-0.63 0.117,-0.666C0.157,-0.701 0.211,-0.719 0.279,-0.719C0.348,-0.719 0.402,-0.7 0.442,-0.662C0.482,-0.624 0.502,-0.576 0.502,-0.52C0.502,-0.491 0.497,-0.463 0.485,-0.436C0.473,-0.408 0.454,-0.379 0.427,-0.348C0.399,-0.318 0.354,-0.276 0.291,-0.222C0.238,-0.178 0.204,-0.148 0.189,-0.132C0.174,-0.116 0.162,-0.1 0.152,-0.084L0.503,-0.084Z" style="fill-rule:nonzero;"/>
        </g>
    </g>
    <g transform="matrix(1,0,0,1,0,10)">
        <g transform="matrix(39.5833,0,0,39.5833,21.7814,54.2059)">
            <path d="M0.084,-0.173L0.013,-0.092C0.089,-0.027 0.18,0.006 0.285,0.006C0.448,0.004 0.532,-0.065 0.535,-0.201C0.535,-0.252 0.519,-0.296 0.488,-0.334C0.456,-0.373 0.407,-0.397 0.34,-0.406C0.306,-0.41 0.279,-0.414 0.26,-0.417C0.225,-0.424 0.199,-0.435 0.183,-0.452C0.167,-0.469 0.159,-0.487 0.159,-0.508C0.16,-0.542 0.172,-0.568 0.195,-0.585C0.217,-0.602 0.245,-0.61 0.278,-0.61C0.342,-0.609 0.401,-0.59 0.454,-0.555L0.514,-0.644C0.449,-0.691 0.372,-0.716 0.283,-0.718C0.21,-0.717 0.153,-0.698 0.113,-0.66C0.071,-0.622 0.051,-0.572 0.051,-0.51C0.051,-0.458 0.067,-0.414 0.1,-0.378C0.132,-0.343 0.179,-0.32 0.24,-0.31C0.274,-0.305 0.305,-0.301 0.334,-0.297C0.396,-0.286 0.427,-0.254 0.427,-0.201C0.425,-0.136 0.379,-0.103 0.286,-0.102C0.208,-0.103 0.141,-0.126 0.084,-0.173Z" style="fill-rule:nonzero;"/>
        </g>
        <g transform="matrix(39.5833,0,0,39.5833,44.4916,54.2059)">
            <path d="M0.072,-0L0.174,-0L0.174,-0.302C0.174,-0.337 0.184,-0.364 0.203,-0.383C0.222,-0.402 0.246,-0.411 0.275,-0.411C0.304,-0.411 0.328,-0.402 0.347,-0.383C0.366,-0.364 0.375,-0.337 0.375,-0.302L0.375,-0L0.477,-0L0.477,-0.302C0.477,-0.337 0.487,-0.364 0.506,-0.383C0.525,-0.402 0.549,-0.411 0.578,-0.411C0.607,-0.411 0.631,-0.402 0.65,-0.383C0.668,-0.364 0.678,-0.337 0.678,-0.302L0.678,-0L0.78,-0L0.78,-0.337C0.778,-0.395 0.761,-0.439 0.726,-0.469C0.691,-0.498 0.653,-0.513 0.611,-0.513C0.544,-0.514 0.491,-0.492 0.451,-0.447C0.434,-0.466 0.414,-0.482 0.393,-0.495C0.372,-0.507 0.343,-0.513 0.308,-0.513C0.253,-0.513 0.209,-0.493 0.176,-0.453L0.174,-0.453L0.174,-0.507L0.072,-0.507L0.072,-0Z" style="fill-rule:nonzero;"/>
        </g>
    </g>
</svg>
