<?xml version="1.0" encoding="UTF-8" standalone="no"?>
<!DOCTYPE svg PUBLIC "-//W3C//DTD SVG 1.1//EN" "http://www.w3.org/Graphics/SVG/1.1/DTD/svg11.dtd">
<svg width="100%" height="100%" viewBox="0 0 100 100" version="1.1" xmlns="http://www.w3.org/2000/svg" xmlns:xlink="http://www.w3.org/1999/xlink" xml:space="preserve" xmlns:serif="http://www.serif.com/" style="fill-rule:evenodd;clip-rule:evenodd;stroke-linecap:round;stroke-linejoin:round;stroke-miterlimit:1.5;">
    <g transform="matrix(1.125,0,0,1.125,-6.25,-6.25)">
        <path d="M90,18L90,82C90,86.415 86.415,90 82,90L18,90C13.585,90 10,86.415 10,82L10,18C10,13.585 13.585,10 18,10L82,10C86.415,10 90,13.585 90,18Z" style="fill:rgb(148,242,13);stroke:black;stroke-width:1.78px;"/>
    </g>
    <g transform="matrix(1,0,0,1,-10.3523,8.88178e-16)">
        <g transform="matrix(12.5,0,0,12.5,86.4485,18.9539)">
            <path d="M0.055,-0.166L0.139,-0.173C0.146,-0.134 0.16,-0.105 0.18,-0.087C0.2,-0.069 0.226,-0.06 0.258,-0.06C0.285,-0.06 0.309,-0.066 0.329,-0.079C0.349,-0.091 0.366,-0.108 0.379,-0.128C0.392,-0.149 0.403,-0.177 0.412,-0.212C0.42,-0.247 0.425,-0.283 0.425,-0.319C0.425,-0.323 0.425,-0.329 0.424,-0.337C0.407,-0.309 0.383,-0.286 0.352,-0.269C0.322,-0.251 0.289,-0.243 0.253,-0.243C0.194,-0.243 0.144,-0.264 0.103,-0.307C0.062,-0.35 0.042,-0.407 0.042,-0.477C0.042,-0.55 0.063,-0.608 0.106,-0.652C0.149,-0.697 0.202,-0.719 0.267,-0.719C0.313,-0.719 0.356,-0.706 0.394,-0.681C0.433,-0.656 0.462,-0.62 0.482,-0.574C0.502,-0.528 0.512,-0.46 0.512,-0.373C0.512,-0.281 0.502,-0.208 0.482,-0.154C0.463,-0.1 0.433,-0.059 0.394,-0.03C0.355,-0.002 0.309,0.012 0.256,0.012C0.2,0.012 0.154,-0.003 0.119,-0.034C0.083,-0.066 0.062,-0.109 0.055,-0.166ZM0.415,-0.481C0.415,-0.532 0.401,-0.572 0.374,-0.602C0.347,-0.631 0.315,-0.646 0.277,-0.646C0.238,-0.646 0.204,-0.63 0.175,-0.598C0.146,-0.566 0.132,-0.525 0.132,-0.474C0.132,-0.429 0.146,-0.392 0.173,-0.363C0.201,-0.335 0.235,-0.32 0.275,-0.32C0.316,-0.32 0.349,-0.335 0.375,-0.363C0.401,-0.392 0.415,-0.431 0.415,-0.481Z" style="fill-rule:nonzero;"/>
        </g>
        <g transform="matrix(12.5,0,0,12.5,93.4004,18.9539)">
            <path d="M0.047,-0.622L0.047,-0.707L0.511,-0.707L0.511,-0.638C0.465,-0.59 0.42,-0.525 0.375,-0.445C0.33,-0.364 0.296,-0.282 0.271,-0.197C0.254,-0.137 0.243,-0.071 0.238,-0L0.147,-0C0.148,-0.056 0.16,-0.124 0.181,-0.204C0.202,-0.284 0.232,-0.361 0.272,-0.435C0.311,-0.509 0.353,-0.571 0.398,-0.622L0.047,-0.622Z" style="fill-rule:nonzero;"/>
        </g>
    </g>
    <g transform="matrix(1,0,0,1,0,10)">
        <g transform="matrix(39.5833,0,0,39.5833,27.6571,54.2059)">
            <path d="M0.075,-0L0.375,-0C0.431,-0 0.478,-0.019 0.515,-0.056C0.553,-0.092 0.572,-0.141 0.573,-0.202C0.573,-0.239 0.563,-0.274 0.545,-0.305C0.525,-0.336 0.496,-0.356 0.457,-0.366L0.457,-0.368C0.478,-0.378 0.495,-0.389 0.509,-0.401C0.523,-0.412 0.534,-0.424 0.541,-0.437C0.556,-0.464 0.563,-0.492 0.562,-0.521C0.562,-0.578 0.544,-0.624 0.509,-0.659C0.474,-0.694 0.421,-0.711 0.351,-0.712L0.075,-0.712L0.075,-0ZM0.349,-0.316C0.389,-0.315 0.418,-0.305 0.437,-0.284C0.456,-0.263 0.465,-0.238 0.465,-0.209C0.465,-0.18 0.456,-0.156 0.437,-0.135C0.418,-0.114 0.389,-0.103 0.349,-0.102L0.183,-0.102L0.183,-0.316L0.349,-0.316ZM0.339,-0.616C0.378,-0.615 0.407,-0.605 0.426,-0.587C0.445,-0.567 0.454,-0.543 0.454,-0.514C0.454,-0.486 0.445,-0.462 0.426,-0.443C0.407,-0.422 0.378,-0.412 0.339,-0.412L0.183,-0.412L0.183,-0.616L0.339,-0.616Z" style="fill-rule:nonzero;"/>
        </g>
        <g transform="matrix(39.5833,0,0,39.5833,51.7975,54.2059)">
            <path d="M0.066,-0L0.168,-0L0.168,-0.146L0.248,-0.237L0.383,-0L0.511,-0L0.312,-0.309L0.487,-0.507L0.365,-0.507L0.17,-0.269L0.168,-0.269L0.168,-0.712L0.066,-0.712L0.066,-0Z" style="fill-rule:nonzero;"/>
        </g>
    </g>
</svg>
