<?xml version="1.0" encoding="UTF-8" standalone="no"?>
<!DOCTYPE svg PUBLIC "-//W3C//DTD SVG 1.1//EN" "http://www.w3.org/Graphics/SVG/1.1/DTD/svg11.dtd">
<svg width="100%" height="100%" viewBox="0 0 100 100" version="1.1" xmlns="http://www.w3.org/2000/svg" xmlns:xlink="http://www.w3.org/1999/xlink" xml:space="preserve" xmlns:serif="http://www.serif.com/" style="fill-rule:evenodd;clip-rule:evenodd;stroke-linecap:round;stroke-linejoin:round;stroke-miterlimit:1.5;">
    <g transform="matrix(1.125,0,0,1.125,-6.25,-6.25)">
        <path d="M90,18L90,82C90,86.415 86.415,90 82,90L18,90C13.585,90 10,86.415 10,82L10,18C10,13.585 13.585,10 18,10L82,10C86.415,10 90,13.585 90,18Z" style="fill:rgb(13,242,121);stroke:black;stroke-width:1.78px;"/>
    </g>
    <g transform="matrix(1,0,0,1,-10.3523,8.88178e-16)">
        <g transform="matrix(12.5,0,0,12.5,86.4485,18.9539)">
            <path d="M0.177,-0.388C0.14,-0.402 0.113,-0.421 0.096,-0.445C0.078,-0.47 0.069,-0.5 0.069,-0.534C0.069,-0.586 0.088,-0.63 0.125,-0.666C0.163,-0.701 0.213,-0.719 0.275,-0.719C0.337,-0.719 0.388,-0.701 0.426,-0.664C0.464,-0.628 0.483,-0.584 0.483,-0.532C0.483,-0.499 0.474,-0.47 0.457,-0.445C0.439,-0.42 0.413,-0.402 0.377,-0.388C0.421,-0.374 0.455,-0.351 0.478,-0.319C0.501,-0.287 0.512,-0.249 0.512,-0.205C0.512,-0.143 0.491,-0.092 0.447,-0.05C0.404,-0.009 0.347,0.012 0.276,0.012C0.206,0.012 0.149,-0.009 0.105,-0.051C0.062,-0.092 0.041,-0.145 0.041,-0.207C0.041,-0.254 0.052,-0.293 0.076,-0.324C0.1,-0.355 0.133,-0.377 0.177,-0.388ZM0.159,-0.537C0.159,-0.503 0.17,-0.476 0.192,-0.454C0.214,-0.433 0.242,-0.422 0.277,-0.422C0.311,-0.422 0.338,-0.433 0.36,-0.454C0.382,-0.475 0.393,-0.501 0.393,-0.532C0.393,-0.564 0.381,-0.592 0.359,-0.614C0.337,-0.635 0.309,-0.646 0.276,-0.646C0.242,-0.646 0.215,-0.636 0.192,-0.614C0.17,-0.593 0.159,-0.567 0.159,-0.537ZM0.131,-0.207C0.131,-0.181 0.137,-0.157 0.149,-0.134C0.161,-0.11 0.178,-0.092 0.202,-0.079C0.225,-0.066 0.25,-0.06 0.277,-0.06C0.319,-0.06 0.354,-0.074 0.381,-0.101C0.409,-0.128 0.422,-0.162 0.422,-0.204C0.422,-0.246 0.408,-0.281 0.38,-0.309C0.352,-0.336 0.317,-0.35 0.274,-0.35C0.233,-0.35 0.199,-0.336 0.172,-0.309C0.144,-0.282 0.131,-0.248 0.131,-0.207Z" style="fill-rule:nonzero;"/>
        </g>
        <g transform="matrix(12.5,0,0,12.5,93.4004,18.9539)">
            <path d="M0.042,-0.188L0.134,-0.195C0.141,-0.15 0.156,-0.117 0.181,-0.094C0.206,-0.071 0.236,-0.06 0.271,-0.06C0.314,-0.06 0.35,-0.076 0.379,-0.108C0.408,-0.14 0.423,-0.182 0.423,-0.235C0.423,-0.285 0.409,-0.325 0.381,-0.354C0.352,-0.382 0.316,-0.397 0.27,-0.397C0.242,-0.397 0.216,-0.391 0.193,-0.378C0.171,-0.365 0.153,-0.348 0.14,-0.328L0.057,-0.338L0.126,-0.706L0.482,-0.706L0.482,-0.622L0.197,-0.622L0.158,-0.43C0.201,-0.46 0.246,-0.475 0.293,-0.475C0.356,-0.475 0.409,-0.453 0.452,-0.41C0.495,-0.366 0.516,-0.311 0.516,-0.243C0.516,-0.178 0.497,-0.122 0.459,-0.075C0.414,-0.017 0.351,0.012 0.271,0.012C0.206,0.012 0.153,-0.006 0.112,-0.042C0.071,-0.079 0.047,-0.127 0.042,-0.188Z" style="fill-rule:nonzero;"/>
        </g>
    </g>
    <g transform="matrix(1,0,0,1,0,10)">
        <g transform="matrix(39.5833,0,0,39.5833,32.431,54.2059)">
            <path d="M0.201,-0.255L0.304,-0.566L0.306,-0.566L0.409,-0.255L0.201,-0.255ZM0.495,-0L0.609,-0L0.35,-0.712L0.26,-0.712L0.001,-0L0.115,-0L0.17,-0.159L0.44,-0.159L0.495,-0Z" style="fill-rule:nonzero;"/>
        </g>
        <g transform="matrix(39.5833,0,0,39.5833,56.5715,54.2059)">
            <path d="M0.072,-0.507L0.021,-0.507L0.021,-0.429L0.072,-0.429L0.072,-0.125C0.072,-0.085 0.083,-0.054 0.107,-0.033C0.13,-0.011 0.159,-0 0.195,-0L0.248,-0L0.248,-0.096L0.21,-0.096C0.185,-0.096 0.173,-0.108 0.174,-0.134L0.174,-0.429L0.248,-0.429L0.248,-0.507L0.174,-0.507L0.174,-0.661L0.072,-0.661L0.072,-0.507Z" style="fill-rule:nonzero;"/>
        </g>
    </g>
</svg>
