<?xml version="1.0" encoding="UTF-8" standalone="no"?>
<!DOCTYPE svg PUBLIC "-//W3C//DTD SVG 1.1//EN" "http://www.w3.org/Graphics/SVG/1.1/DTD/svg11.dtd">
<svg width="100%" height="100%" viewBox="0 0 100 100" version="1.1" xmlns="http://www.w3.org/2000/svg" xmlns:xlink="http://www.w3.org/1999/xlink" xml:space="preserve" xmlns:serif="http://www.serif.com/" style="fill-rule:evenodd;clip-rule:evenodd;stroke-linecap:round;stroke-linejoin:round;stroke-miterlimit:1.5;">
    <g transform="matrix(1.125,0,0,1.125,-6.25,-6.25)">
        <path d="M90,18L90,82C90,86.415 86.415,90 82,90L18,90C13.585,90 10,86.415 10,82L10,18C10,13.585 13.585,10 18,10L82,10C86.415,10 90,13.585 90,18Z" style="fill:rgb(242,94,13);stroke:black;stroke-width:1.78px;"/>
    </g>
    <g transform="matrix(1,0,0,1,-10.3523,8.88178e-16)">
        <g transform="matrix(12.5,0,0,12.5,86.4485,18.9539)">
            <path d="M0.042,-0.189L0.13,-0.201C0.14,-0.151 0.157,-0.115 0.181,-0.093C0.206,-0.071 0.235,-0.06 0.27,-0.06C0.311,-0.06 0.346,-0.074 0.375,-0.103C0.403,-0.132 0.417,-0.167 0.417,-0.209C0.417,-0.25 0.404,-0.283 0.378,-0.309C0.352,-0.336 0.318,-0.349 0.277,-0.349C0.261,-0.349 0.24,-0.345 0.215,-0.339L0.225,-0.416C0.231,-0.415 0.236,-0.415 0.239,-0.415C0.277,-0.415 0.31,-0.425 0.34,-0.444C0.37,-0.464 0.385,-0.494 0.385,-0.535C0.385,-0.567 0.374,-0.594 0.353,-0.615C0.331,-0.636 0.303,-0.646 0.268,-0.646C0.234,-0.646 0.205,-0.636 0.183,-0.614C0.16,-0.593 0.145,-0.561 0.139,-0.518L0.051,-0.533C0.062,-0.592 0.086,-0.638 0.124,-0.67C0.162,-0.703 0.209,-0.719 0.266,-0.719C0.305,-0.719 0.341,-0.71 0.374,-0.694C0.407,-0.677 0.432,-0.654 0.449,-0.625C0.467,-0.596 0.476,-0.565 0.476,-0.533C0.476,-0.502 0.467,-0.474 0.451,-0.448C0.434,-0.423 0.41,-0.403 0.377,-0.388C0.419,-0.378 0.452,-0.358 0.476,-0.327C0.499,-0.296 0.511,-0.258 0.511,-0.211C0.511,-0.149 0.488,-0.096 0.442,-0.052C0.397,-0.009 0.339,0.013 0.27,0.013C0.207,0.013 0.155,-0.006 0.113,-0.043C0.072,-0.081 0.048,-0.129 0.042,-0.189Z" style="fill-rule:nonzero;"/>
        </g>
        <g transform="matrix(12.5,0,0,12.5,93.4004,18.9539)">
            <path d="M0.047,-0.622L0.047,-0.707L0.511,-0.707L0.511,-0.638C0.465,-0.59 0.42,-0.525 0.375,-0.445C0.33,-0.364 0.296,-0.282 0.271,-0.197C0.254,-0.137 0.243,-0.071 0.238,-0L0.147,-0C0.148,-0.056 0.16,-0.124 0.181,-0.204C0.202,-0.284 0.232,-0.361 0.272,-0.435C0.311,-0.509 0.353,-0.571 0.398,-0.622L0.047,-0.622Z" style="fill-rule:nonzero;"/>
        </g>
    </g>
    <g transform="matrix(1,0,0,1,0,10)">
        <g transform="matrix(39.5833,0,0,39.5833,27.6571,54.2059)">
            <path d="M0.183,-0.616L0.352,-0.616C0.387,-0.616 0.413,-0.608 0.431,-0.594C0.454,-0.577 0.466,-0.55 0.467,-0.513C0.467,-0.482 0.457,-0.456 0.437,-0.435C0.417,-0.412 0.387,-0.401 0.346,-0.4L0.183,-0.4L0.183,-0.616ZM0.075,-0L0.183,-0L0.183,-0.304L0.321,-0.304L0.468,-0L0.596,-0L0.431,-0.316C0.522,-0.351 0.568,-0.417 0.569,-0.513C0.567,-0.579 0.543,-0.63 0.498,-0.665C0.461,-0.696 0.412,-0.712 0.353,-0.712L0.075,-0.712L0.075,-0Z" style="fill-rule:nonzero;"/>
        </g>
        <g transform="matrix(39.5833,0,0,39.5833,51.7975,54.2059)">
            <path d="M0.066,-0L0.168,-0L0.168,-0.053C0.202,-0.015 0.245,0.005 0.299,0.006C0.33,0.005 0.357,-0.001 0.38,-0.013C0.403,-0.025 0.421,-0.041 0.435,-0.06C0.449,-0.076 0.459,-0.098 0.464,-0.125C0.469,-0.151 0.471,-0.194 0.471,-0.254C0.471,-0.315 0.469,-0.358 0.464,-0.384C0.459,-0.41 0.449,-0.431 0.435,-0.447C0.406,-0.489 0.361,-0.512 0.299,-0.513C0.273,-0.513 0.25,-0.508 0.229,-0.497C0.207,-0.486 0.187,-0.471 0.168,-0.453L0.168,-0.712L0.066,-0.712L0.066,-0ZM0.268,-0.411C0.292,-0.411 0.311,-0.407 0.325,-0.399C0.339,-0.39 0.349,-0.378 0.355,-0.363C0.361,-0.347 0.366,-0.331 0.368,-0.313C0.369,-0.294 0.369,-0.274 0.369,-0.254C0.369,-0.235 0.369,-0.216 0.368,-0.198C0.366,-0.179 0.361,-0.161 0.355,-0.146C0.349,-0.131 0.339,-0.119 0.325,-0.11C0.311,-0.101 0.292,-0.096 0.268,-0.096C0.245,-0.096 0.227,-0.101 0.214,-0.111C0.2,-0.12 0.19,-0.133 0.183,-0.148C0.177,-0.163 0.173,-0.18 0.171,-0.199C0.169,-0.218 0.168,-0.236 0.168,-0.254C0.168,-0.273 0.169,-0.292 0.171,-0.31C0.173,-0.328 0.177,-0.345 0.183,-0.36C0.19,-0.375 0.2,-0.388 0.214,-0.397C0.227,-0.406 0.245,-0.411 0.268,-0.411Z" style="fill-rule:nonzero;"/>
        </g>
    </g>
</svg>
