<?xml version="1.0" encoding="UTF-8" standalone="no"?>
<!DOCTYPE svg PUBLIC "-//W3C//DTD SVG 1.1//EN" "http://www.w3.org/Graphics/SVG/1.1/DTD/svg11.dtd">
<svg width="100%" height="100%" viewBox="0 0 100 100" version="1.1" xmlns="http://www.w3.org/2000/svg" xmlns:xlink="http://www.w3.org/1999/xlink" xml:space="preserve" xmlns:serif="http://www.serif.com/" style="fill-rule:evenodd;clip-rule:evenodd;stroke-linecap:round;stroke-linejoin:round;stroke-miterlimit:1.5;">
    <g transform="matrix(1.125,0,0,1.125,-6.25,-6.25)">
        <path d="M90,18L90,82C90,86.415 86.415,90 82,90L18,90C13.585,90 10,86.415 10,82L10,18C10,13.585 13.585,10 18,10L82,10C86.415,10 90,13.585 90,18Z" style="fill:rgb(229,242,13);stroke:black;stroke-width:1.78px;"/>
    </g>
    <g transform="matrix(1,0,0,1,-10.3523,8.88178e-16)">
        <g transform="matrix(12.5,0,0,12.5,86.4485,18.9539)">
            <path d="M0.323,-0L0.323,-0.171L0.013,-0.171L0.013,-0.252L0.339,-0.716L0.411,-0.716L0.411,-0.252L0.508,-0.252L0.508,-0.171L0.411,-0.171L0.411,-0L0.323,-0ZM0.323,-0.252L0.323,-0.575L0.099,-0.252L0.323,-0.252Z" style="fill-rule:nonzero;"/>
        </g>
        <g transform="matrix(12.5,0,0,12.5,93.4004,18.9539)">
            <path d="M0.498,-0.541L0.41,-0.534C0.402,-0.568 0.391,-0.593 0.377,-0.609C0.353,-0.634 0.324,-0.646 0.289,-0.646C0.261,-0.646 0.236,-0.639 0.215,-0.623C0.188,-0.603 0.166,-0.573 0.15,-0.535C0.134,-0.496 0.126,-0.441 0.125,-0.369C0.146,-0.401 0.172,-0.425 0.203,-0.441C0.233,-0.457 0.265,-0.464 0.299,-0.464C0.357,-0.464 0.407,-0.443 0.448,-0.4C0.49,-0.357 0.51,-0.301 0.51,-0.232C0.51,-0.188 0.501,-0.146 0.481,-0.107C0.462,-0.069 0.435,-0.039 0.401,-0.019C0.368,0.002 0.329,0.012 0.286,0.012C0.213,0.012 0.153,-0.015 0.107,-0.069C0.061,-0.122 0.038,-0.211 0.038,-0.335C0.038,-0.473 0.063,-0.574 0.114,-0.637C0.159,-0.691 0.219,-0.719 0.294,-0.719C0.351,-0.719 0.397,-0.703 0.433,-0.671C0.469,-0.64 0.49,-0.596 0.498,-0.541ZM0.139,-0.232C0.139,-0.202 0.145,-0.173 0.158,-0.145C0.171,-0.117 0.189,-0.096 0.212,-0.082C0.235,-0.067 0.259,-0.06 0.285,-0.06C0.322,-0.06 0.354,-0.075 0.38,-0.105C0.407,-0.135 0.42,-0.176 0.42,-0.227C0.42,-0.277 0.407,-0.316 0.381,-0.344C0.354,-0.372 0.321,-0.387 0.281,-0.387C0.242,-0.387 0.208,-0.372 0.18,-0.344C0.153,-0.316 0.139,-0.278 0.139,-0.232Z" style="fill-rule:nonzero;"/>
        </g>
    </g>
    <g transform="matrix(1,0,0,1,0,10)">
        <g transform="matrix(39.5833,0,0,39.5833,27.9953,54.2059)">
            <path d="M0.183,-0.61L0.339,-0.61C0.368,-0.611 0.394,-0.604 0.416,-0.59C0.431,-0.581 0.442,-0.57 0.45,-0.555C0.458,-0.539 0.462,-0.519 0.462,-0.495C0.462,-0.466 0.452,-0.44 0.433,-0.417C0.413,-0.393 0.383,-0.381 0.343,-0.38L0.183,-0.38L0.183,-0.61ZM0.075,-0L0.183,-0L0.183,-0.278L0.347,-0.278C0.42,-0.279 0.476,-0.303 0.514,-0.348C0.551,-0.391 0.57,-0.439 0.57,-0.492C0.57,-0.531 0.563,-0.565 0.548,-0.594C0.534,-0.623 0.516,-0.646 0.493,-0.662C0.466,-0.683 0.44,-0.697 0.414,-0.704C0.388,-0.709 0.361,-0.712 0.333,-0.712L0.075,-0.712L0.075,-0Z" style="fill-rule:nonzero;"/>
        </g>
        <g transform="matrix(39.5833,0,0,39.5833,51.4592,54.2059)">
            <path d="M0.369,-0.053L0.369,-0L0.471,-0L0.471,-0.712L0.369,-0.712L0.369,-0.453C0.35,-0.471 0.331,-0.486 0.31,-0.497C0.288,-0.508 0.264,-0.513 0.238,-0.513C0.176,-0.512 0.131,-0.489 0.102,-0.447C0.088,-0.431 0.079,-0.41 0.074,-0.384C0.069,-0.358 0.066,-0.315 0.066,-0.254C0.066,-0.194 0.069,-0.151 0.074,-0.125C0.079,-0.098 0.088,-0.076 0.102,-0.06C0.117,-0.041 0.136,-0.025 0.159,-0.013C0.181,-0.001 0.207,0.005 0.238,0.006C0.292,0.005 0.336,-0.015 0.369,-0.053ZM0.269,-0.411C0.293,-0.411 0.312,-0.406 0.326,-0.397C0.34,-0.388 0.35,-0.375 0.355,-0.36C0.361,-0.345 0.366,-0.328 0.368,-0.31C0.369,-0.292 0.369,-0.273 0.369,-0.254C0.369,-0.236 0.369,-0.218 0.368,-0.199C0.366,-0.18 0.361,-0.163 0.355,-0.148C0.35,-0.133 0.34,-0.12 0.326,-0.111C0.312,-0.101 0.293,-0.096 0.269,-0.096C0.245,-0.096 0.227,-0.101 0.214,-0.11C0.2,-0.119 0.19,-0.131 0.183,-0.146C0.177,-0.161 0.173,-0.179 0.171,-0.198C0.169,-0.216 0.168,-0.235 0.168,-0.254C0.168,-0.274 0.169,-0.294 0.171,-0.313C0.173,-0.331 0.177,-0.347 0.183,-0.363C0.19,-0.378 0.2,-0.39 0.214,-0.399C0.227,-0.407 0.245,-0.411 0.269,-0.411Z" style="fill-rule:nonzero;"/>
        </g>
    </g>
</svg>
