<?xml version="1.0" encoding="UTF-8" standalone="no"?>
<!DOCTYPE svg PUBLIC "-//W3C//DTD SVG 1.1//EN" "http://www.w3.org/Graphics/SVG/1.1/DTD/svg11.dtd">
<svg width="100%" height="100%" viewBox="0 0 100 100" version="1.1" xmlns="http://www.w3.org/2000/svg" xmlns:xlink="http://www.w3.org/1999/xlink" xml:space="preserve" xmlns:serif="http://www.serif.com/" style="fill-rule:evenodd;clip-rule:evenodd;stroke-linecap:round;stroke-linejoin:round;stroke-miterlimit:1.5;">
    <g transform="matrix(1.125,0,0,1.125,-6.25,-6.25)">
        <path d="M90,18L90,82C90,86.415 86.415,90 82,90L18,90C13.585,90 10,86.415 10,82L10,18C10,13.585 13.585,10 18,10L82,10C86.415,10 90,13.585 90,18Z" style="fill:rgb(223,132,82);stroke:black;stroke-width:1.78px;"/>
    </g>
    <g transform="matrix(1,0,0,1,-10.3523,8.88178e-16)">
        <g transform="matrix(12.5,0,0,12.5,86.4485,18.9539)">
            <path d="M0.042,-0.189L0.13,-0.201C0.14,-0.151 0.157,-0.115 0.181,-0.093C0.206,-0.071 0.235,-0.06 0.27,-0.06C0.311,-0.06 0.346,-0.074 0.375,-0.103C0.403,-0.132 0.417,-0.167 0.417,-0.209C0.417,-0.25 0.404,-0.283 0.378,-0.309C0.352,-0.336 0.318,-0.349 0.277,-0.349C0.261,-0.349 0.24,-0.345 0.215,-0.339L0.225,-0.416C0.231,-0.415 0.236,-0.415 0.239,-0.415C0.277,-0.415 0.31,-0.425 0.34,-0.444C0.37,-0.464 0.385,-0.494 0.385,-0.535C0.385,-0.567 0.374,-0.594 0.353,-0.615C0.331,-0.636 0.303,-0.646 0.268,-0.646C0.234,-0.646 0.205,-0.636 0.183,-0.614C0.16,-0.593 0.145,-0.561 0.139,-0.518L0.051,-0.533C0.062,-0.592 0.086,-0.638 0.124,-0.67C0.162,-0.703 0.209,-0.719 0.266,-0.719C0.305,-0.719 0.341,-0.71 0.374,-0.694C0.407,-0.677 0.432,-0.654 0.449,-0.625C0.467,-0.596 0.476,-0.565 0.476,-0.533C0.476,-0.502 0.467,-0.474 0.451,-0.448C0.434,-0.423 0.41,-0.403 0.377,-0.388C0.419,-0.378 0.452,-0.358 0.476,-0.327C0.499,-0.296 0.511,-0.258 0.511,-0.211C0.511,-0.149 0.488,-0.096 0.442,-0.052C0.397,-0.009 0.339,0.013 0.27,0.013C0.207,0.013 0.155,-0.006 0.113,-0.043C0.072,-0.081 0.048,-0.129 0.042,-0.189Z" style="fill-rule:nonzero;"/>
        </g>
        <g transform="matrix(12.5,0,0,12.5,93.4004,18.9539)">
            <path d="M0.373,-0L0.285,-0L0.285,-0.56C0.264,-0.54 0.236,-0.52 0.201,-0.5C0.167,-0.479 0.136,-0.464 0.109,-0.454L0.109,-0.539C0.158,-0.562 0.201,-0.59 0.238,-0.623C0.275,-0.656 0.301,-0.688 0.316,-0.719L0.373,-0.719L0.373,-0Z" style="fill-rule:nonzero;"/>
        </g>
    </g>
    <g transform="matrix(1,0,0,1,0,10)">
        <g transform="matrix(39.5833,0,0,39.5833,28.034,54.2059)">
            <path d="M0.306,-0.29L0.451,-0.29L0.451,-0.253C0.451,-0.208 0.437,-0.172 0.409,-0.145C0.382,-0.116 0.347,-0.102 0.305,-0.102C0.28,-0.102 0.258,-0.107 0.24,-0.118C0.221,-0.127 0.206,-0.139 0.195,-0.154C0.181,-0.169 0.172,-0.189 0.167,-0.214C0.162,-0.239 0.159,-0.286 0.159,-0.356C0.159,-0.426 0.162,-0.474 0.167,-0.499C0.172,-0.523 0.181,-0.543 0.195,-0.558C0.206,-0.573 0.221,-0.585 0.24,-0.595C0.258,-0.604 0.28,-0.609 0.305,-0.61C0.34,-0.609 0.369,-0.599 0.393,-0.58C0.416,-0.56 0.432,-0.535 0.441,-0.507L0.555,-0.507C0.544,-0.566 0.516,-0.616 0.473,-0.657C0.43,-0.697 0.374,-0.717 0.305,-0.718C0.249,-0.717 0.202,-0.704 0.165,-0.678C0.127,-0.652 0.099,-0.623 0.082,-0.59C0.071,-0.573 0.063,-0.55 0.058,-0.522C0.053,-0.494 0.051,-0.439 0.051,-0.356C0.051,-0.275 0.053,-0.22 0.058,-0.191C0.061,-0.176 0.064,-0.163 0.068,-0.153C0.072,-0.143 0.077,-0.133 0.082,-0.122C0.099,-0.089 0.127,-0.06 0.165,-0.035C0.202,-0.009 0.249,0.005 0.305,0.006C0.378,0.005 0.438,-0.02 0.486,-0.068C0.533,-0.116 0.558,-0.176 0.559,-0.247L0.559,-0.392L0.306,-0.392L0.306,-0.29Z" style="fill-rule:nonzero;"/>
        </g>
        <g transform="matrix(39.5833,0,0,39.5833,52.1744,54.2059)">
            <path d="M0.332,-0L0.434,-0L0.434,-0.346C0.433,-0.408 0.414,-0.452 0.376,-0.477C0.338,-0.502 0.287,-0.514 0.223,-0.513C0.148,-0.514 0.09,-0.49 0.052,-0.439L0.132,-0.378C0.141,-0.393 0.153,-0.403 0.168,-0.409C0.183,-0.414 0.203,-0.417 0.228,-0.417C0.298,-0.418 0.333,-0.397 0.332,-0.352L0.332,-0.299L0.191,-0.299C0.137,-0.298 0.096,-0.284 0.068,-0.255C0.04,-0.227 0.026,-0.192 0.026,-0.149C0.026,-0.104 0.042,-0.068 0.074,-0.039C0.105,-0.01 0.148,0.005 0.205,0.006C0.24,0.006 0.267,0.002 0.286,-0.007C0.306,-0.015 0.321,-0.028 0.33,-0.045L0.332,-0.045L0.332,-0ZM0.332,-0.178C0.332,-0.14 0.324,-0.116 0.308,-0.105C0.291,-0.094 0.26,-0.089 0.218,-0.09C0.184,-0.09 0.16,-0.097 0.145,-0.11C0.13,-0.122 0.122,-0.137 0.122,-0.154C0.121,-0.193 0.151,-0.214 0.21,-0.215L0.332,-0.215L0.332,-0.178Z" style="fill-rule:nonzero;"/>
        </g>
    </g>
</svg>
