<?xml version="1.0" encoding="UTF-8" standalone="no"?>
<!DOCTYPE svg PUBLIC "-//W3C//DTD SVG 1.1//EN" "http://www.w3.org/Graphics/SVG/1.1/DTD/svg11.dtd">
<svg width="100%" height="100%" viewBox="0 0 100 100" version="1.1" xmlns="http://www.w3.org/2000/svg" xmlns:xlink="http://www.w3.org/1999/xlink" xml:space="preserve" xmlns:serif="http://www.serif.com/" style="fill-rule:evenodd;clip-rule:evenodd;stroke-linecap:round;stroke-linejoin:round;stroke-miterlimit:1.5;">
    <g transform="matrix(1.125,0,0,1.125,-6.25,-6.25)">
        <path d="M90,18L90,82C90,86.415 86.415,90 82,90L18,90C13.585,90 10,86.415 10,82L10,18C10,13.585 13.585,10 18,10L82,10C86.415,10 90,13.585 90,18Z" style="fill:rgb(229,242,13);stroke:black;stroke-width:1.78px;"/>
    </g>
    <g transform="matrix(1,0,0,1,-10.3523,8.88178e-16)">
        <g transform="matrix(12.5,0,0,12.5,79.4965,18.9539)">
            <path d="M0.373,-0L0.285,-0L0.285,-0.56C0.264,-0.54 0.236,-0.52 0.201,-0.5C0.167,-0.479 0.136,-0.464 0.109,-0.454L0.109,-0.539C0.158,-0.562 0.201,-0.59 0.238,-0.623C0.275,-0.656 0.301,-0.688 0.316,-0.719L0.373,-0.719L0.373,-0Z" style="fill-rule:nonzero;"/>
        </g>
        <g transform="matrix(12.5,0,0,12.5,86.4485,18.9539)">
            <path d="M0.042,-0.353C0.042,-0.438 0.05,-0.506 0.068,-0.557C0.085,-0.609 0.111,-0.649 0.145,-0.677C0.18,-0.705 0.223,-0.719 0.275,-0.719C0.313,-0.719 0.347,-0.711 0.376,-0.696C0.405,-0.68 0.429,-0.658 0.448,-0.629C0.467,-0.6 0.481,-0.564 0.492,-0.522C0.503,-0.48 0.508,-0.424 0.508,-0.353C0.508,-0.269 0.5,-0.201 0.482,-0.15C0.465,-0.098 0.439,-0.058 0.405,-0.03C0.371,-0.002 0.327,0.012 0.275,0.012C0.206,0.012 0.152,-0.013 0.112,-0.062C0.065,-0.122 0.042,-0.219 0.042,-0.353ZM0.132,-0.353C0.132,-0.236 0.146,-0.157 0.173,-0.118C0.201,-0.08 0.235,-0.06 0.275,-0.06C0.315,-0.06 0.349,-0.08 0.377,-0.119C0.404,-0.158 0.418,-0.236 0.418,-0.353C0.418,-0.471 0.404,-0.549 0.377,-0.588C0.349,-0.627 0.315,-0.646 0.274,-0.646C0.234,-0.646 0.201,-0.629 0.177,-0.595C0.147,-0.551 0.132,-0.471 0.132,-0.353Z" style="fill-rule:nonzero;"/>
        </g>
        <g transform="matrix(12.5,0,0,12.5,93.4004,18.9539)">
            <path d="M0.042,-0.188L0.134,-0.195C0.141,-0.15 0.156,-0.117 0.181,-0.094C0.206,-0.071 0.236,-0.06 0.271,-0.06C0.314,-0.06 0.35,-0.076 0.379,-0.108C0.408,-0.14 0.423,-0.182 0.423,-0.235C0.423,-0.285 0.409,-0.325 0.381,-0.354C0.352,-0.382 0.316,-0.397 0.27,-0.397C0.242,-0.397 0.216,-0.391 0.193,-0.378C0.171,-0.365 0.153,-0.348 0.14,-0.328L0.057,-0.338L0.126,-0.706L0.482,-0.706L0.482,-0.622L0.197,-0.622L0.158,-0.43C0.201,-0.46 0.246,-0.475 0.293,-0.475C0.356,-0.475 0.409,-0.453 0.452,-0.41C0.495,-0.366 0.516,-0.311 0.516,-0.243C0.516,-0.178 0.497,-0.122 0.459,-0.075C0.414,-0.017 0.351,0.012 0.271,0.012C0.206,0.012 0.153,-0.006 0.112,-0.042C0.071,-0.079 0.047,-0.127 0.042,-0.188Z" style="fill-rule:nonzero;"/>
        </g>
    </g>
    <g transform="matrix(1,0,0,1,0,10)">
        <g transform="matrix(39.5833,0,0,39.5833,27.2608,54.2059)">
            <path d="M0.075,-0L0.317,-0C0.37,-0 0.415,-0.012 0.452,-0.035C0.489,-0.057 0.518,-0.085 0.539,-0.118C0.547,-0.131 0.554,-0.143 0.559,-0.155C0.564,-0.167 0.568,-0.181 0.571,-0.196C0.576,-0.226 0.579,-0.279 0.579,-0.356C0.579,-0.428 0.577,-0.479 0.574,-0.508C0.569,-0.537 0.558,-0.565 0.541,-0.592C0.493,-0.671 0.421,-0.711 0.324,-0.712L0.075,-0.712L0.075,-0ZM0.183,-0.61L0.312,-0.61C0.367,-0.611 0.409,-0.591 0.439,-0.55C0.454,-0.533 0.463,-0.512 0.467,-0.485C0.47,-0.458 0.471,-0.414 0.471,-0.352C0.471,-0.289 0.47,-0.245 0.467,-0.222C0.464,-0.199 0.456,-0.179 0.444,-0.164C0.417,-0.123 0.373,-0.102 0.312,-0.102L0.183,-0.102L0.183,-0.61Z" style="fill-rule:nonzero;"/>
        </g>
        <g transform="matrix(39.5833,0,0,39.5833,52.1937,54.2059)">
            <path d="M0.066,-0L0.168,-0L0.168,-0.053C0.202,-0.015 0.245,0.005 0.299,0.006C0.33,0.005 0.357,-0.001 0.38,-0.013C0.403,-0.025 0.421,-0.041 0.435,-0.06C0.449,-0.076 0.459,-0.098 0.464,-0.125C0.469,-0.151 0.471,-0.194 0.471,-0.254C0.471,-0.315 0.469,-0.358 0.464,-0.384C0.459,-0.41 0.449,-0.431 0.435,-0.447C0.406,-0.489 0.361,-0.512 0.299,-0.513C0.273,-0.513 0.25,-0.508 0.229,-0.497C0.207,-0.486 0.187,-0.471 0.168,-0.453L0.168,-0.712L0.066,-0.712L0.066,-0ZM0.268,-0.411C0.292,-0.411 0.311,-0.407 0.325,-0.399C0.339,-0.39 0.349,-0.378 0.355,-0.363C0.361,-0.347 0.366,-0.331 0.368,-0.313C0.369,-0.294 0.369,-0.274 0.369,-0.254C0.369,-0.235 0.369,-0.216 0.368,-0.198C0.366,-0.179 0.361,-0.161 0.355,-0.146C0.349,-0.131 0.339,-0.119 0.325,-0.11C0.311,-0.101 0.292,-0.096 0.268,-0.096C0.245,-0.096 0.227,-0.101 0.214,-0.111C0.2,-0.12 0.19,-0.133 0.183,-0.148C0.177,-0.163 0.173,-0.18 0.171,-0.199C0.169,-0.218 0.168,-0.236 0.168,-0.254C0.168,-0.273 0.169,-0.292 0.171,-0.31C0.173,-0.328 0.177,-0.345 0.183,-0.36C0.19,-0.375 0.2,-0.388 0.214,-0.397C0.227,-0.406 0.245,-0.411 0.268,-0.411Z" style="fill-rule:nonzero;"/>
        </g>
    </g>
</svg>
