<?xml version="1.0" encoding="UTF-8" standalone="no"?>
<!DOCTYPE svg PUBLIC "-//W3C//DTD SVG 1.1//EN" "http://www.w3.org/Graphics/SVG/1.1/DTD/svg11.dtd">
<svg width="100%" height="100%" viewBox="0 0 100 100" version="1.1" xmlns="http://www.w3.org/2000/svg" xmlns:xlink="http://www.w3.org/1999/xlink" xml:space="preserve" xmlns:serif="http://www.serif.com/" style="fill-rule:evenodd;clip-rule:evenodd;stroke-linecap:round;stroke-linejoin:round;stroke-miterlimit:1.5;">
    <g transform="matrix(1.125,0,0,1.125,-6.25,-6.25)">
        <path d="M90,18L90,82C90,86.415 86.415,90 82,90L18,90C13.585,90 10,86.415 10,82L10,18C10,13.585 13.585,10 18,10L82,10C86.415,10 90,13.585 90,18Z" style="fill:rgb(229,242,13);stroke:black;stroke-width:1.78px;"/>
    </g>
    <g transform="matrix(1,0,0,1,-10.3523,8.88178e-16)">
        <g transform="matrix(12.5,0,0,12.5,86.4485,18.9539)">
            <path d="M0.503,-0.084L0.503,-0L0.03,-0C0.03,-0.021 0.033,-0.042 0.041,-0.061C0.053,-0.093 0.072,-0.125 0.098,-0.156C0.125,-0.188 0.163,-0.224 0.213,-0.265C0.291,-0.328 0.344,-0.379 0.371,-0.416C0.398,-0.454 0.412,-0.489 0.412,-0.522C0.412,-0.557 0.4,-0.586 0.375,-0.61C0.35,-0.634 0.317,-0.646 0.277,-0.646C0.235,-0.646 0.201,-0.633 0.176,-0.608C0.15,-0.583 0.138,-0.547 0.137,-0.502L0.047,-0.512C0.053,-0.579 0.076,-0.63 0.117,-0.666C0.157,-0.701 0.211,-0.719 0.279,-0.719C0.348,-0.719 0.402,-0.7 0.442,-0.662C0.482,-0.624 0.502,-0.576 0.502,-0.52C0.502,-0.491 0.497,-0.463 0.485,-0.436C0.473,-0.408 0.454,-0.379 0.427,-0.348C0.399,-0.318 0.354,-0.276 0.291,-0.222C0.238,-0.178 0.204,-0.148 0.189,-0.132C0.174,-0.116 0.162,-0.1 0.152,-0.084L0.503,-0.084Z" style="fill-rule:nonzero;"/>
        </g>
        <g transform="matrix(12.5,0,0,12.5,93.4004,18.9539)">
            <path d="M0.047,-0.622L0.047,-0.707L0.511,-0.707L0.511,-0.638C0.465,-0.59 0.42,-0.525 0.375,-0.445C0.33,-0.364 0.296,-0.282 0.271,-0.197C0.254,-0.137 0.243,-0.071 0.238,-0L0.147,-0C0.148,-0.056 0.16,-0.124 0.181,-0.204C0.202,-0.284 0.232,-0.361 0.272,-0.435C0.311,-0.509 0.353,-0.571 0.398,-0.622L0.047,-0.622Z" style="fill-rule:nonzero;"/>
        </g>
    </g>
    <g transform="matrix(1,0,0,1,0,10)">
        <g transform="matrix(39.5833,0,0,39.5833,29.097,54.2059)">
            <path d="M0.441,-0.199C0.411,-0.134 0.366,-0.102 0.305,-0.102C0.28,-0.102 0.258,-0.107 0.24,-0.118C0.221,-0.127 0.206,-0.139 0.195,-0.154C0.181,-0.169 0.172,-0.189 0.167,-0.214C0.162,-0.239 0.159,-0.286 0.159,-0.356C0.159,-0.426 0.162,-0.474 0.167,-0.499C0.172,-0.523 0.181,-0.543 0.195,-0.558C0.206,-0.573 0.221,-0.585 0.24,-0.595C0.258,-0.604 0.28,-0.609 0.305,-0.61C0.34,-0.609 0.369,-0.599 0.393,-0.58C0.416,-0.56 0.432,-0.535 0.441,-0.507L0.555,-0.507C0.544,-0.566 0.516,-0.616 0.473,-0.657C0.43,-0.697 0.374,-0.717 0.305,-0.718C0.249,-0.717 0.202,-0.704 0.165,-0.678C0.127,-0.652 0.099,-0.623 0.082,-0.59C0.071,-0.573 0.063,-0.55 0.058,-0.522C0.053,-0.494 0.051,-0.439 0.051,-0.356C0.051,-0.275 0.053,-0.22 0.058,-0.191C0.061,-0.176 0.064,-0.163 0.068,-0.153C0.072,-0.143 0.077,-0.133 0.082,-0.122C0.099,-0.089 0.127,-0.06 0.165,-0.035C0.202,-0.009 0.249,0.005 0.305,0.006C0.367,0.006 0.421,-0.012 0.466,-0.047C0.51,-0.082 0.54,-0.133 0.555,-0.199L0.441,-0.199Z" style="fill-rule:nonzero;"/>
        </g>
        <g transform="matrix(39.5833,0,0,39.5833,51.1113,54.2059)">
            <path d="M0.041,-0.254C0.041,-0.201 0.045,-0.16 0.054,-0.132C0.063,-0.104 0.077,-0.08 0.096,-0.059C0.11,-0.043 0.13,-0.029 0.155,-0.016C0.18,-0.002 0.211,0.005 0.25,0.006C0.29,0.005 0.322,-0.002 0.347,-0.016C0.361,-0.022 0.371,-0.029 0.38,-0.037C0.389,-0.044 0.397,-0.052 0.404,-0.059C0.424,-0.08 0.438,-0.104 0.447,-0.132C0.455,-0.16 0.459,-0.201 0.459,-0.254C0.459,-0.307 0.455,-0.348 0.447,-0.377C0.438,-0.405 0.424,-0.429 0.404,-0.448C0.39,-0.465 0.372,-0.48 0.347,-0.493C0.322,-0.506 0.29,-0.513 0.25,-0.513C0.211,-0.513 0.18,-0.506 0.155,-0.493C0.13,-0.48 0.11,-0.465 0.096,-0.448C0.077,-0.429 0.063,-0.405 0.054,-0.377C0.045,-0.348 0.041,-0.307 0.041,-0.254ZM0.357,-0.253C0.357,-0.218 0.355,-0.193 0.352,-0.177C0.349,-0.16 0.342,-0.146 0.332,-0.133C0.325,-0.123 0.313,-0.114 0.299,-0.107C0.285,-0.1 0.269,-0.096 0.25,-0.096C0.233,-0.096 0.217,-0.1 0.202,-0.107C0.188,-0.114 0.177,-0.123 0.168,-0.133C0.159,-0.146 0.153,-0.16 0.149,-0.177C0.145,-0.193 0.143,-0.219 0.143,-0.254C0.143,-0.289 0.145,-0.315 0.149,-0.332C0.153,-0.348 0.159,-0.362 0.168,-0.374C0.177,-0.385 0.188,-0.394 0.202,-0.401C0.217,-0.408 0.233,-0.411 0.25,-0.411C0.269,-0.411 0.285,-0.408 0.299,-0.401C0.313,-0.394 0.325,-0.385 0.332,-0.374C0.342,-0.362 0.349,-0.348 0.352,-0.332C0.355,-0.315 0.357,-0.289 0.357,-0.253Z" style="fill-rule:nonzero;"/>
        </g>
    </g>
</svg>
