<?xml version="1.0" encoding="UTF-8" standalone="no"?>
<!DOCTYPE svg PUBLIC "-//W3C//DTD SVG 1.1//EN" "http://www.w3.org/Graphics/SVG/1.1/DTD/svg11.dtd">
<svg width="100%" height="100%" viewBox="0 0 100 100" version="1.1" xmlns="http://www.w3.org/2000/svg" xmlns:xlink="http://www.w3.org/1999/xlink" xml:space="preserve" xmlns:serif="http://www.serif.com/" style="fill-rule:evenodd;clip-rule:evenodd;stroke-linecap:round;stroke-linejoin:round;stroke-miterlimit:1.5;">
    <g transform="matrix(1.125,0,0,1.125,-6.25,-6.25)">
        <path d="M90,18L90,82C90,86.415 86.415,90 82,90L18,90C13.585,90 10,86.415 10,82L10,18C10,13.585 13.585,10 18,10L82,10C86.415,10 90,13.585 90,18Z" style="fill:rgb(229,242,13);stroke:black;stroke-width:1.78px;"/>
    </g>
    <g transform="matrix(1,0,0,1,-10.3523,8.88178e-16)">
        <g transform="matrix(12.5,0,0,12.5,86.4485,18.9539)">
            <path d="M0.323,-0L0.323,-0.171L0.013,-0.171L0.013,-0.252L0.339,-0.716L0.411,-0.716L0.411,-0.252L0.508,-0.252L0.508,-0.171L0.411,-0.171L0.411,-0L0.323,-0ZM0.323,-0.252L0.323,-0.575L0.099,-0.252L0.323,-0.252Z" style="fill-rule:nonzero;"/>
        </g>
        <g transform="matrix(12.5,0,0,12.5,93.4004,18.9539)">
            <path d="M0.373,-0L0.285,-0L0.285,-0.56C0.264,-0.54 0.236,-0.52 0.201,-0.5C0.167,-0.479 0.136,-0.464 0.109,-0.454L0.109,-0.539C0.158,-0.562 0.201,-0.59 0.238,-0.623C0.275,-0.656 0.301,-0.688 0.316,-0.719L0.373,-0.719L0.373,-0Z" style="fill-rule:nonzero;"/>
        </g>
    </g>
    <g transform="matrix(1,0,0,1,0,10)">
        <g transform="matrix(39.5833,0,0,39.5833,26.1882,54.2059)">
            <path d="M0.075,-0L0.183,-0L0.183,-0.506L0.185,-0.506L0.507,-0L0.609,-0L0.609,-0.712L0.501,-0.712L0.501,-0.206L0.499,-0.206L0.177,-0.712L0.075,-0.712L0.075,-0Z" style="fill-rule:nonzero;"/>
        </g>
        <g transform="matrix(39.5833,0,0,39.5833,53.2664,54.2059)">
            <path d="M0.066,-0L0.168,-0L0.168,-0.053C0.202,-0.015 0.245,0.005 0.299,0.006C0.33,0.005 0.357,-0.001 0.38,-0.013C0.403,-0.025 0.421,-0.041 0.435,-0.06C0.449,-0.076 0.459,-0.098 0.464,-0.125C0.469,-0.151 0.471,-0.194 0.471,-0.254C0.471,-0.315 0.469,-0.358 0.464,-0.384C0.459,-0.41 0.449,-0.431 0.435,-0.447C0.406,-0.489 0.361,-0.512 0.299,-0.513C0.273,-0.513 0.25,-0.508 0.229,-0.497C0.207,-0.486 0.187,-0.471 0.168,-0.453L0.168,-0.712L0.066,-0.712L0.066,-0ZM0.268,-0.411C0.292,-0.411 0.311,-0.407 0.325,-0.399C0.339,-0.39 0.349,-0.378 0.355,-0.363C0.361,-0.347 0.366,-0.331 0.368,-0.313C0.369,-0.294 0.369,-0.274 0.369,-0.254C0.369,-0.235 0.369,-0.216 0.368,-0.198C0.366,-0.179 0.361,-0.161 0.355,-0.146C0.349,-0.131 0.339,-0.119 0.325,-0.11C0.311,-0.101 0.292,-0.096 0.268,-0.096C0.245,-0.096 0.227,-0.101 0.214,-0.111C0.2,-0.12 0.19,-0.133 0.183,-0.148C0.177,-0.163 0.173,-0.18 0.171,-0.199C0.169,-0.218 0.168,-0.236 0.168,-0.254C0.168,-0.273 0.169,-0.292 0.171,-0.31C0.173,-0.328 0.177,-0.345 0.183,-0.36C0.19,-0.375 0.2,-0.388 0.214,-0.397C0.227,-0.406 0.245,-0.411 0.268,-0.411Z" style="fill-rule:nonzero;"/>
        </g>
    </g>
</svg>
