<?xml version="1.0" encoding="UTF-8" standalone="no"?>
<!DOCTYPE svg PUBLIC "-//W3C//DTD SVG 1.1//EN" "http://www.w3.org/Graphics/SVG/1.1/DTD/svg11.dtd">
<svg width="100%" height="100%" viewBox="0 0 100 100" version="1.1" xmlns="http://www.w3.org/2000/svg" xmlns:xlink="http://www.w3.org/1999/xlink" xml:space="preserve" xmlns:serif="http://www.serif.com/" style="fill-rule:evenodd;clip-rule:evenodd;stroke-linecap:round;stroke-linejoin:round;stroke-miterlimit:1.5;">
    <g transform="matrix(1.125,0,0,1.125,-6.25,-6.25)">
        <path d="M90,18L90,82C90,86.415 86.415,90 82,90L18,90C13.585,90 10,86.415 10,82L10,18C10,13.585 13.585,10 18,10L82,10C86.415,10 90,13.585 90,18Z" style="fill:rgb(148,242,13);stroke:black;stroke-width:1.78px;"/>
    </g>
    <g transform="matrix(1,0,0,1,-10.3523,8.88178e-16)">
        <g transform="matrix(12.5,0,0,12.5,79.4965,18.9539)">
            <path d="M0.373,-0L0.285,-0L0.285,-0.56C0.264,-0.54 0.236,-0.52 0.201,-0.5C0.167,-0.479 0.136,-0.464 0.109,-0.454L0.109,-0.539C0.158,-0.562 0.201,-0.59 0.238,-0.623C0.275,-0.656 0.301,-0.688 0.316,-0.719L0.373,-0.719L0.373,-0Z" style="fill-rule:nonzero;"/>
        </g>
        <g transform="matrix(12.5,0,0,12.5,86.4485,18.9539)">
            <path d="M0.042,-0.353C0.042,-0.438 0.05,-0.506 0.068,-0.557C0.085,-0.609 0.111,-0.649 0.145,-0.677C0.18,-0.705 0.223,-0.719 0.275,-0.719C0.313,-0.719 0.347,-0.711 0.376,-0.696C0.405,-0.68 0.429,-0.658 0.448,-0.629C0.467,-0.6 0.481,-0.564 0.492,-0.522C0.503,-0.48 0.508,-0.424 0.508,-0.353C0.508,-0.269 0.5,-0.201 0.482,-0.15C0.465,-0.098 0.439,-0.058 0.405,-0.03C0.371,-0.002 0.327,0.012 0.275,0.012C0.206,0.012 0.152,-0.013 0.112,-0.062C0.065,-0.122 0.042,-0.219 0.042,-0.353ZM0.132,-0.353C0.132,-0.236 0.146,-0.157 0.173,-0.118C0.201,-0.08 0.235,-0.06 0.275,-0.06C0.315,-0.06 0.349,-0.08 0.377,-0.119C0.404,-0.158 0.418,-0.236 0.418,-0.353C0.418,-0.471 0.404,-0.549 0.377,-0.588C0.349,-0.627 0.315,-0.646 0.274,-0.646C0.234,-0.646 0.201,-0.629 0.177,-0.595C0.147,-0.551 0.132,-0.471 0.132,-0.353Z" style="fill-rule:nonzero;"/>
        </g>
        <g transform="matrix(12.5,0,0,12.5,93.4004,18.9539)">
            <path d="M0.373,-0L0.285,-0L0.285,-0.56C0.264,-0.54 0.236,-0.52 0.201,-0.5C0.167,-0.479 0.136,-0.464 0.109,-0.454L0.109,-0.539C0.158,-0.562 0.201,-0.59 0.238,-0.623C0.275,-0.656 0.301,-0.688 0.316,-0.719L0.373,-0.719L0.373,-0Z" style="fill-rule:nonzero;"/>
        </g>
    </g>
    <g transform="matrix(1,0,0,1,0,10)">
        <g transform="matrix(39.5833,0,0,39.5833,24.7289,54.2059)">
            <path d="M0.075,-0L0.183,-0L0.183,-0.444L0.185,-0.444L0.334,-0.102L0.424,-0.102L0.573,-0.444L0.575,-0.444L0.575,-0L0.683,-0L0.683,-0.712L0.581,-0.712L0.381,-0.248L0.177,-0.712L0.075,-0.712L0.075,-0Z" style="fill-rule:nonzero;"/>
        </g>
        <g transform="matrix(39.5833,0,0,39.5833,54.7256,54.2059)">
            <path d="M0.369,-0.053L0.369,-0L0.471,-0L0.471,-0.712L0.369,-0.712L0.369,-0.453C0.35,-0.471 0.331,-0.486 0.31,-0.497C0.288,-0.508 0.264,-0.513 0.238,-0.513C0.176,-0.512 0.131,-0.489 0.102,-0.447C0.088,-0.431 0.079,-0.41 0.074,-0.384C0.069,-0.358 0.066,-0.315 0.066,-0.254C0.066,-0.194 0.069,-0.151 0.074,-0.125C0.079,-0.098 0.088,-0.076 0.102,-0.06C0.117,-0.041 0.136,-0.025 0.159,-0.013C0.181,-0.001 0.207,0.005 0.238,0.006C0.292,0.005 0.336,-0.015 0.369,-0.053ZM0.269,-0.411C0.293,-0.411 0.312,-0.406 0.326,-0.397C0.34,-0.388 0.35,-0.375 0.355,-0.36C0.361,-0.345 0.366,-0.328 0.368,-0.31C0.369,-0.292 0.369,-0.273 0.369,-0.254C0.369,-0.236 0.369,-0.218 0.368,-0.199C0.366,-0.18 0.361,-0.163 0.355,-0.148C0.35,-0.133 0.34,-0.12 0.326,-0.111C0.312,-0.101 0.293,-0.096 0.269,-0.096C0.245,-0.096 0.227,-0.101 0.214,-0.11C0.2,-0.119 0.19,-0.131 0.183,-0.146C0.177,-0.161 0.173,-0.179 0.171,-0.198C0.169,-0.216 0.168,-0.235 0.168,-0.254C0.168,-0.274 0.169,-0.294 0.171,-0.313C0.173,-0.331 0.177,-0.347 0.183,-0.363C0.19,-0.378 0.2,-0.39 0.214,-0.399C0.227,-0.407 0.245,-0.411 0.269,-0.411Z" style="fill-rule:nonzero;"/>
        </g>
    </g>
</svg>
