<?xml version="1.0" encoding="UTF-8" standalone="no"?>
<!DOCTYPE svg PUBLIC "-//W3C//DTD SVG 1.1//EN" "http://www.w3.org/Graphics/SVG/1.1/DTD/svg11.dtd">
<svg width="100%" height="100%" viewBox="0 0 100 100" version="1.1" xmlns="http://www.w3.org/2000/svg" xmlns:xlink="http://www.w3.org/1999/xlink" xml:space="preserve" xmlns:serif="http://www.serif.com/" style="fill-rule:evenodd;clip-rule:evenodd;stroke-linecap:round;stroke-linejoin:round;stroke-miterlimit:1.5;">
    <g transform="matrix(1.125,0,0,1.125,-6.25,-6.25)">
        <path d="M90,18L90,82C90,86.415 86.415,90 82,90L18,90C13.585,90 10,86.415 10,82L10,18C10,13.585 13.585,10 18,10L82,10C86.415,10 90,13.585 90,18Z" style="fill:rgb(228,77,242);stroke:black;stroke-width:1.78px;"/>
    </g>
    <g transform="matrix(1,0,0,1,-10.3523,8.88178e-16)">
        <g transform="matrix(12.5,0,0,12.5,86.4485,18.9539)">
            <path d="M0.177,-0.388C0.14,-0.402 0.113,-0.421 0.096,-0.445C0.078,-0.47 0.069,-0.5 0.069,-0.534C0.069,-0.586 0.088,-0.63 0.125,-0.666C0.163,-0.701 0.213,-0.719 0.275,-0.719C0.337,-0.719 0.388,-0.701 0.426,-0.664C0.464,-0.628 0.483,-0.584 0.483,-0.532C0.483,-0.499 0.474,-0.47 0.457,-0.445C0.439,-0.42 0.413,-0.402 0.377,-0.388C0.421,-0.374 0.455,-0.351 0.478,-0.319C0.501,-0.287 0.512,-0.249 0.512,-0.205C0.512,-0.143 0.491,-0.092 0.447,-0.05C0.404,-0.009 0.347,0.012 0.276,0.012C0.206,0.012 0.149,-0.009 0.105,-0.051C0.062,-0.092 0.041,-0.145 0.041,-0.207C0.041,-0.254 0.052,-0.293 0.076,-0.324C0.1,-0.355 0.133,-0.377 0.177,-0.388ZM0.159,-0.537C0.159,-0.503 0.17,-0.476 0.192,-0.454C0.214,-0.433 0.242,-0.422 0.277,-0.422C0.311,-0.422 0.338,-0.433 0.36,-0.454C0.382,-0.475 0.393,-0.501 0.393,-0.532C0.393,-0.564 0.381,-0.592 0.359,-0.614C0.337,-0.635 0.309,-0.646 0.276,-0.646C0.242,-0.646 0.215,-0.636 0.192,-0.614C0.17,-0.593 0.159,-0.567 0.159,-0.537ZM0.131,-0.207C0.131,-0.181 0.137,-0.157 0.149,-0.134C0.161,-0.11 0.178,-0.092 0.202,-0.079C0.225,-0.066 0.25,-0.06 0.277,-0.06C0.319,-0.06 0.354,-0.074 0.381,-0.101C0.409,-0.128 0.422,-0.162 0.422,-0.204C0.422,-0.246 0.408,-0.281 0.38,-0.309C0.352,-0.336 0.317,-0.35 0.274,-0.35C0.233,-0.35 0.199,-0.336 0.172,-0.309C0.144,-0.282 0.131,-0.248 0.131,-0.207Z" style="fill-rule:nonzero;"/>
        </g>
        <g transform="matrix(12.5,0,0,12.5,93.4004,18.9539)">
            <path d="M0.323,-0L0.323,-0.171L0.013,-0.171L0.013,-0.252L0.339,-0.716L0.411,-0.716L0.411,-0.252L0.508,-0.252L0.508,-0.171L0.411,-0.171L0.411,-0L0.323,-0ZM0.323,-0.252L0.323,-0.575L0.099,-0.252L0.323,-0.252Z" style="fill-rule:nonzero;"/>
        </g>
    </g>
    <g transform="matrix(1,0,0,1,0,10)">
        <g transform="matrix(39.5833,0,0,39.5833,28.7298,54.2059)">
            <path d="M0.183,-0.61L0.339,-0.61C0.368,-0.611 0.394,-0.604 0.416,-0.59C0.431,-0.581 0.442,-0.57 0.45,-0.555C0.458,-0.539 0.462,-0.519 0.462,-0.495C0.462,-0.466 0.452,-0.44 0.433,-0.417C0.413,-0.393 0.383,-0.381 0.343,-0.38L0.183,-0.38L0.183,-0.61ZM0.075,-0L0.183,-0L0.183,-0.278L0.347,-0.278C0.42,-0.279 0.476,-0.303 0.514,-0.348C0.551,-0.391 0.57,-0.439 0.57,-0.492C0.57,-0.531 0.563,-0.565 0.548,-0.594C0.534,-0.623 0.516,-0.646 0.493,-0.662C0.466,-0.683 0.44,-0.697 0.414,-0.704C0.388,-0.709 0.361,-0.712 0.333,-0.712L0.075,-0.712L0.075,-0Z" style="fill-rule:nonzero;"/>
        </g>
        <g transform="matrix(39.5833,0,0,39.5833,51.4786,54.2059)">
            <path d="M0.041,-0.254C0.041,-0.201 0.045,-0.16 0.054,-0.132C0.063,-0.104 0.077,-0.08 0.096,-0.059C0.11,-0.043 0.13,-0.029 0.155,-0.016C0.18,-0.002 0.211,0.005 0.25,0.006C0.29,0.005 0.322,-0.002 0.347,-0.016C0.361,-0.022 0.371,-0.029 0.38,-0.037C0.389,-0.044 0.397,-0.052 0.404,-0.059C0.424,-0.08 0.438,-0.104 0.447,-0.132C0.455,-0.16 0.459,-0.201 0.459,-0.254C0.459,-0.307 0.455,-0.348 0.447,-0.377C0.438,-0.405 0.424,-0.429 0.404,-0.448C0.39,-0.465 0.372,-0.48 0.347,-0.493C0.322,-0.506 0.29,-0.513 0.25,-0.513C0.211,-0.513 0.18,-0.506 0.155,-0.493C0.13,-0.48 0.11,-0.465 0.096,-0.448C0.077,-0.429 0.063,-0.405 0.054,-0.377C0.045,-0.348 0.041,-0.307 0.041,-0.254ZM0.357,-0.253C0.357,-0.218 0.355,-0.193 0.352,-0.177C0.349,-0.16 0.342,-0.146 0.332,-0.133C0.325,-0.123 0.313,-0.114 0.299,-0.107C0.285,-0.1 0.269,-0.096 0.25,-0.096C0.233,-0.096 0.217,-0.1 0.202,-0.107C0.188,-0.114 0.177,-0.123 0.168,-0.133C0.159,-0.146 0.153,-0.16 0.149,-0.177C0.145,-0.193 0.143,-0.219 0.143,-0.254C0.143,-0.289 0.145,-0.315 0.149,-0.332C0.153,-0.348 0.159,-0.362 0.168,-0.374C0.177,-0.385 0.188,-0.394 0.202,-0.401C0.217,-0.408 0.233,-0.411 0.25,-0.411C0.269,-0.411 0.285,-0.408 0.299,-0.401C0.313,-0.394 0.325,-0.385 0.332,-0.374C0.342,-0.362 0.349,-0.348 0.352,-0.332C0.355,-0.315 0.357,-0.289 0.357,-0.253Z" style="fill-rule:nonzero;"/>
        </g>
    </g>
</svg>
