<?xml version="1.0" encoding="UTF-8" standalone="no"?>
<!DOCTYPE svg PUBLIC "-//W3C//DTD SVG 1.1//EN" "http://www.w3.org/Graphics/SVG/1.1/DTD/svg11.dtd">
<svg width="100%" height="100%" viewBox="0 0 100 100" version="1.1" xmlns="http://www.w3.org/2000/svg" xmlns:xlink="http://www.w3.org/1999/xlink" xml:space="preserve" xmlns:serif="http://www.serif.com/" style="fill-rule:evenodd;clip-rule:evenodd;stroke-linecap:round;stroke-linejoin:round;stroke-miterlimit:1.5;">
    <g transform="matrix(1.125,0,0,1.125,-6.25,-6.25)">
        <path d="M90,18L90,82C90,86.415 86.415,90 82,90L18,90C13.585,90 10,86.415 10,82L10,18C10,13.585 13.585,10 18,10L82,10C86.415,10 90,13.585 90,18Z" style="fill:rgb(164,118,196);stroke:black;stroke-width:1.78px;"/>
    </g>
    <g transform="matrix(1,0,0,1,-10.3523,8.88178e-16)">
        <g transform="matrix(12.5,0,0,12.5,86.4485,18.9539)">
            <path d="M0.047,-0.622L0.047,-0.707L0.511,-0.707L0.511,-0.638C0.465,-0.59 0.42,-0.525 0.375,-0.445C0.33,-0.364 0.296,-0.282 0.271,-0.197C0.254,-0.137 0.243,-0.071 0.238,-0L0.147,-0C0.148,-0.056 0.16,-0.124 0.181,-0.204C0.202,-0.284 0.232,-0.361 0.272,-0.435C0.311,-0.509 0.353,-0.571 0.398,-0.622L0.047,-0.622Z" style="fill-rule:nonzero;"/>
        </g>
        <g transform="matrix(12.5,0,0,12.5,93.4004,18.9539)">
            <path d="M0.373,-0L0.285,-0L0.285,-0.56C0.264,-0.54 0.236,-0.52 0.201,-0.5C0.167,-0.479 0.136,-0.464 0.109,-0.454L0.109,-0.539C0.158,-0.562 0.201,-0.59 0.238,-0.623C0.275,-0.656 0.301,-0.688 0.316,-0.719L0.373,-0.719L0.373,-0Z" style="fill-rule:nonzero;"/>
        </g>
    </g>
    <g transform="matrix(1,0,0,1,0,10)">
        <g transform="matrix(39.5833,0,0,39.5833,28.3625,54.2059)">
            <path d="M0.075,-0L0.53,-0L0.53,-0.102L0.183,-0.102L0.183,-0.712L0.075,-0.712L0.075,-0Z" style="fill-rule:nonzero;"/>
        </g>
        <g transform="matrix(39.5833,0,0,39.5833,50.3769,54.2059)">
            <path d="M0.066,-0.17C0.067,-0.113 0.085,-0.069 0.122,-0.04C0.156,-0.01 0.194,0.005 0.236,0.006C0.29,0.006 0.334,-0.014 0.367,-0.054L0.369,-0.054L0.369,-0L0.471,-0L0.471,-0.507L0.369,-0.507L0.369,-0.205C0.369,-0.171 0.36,-0.144 0.341,-0.125C0.322,-0.106 0.298,-0.096 0.269,-0.096C0.24,-0.096 0.216,-0.106 0.197,-0.125C0.178,-0.144 0.168,-0.171 0.168,-0.205L0.168,-0.507L0.066,-0.507L0.066,-0.17Z" style="fill-rule:nonzero;"/>
        </g>
    </g>
</svg>
