<?xml version="1.0" encoding="UTF-8" standalone="no"?>
<!DOCTYPE svg PUBLIC "-//W3C//DTD SVG 1.1//EN" "http://www.w3.org/Graphics/SVG/1.1/DTD/svg11.dtd">
<svg width="100%" height="100%" viewBox="0 0 100 100" version="1.1" xmlns="http://www.w3.org/2000/svg" xmlns:xlink="http://www.w3.org/1999/xlink" xml:space="preserve" xmlns:serif="http://www.serif.com/" style="fill-rule:evenodd;clip-rule:evenodd;stroke-linecap:round;stroke-linejoin:round;stroke-miterlimit:1.5;">
    <g transform="matrix(1.125,0,0,1.125,-6.25,-6.25)">
        <path d="M90,18L90,82C90,86.415 86.415,90 82,90L18,90C13.585,90 10,86.415 10,82L10,18C10,13.585 13.585,10 18,10L82,10C86.415,10 90,13.585 90,18Z" style="fill:rgb(38,123,217);stroke:black;stroke-width:1.78px;"/>
    </g>
    <g transform="matrix(1,0,0,1,-10.3523,8.88178e-16)">
        <g transform="matrix(12.5,0,0,12.5,86.4485,18.9539)">
            <path d="M0.373,-0L0.285,-0L0.285,-0.56C0.264,-0.54 0.236,-0.52 0.201,-0.5C0.167,-0.479 0.136,-0.464 0.109,-0.454L0.109,-0.539C0.158,-0.562 0.201,-0.59 0.238,-0.623C0.275,-0.656 0.301,-0.688 0.316,-0.719L0.373,-0.719L0.373,-0Z" style="fill-rule:nonzero;"/>
        </g>
        <g transform="matrix(12.5,0,0,12.5,93.4004,18.9539)">
            <path d="M0.042,-0.353C0.042,-0.438 0.05,-0.506 0.068,-0.557C0.085,-0.609 0.111,-0.649 0.145,-0.677C0.18,-0.705 0.223,-0.719 0.275,-0.719C0.313,-0.719 0.347,-0.711 0.376,-0.696C0.405,-0.68 0.429,-0.658 0.448,-0.629C0.467,-0.6 0.481,-0.564 0.492,-0.522C0.503,-0.48 0.508,-0.424 0.508,-0.353C0.508,-0.269 0.5,-0.201 0.482,-0.15C0.465,-0.098 0.439,-0.058 0.405,-0.03C0.371,-0.002 0.327,0.012 0.275,0.012C0.206,0.012 0.152,-0.013 0.112,-0.062C0.065,-0.122 0.042,-0.219 0.042,-0.353ZM0.132,-0.353C0.132,-0.236 0.146,-0.157 0.173,-0.118C0.201,-0.08 0.235,-0.06 0.275,-0.06C0.315,-0.06 0.349,-0.08 0.377,-0.119C0.404,-0.158 0.418,-0.236 0.418,-0.353C0.418,-0.471 0.404,-0.549 0.377,-0.588C0.349,-0.627 0.315,-0.646 0.274,-0.646C0.234,-0.646 0.201,-0.629 0.177,-0.595C0.147,-0.551 0.132,-0.471 0.132,-0.353Z" style="fill-rule:nonzero;"/>
        </g>
    </g>
    <g transform="matrix(1,0,0,1,0,10)">
        <g transform="matrix(39.5833,0,0,39.5833,26.565,54.2059)">
            <path d="M0.075,-0L0.183,-0L0.183,-0.506L0.185,-0.506L0.507,-0L0.609,-0L0.609,-0.712L0.501,-0.712L0.501,-0.206L0.499,-0.206L0.177,-0.712L0.075,-0.712L0.075,-0Z" style="fill-rule:nonzero;"/>
        </g>
        <g transform="matrix(39.5833,0,0,39.5833,53.6433,54.2059)">
            <path d="M0.459,-0.215L0.459,-0.299C0.458,-0.366 0.438,-0.418 0.397,-0.456C0.357,-0.493 0.308,-0.513 0.25,-0.513C0.226,-0.513 0.201,-0.509 0.177,-0.5C0.152,-0.491 0.129,-0.477 0.109,-0.457C0.089,-0.438 0.073,-0.411 0.06,-0.377C0.047,-0.344 0.041,-0.302 0.041,-0.252C0.041,-0.2 0.048,-0.158 0.063,-0.125C0.076,-0.091 0.094,-0.065 0.115,-0.046C0.126,-0.037 0.138,-0.029 0.151,-0.023C0.163,-0.016 0.175,-0.01 0.188,-0.006C0.213,0.002 0.239,0.006 0.266,0.006C0.336,0.007 0.397,-0.021 0.449,-0.076L0.375,-0.139C0.342,-0.106 0.306,-0.09 0.264,-0.09C0.229,-0.09 0.2,-0.101 0.178,-0.122C0.155,-0.143 0.143,-0.174 0.143,-0.215L0.459,-0.215ZM0.143,-0.299C0.145,-0.338 0.156,-0.368 0.175,-0.388C0.194,-0.407 0.219,-0.417 0.25,-0.417C0.281,-0.417 0.306,-0.407 0.325,-0.388C0.345,-0.368 0.356,-0.338 0.357,-0.299L0.143,-0.299Z" style="fill-rule:nonzero;"/>
        </g>
    </g>
</svg>
