<?xml version="1.0" encoding="UTF-8" standalone="no"?>
<!DOCTYPE svg PUBLIC "-//W3C//DTD SVG 1.1//EN" "http://www.w3.org/Graphics/SVG/1.1/DTD/svg11.dtd">
<svg width="100%" height="100%" viewBox="0 0 100 100" version="1.1" xmlns="http://www.w3.org/2000/svg" xmlns:xlink="http://www.w3.org/1999/xlink" xml:space="preserve" xmlns:serif="http://www.serif.com/" style="fill-rule:evenodd;clip-rule:evenodd;stroke-linecap:round;stroke-linejoin:round;stroke-miterlimit:1.5;">
    <g transform="matrix(1.125,0,0,1.125,-6.25,-6.25)">
        <path d="M90,18L90,82C90,86.415 86.415,90 82,90L18,90C13.585,90 10,86.415 10,82L10,18C10,13.585 13.585,10 18,10L82,10C86.415,10 90,13.585 90,18Z" style="fill:rgb(164,118,196);stroke:black;stroke-width:1.78px;"/>
    </g>
    <g transform="matrix(1,0,0,1,-10.3523,8.88178e-16)">
        <g transform="matrix(12.5,0,0,12.5,86.4485,18.9539)">
            <path d="M0.042,-0.188L0.134,-0.195C0.141,-0.15 0.156,-0.117 0.181,-0.094C0.206,-0.071 0.236,-0.06 0.271,-0.06C0.314,-0.06 0.35,-0.076 0.379,-0.108C0.408,-0.14 0.423,-0.182 0.423,-0.235C0.423,-0.285 0.409,-0.325 0.381,-0.354C0.352,-0.382 0.316,-0.397 0.27,-0.397C0.242,-0.397 0.216,-0.391 0.193,-0.378C0.171,-0.365 0.153,-0.348 0.14,-0.328L0.057,-0.338L0.126,-0.706L0.482,-0.706L0.482,-0.622L0.197,-0.622L0.158,-0.43C0.201,-0.46 0.246,-0.475 0.293,-0.475C0.356,-0.475 0.409,-0.453 0.452,-0.41C0.495,-0.366 0.516,-0.311 0.516,-0.243C0.516,-0.178 0.497,-0.122 0.459,-0.075C0.414,-0.017 0.351,0.012 0.271,0.012C0.206,0.012 0.153,-0.006 0.112,-0.042C0.071,-0.079 0.047,-0.127 0.042,-0.188Z" style="fill-rule:nonzero;"/>
        </g>
        <g transform="matrix(12.5,0,0,12.5,93.4004,18.9539)">
            <path d="M0.047,-0.622L0.047,-0.707L0.511,-0.707L0.511,-0.638C0.465,-0.59 0.42,-0.525 0.375,-0.445C0.33,-0.364 0.296,-0.282 0.271,-0.197C0.254,-0.137 0.243,-0.071 0.238,-0L0.147,-0C0.148,-0.056 0.16,-0.124 0.181,-0.204C0.202,-0.284 0.232,-0.361 0.272,-0.435C0.311,-0.509 0.353,-0.571 0.398,-0.622L0.047,-0.622Z" style="fill-rule:nonzero;"/>
        </g>
    </g>
    <g transform="matrix(1,0,0,1,0,10)">
        <g transform="matrix(39.5833,0,0,39.5833,29.097,54.2059)">
            <path d="M0.075,-0L0.53,-0L0.53,-0.102L0.183,-0.102L0.183,-0.712L0.075,-0.712L0.075,-0Z" style="fill-rule:nonzero;"/>
        </g>
        <g transform="matrix(39.5833,0,0,39.5833,51.1113,54.2059)">
            <path d="M0.332,-0L0.434,-0L0.434,-0.346C0.433,-0.408 0.414,-0.452 0.376,-0.477C0.338,-0.502 0.287,-0.514 0.223,-0.513C0.148,-0.514 0.09,-0.49 0.052,-0.439L0.132,-0.378C0.141,-0.393 0.153,-0.403 0.168,-0.409C0.183,-0.414 0.203,-0.417 0.228,-0.417C0.298,-0.418 0.333,-0.397 0.332,-0.352L0.332,-0.299L0.191,-0.299C0.137,-0.298 0.096,-0.284 0.068,-0.255C0.04,-0.227 0.026,-0.192 0.026,-0.149C0.026,-0.104 0.042,-0.068 0.074,-0.039C0.105,-0.01 0.148,0.005 0.205,0.006C0.24,0.006 0.267,0.002 0.286,-0.007C0.306,-0.015 0.321,-0.028 0.33,-0.045L0.332,-0.045L0.332,-0ZM0.332,-0.178C0.332,-0.14 0.324,-0.116 0.308,-0.105C0.291,-0.094 0.26,-0.089 0.218,-0.09C0.184,-0.09 0.16,-0.097 0.145,-0.11C0.13,-0.122 0.122,-0.137 0.122,-0.154C0.121,-0.193 0.151,-0.214 0.21,-0.215L0.332,-0.215L0.332,-0.178Z" style="fill-rule:nonzero;"/>
        </g>
    </g>
</svg>
