<?xml version="1.0" encoding="UTF-8" standalone="no"?>
<!DOCTYPE svg PUBLIC "-//W3C//DTD SVG 1.1//EN" "http://www.w3.org/Graphics/SVG/1.1/DTD/svg11.dtd">
<svg width="100%" height="100%" viewBox="0 0 100 100" version="1.1" xmlns="http://www.w3.org/2000/svg" xmlns:xlink="http://www.w3.org/1999/xlink" xml:space="preserve" xmlns:serif="http://www.serif.com/" style="fill-rule:evenodd;clip-rule:evenodd;stroke-linecap:round;stroke-linejoin:round;stroke-miterlimit:1.5;">
    <g transform="matrix(1.125,0,0,1.125,-6.25,-6.25)">
        <path d="M90,18L90,82C90,86.415 86.415,90 82,90L18,90C13.585,90 10,86.415 10,82L10,18C10,13.585 13.585,10 18,10L82,10C86.415,10 90,13.585 90,18Z" style="fill:rgb(164,118,196);stroke:black;stroke-width:1.78px;"/>
    </g>
    <g transform="matrix(1,0,0,1,-10.3523,8.88178e-16)">
        <g transform="matrix(12.5,0,0,12.5,86.4485,18.9539)">
            <path d="M0.498,-0.541L0.41,-0.534C0.402,-0.568 0.391,-0.593 0.377,-0.609C0.353,-0.634 0.324,-0.646 0.289,-0.646C0.261,-0.646 0.236,-0.639 0.215,-0.623C0.188,-0.603 0.166,-0.573 0.15,-0.535C0.134,-0.496 0.126,-0.441 0.125,-0.369C0.146,-0.401 0.172,-0.425 0.203,-0.441C0.233,-0.457 0.265,-0.464 0.299,-0.464C0.357,-0.464 0.407,-0.443 0.448,-0.4C0.49,-0.357 0.51,-0.301 0.51,-0.232C0.51,-0.188 0.501,-0.146 0.481,-0.107C0.462,-0.069 0.435,-0.039 0.401,-0.019C0.368,0.002 0.329,0.012 0.286,0.012C0.213,0.012 0.153,-0.015 0.107,-0.069C0.061,-0.122 0.038,-0.211 0.038,-0.335C0.038,-0.473 0.063,-0.574 0.114,-0.637C0.159,-0.691 0.219,-0.719 0.294,-0.719C0.351,-0.719 0.397,-0.703 0.433,-0.671C0.469,-0.64 0.49,-0.596 0.498,-0.541ZM0.139,-0.232C0.139,-0.202 0.145,-0.173 0.158,-0.145C0.171,-0.117 0.189,-0.096 0.212,-0.082C0.235,-0.067 0.259,-0.06 0.285,-0.06C0.322,-0.06 0.354,-0.075 0.38,-0.105C0.407,-0.135 0.42,-0.176 0.42,-0.227C0.42,-0.277 0.407,-0.316 0.381,-0.344C0.354,-0.372 0.321,-0.387 0.281,-0.387C0.242,-0.387 0.208,-0.372 0.18,-0.344C0.153,-0.316 0.139,-0.278 0.139,-0.232Z" style="fill-rule:nonzero;"/>
        </g>
        <g transform="matrix(12.5,0,0,12.5,93.4004,18.9539)">
            <path d="M0.373,-0L0.285,-0L0.285,-0.56C0.264,-0.54 0.236,-0.52 0.201,-0.5C0.167,-0.479 0.136,-0.464 0.109,-0.454L0.109,-0.539C0.158,-0.562 0.201,-0.59 0.238,-0.623C0.275,-0.656 0.301,-0.688 0.316,-0.719L0.373,-0.719L0.373,-0Z" style="fill-rule:nonzero;"/>
        </g>
    </g>
    <g transform="matrix(1,0,0,1,0,10)">
        <g transform="matrix(39.5833,0,0,39.5833,21.4045,54.2059)">
            <path d="M0.183,-0.61L0.339,-0.61C0.368,-0.611 0.394,-0.604 0.416,-0.59C0.431,-0.581 0.442,-0.57 0.45,-0.555C0.458,-0.539 0.462,-0.519 0.462,-0.495C0.462,-0.466 0.452,-0.44 0.433,-0.417C0.413,-0.393 0.383,-0.381 0.343,-0.38L0.183,-0.38L0.183,-0.61ZM0.075,-0L0.183,-0L0.183,-0.278L0.347,-0.278C0.42,-0.279 0.476,-0.303 0.514,-0.348C0.551,-0.391 0.57,-0.439 0.57,-0.492C0.57,-0.531 0.563,-0.565 0.548,-0.594C0.534,-0.623 0.516,-0.646 0.493,-0.662C0.466,-0.683 0.44,-0.697 0.414,-0.704C0.388,-0.709 0.361,-0.712 0.333,-0.712L0.075,-0.712L0.075,-0Z" style="fill-rule:nonzero;"/>
        </g>
        <g transform="matrix(39.5833,0,0,39.5833,44.8685,54.2059)">
            <path d="M0.072,-0L0.174,-0L0.174,-0.302C0.174,-0.337 0.184,-0.364 0.203,-0.383C0.222,-0.402 0.246,-0.411 0.275,-0.411C0.304,-0.411 0.328,-0.402 0.347,-0.383C0.366,-0.364 0.375,-0.337 0.375,-0.302L0.375,-0L0.477,-0L0.477,-0.302C0.477,-0.337 0.487,-0.364 0.506,-0.383C0.525,-0.402 0.549,-0.411 0.578,-0.411C0.607,-0.411 0.631,-0.402 0.65,-0.383C0.668,-0.364 0.678,-0.337 0.678,-0.302L0.678,-0L0.78,-0L0.78,-0.337C0.778,-0.395 0.761,-0.439 0.726,-0.469C0.691,-0.498 0.653,-0.513 0.611,-0.513C0.544,-0.514 0.491,-0.492 0.451,-0.447C0.434,-0.466 0.414,-0.482 0.393,-0.495C0.372,-0.507 0.343,-0.513 0.308,-0.513C0.253,-0.513 0.209,-0.493 0.176,-0.453L0.174,-0.453L0.174,-0.507L0.072,-0.507L0.072,-0Z" style="fill-rule:nonzero;"/>
        </g>
    </g>
</svg>
