<?xml version="1.0" encoding="UTF-8" standalone="no"?>
<!DOCTYPE svg PUBLIC "-//W3C//DTD SVG 1.1//EN" "http://www.w3.org/Graphics/SVG/1.1/DTD/svg11.dtd">
<svg width="100%" height="100%" viewBox="0 0 100 100" version="1.1" xmlns="http://www.w3.org/2000/svg" xmlns:xlink="http://www.w3.org/1999/xlink" xml:space="preserve" xmlns:serif="http://www.serif.com/" style="fill-rule:evenodd;clip-rule:evenodd;stroke-linecap:round;stroke-linejoin:round;stroke-miterlimit:1.5;">
    <g transform="matrix(1.125,0,0,1.125,-6.25,-6.25)">
        <path d="M90,18L90,82C90,86.415 86.415,90 82,90L18,90C13.585,90 10,86.415 10,82L10,18C10,13.585 13.585,10 18,10L82,10C86.415,10 90,13.585 90,18Z" style="fill:rgb(6,191,255);stroke:black;stroke-width:1.78px;"/>
    </g>
    <g transform="matrix(1,0,0,1,-10.3523,8.88178e-16)">
        <g transform="matrix(12.5,0,0,12.5,93.4004,18.9539)">
            <path d="M0.498,-0.541L0.41,-0.534C0.402,-0.568 0.391,-0.593 0.377,-0.609C0.353,-0.634 0.324,-0.646 0.289,-0.646C0.261,-0.646 0.236,-0.639 0.215,-0.623C0.188,-0.603 0.166,-0.573 0.15,-0.535C0.134,-0.496 0.126,-0.441 0.125,-0.369C0.146,-0.401 0.172,-0.425 0.203,-0.441C0.233,-0.457 0.265,-0.464 0.299,-0.464C0.357,-0.464 0.407,-0.443 0.448,-0.4C0.49,-0.357 0.51,-0.301 0.51,-0.232C0.51,-0.188 0.501,-0.146 0.481,-0.107C0.462,-0.069 0.435,-0.039 0.401,-0.019C0.368,0.002 0.329,0.012 0.286,0.012C0.213,0.012 0.153,-0.015 0.107,-0.069C0.061,-0.122 0.038,-0.211 0.038,-0.335C0.038,-0.473 0.063,-0.574 0.114,-0.637C0.159,-0.691 0.219,-0.719 0.294,-0.719C0.351,-0.719 0.397,-0.703 0.433,-0.671C0.469,-0.64 0.49,-0.596 0.498,-0.541ZM0.139,-0.232C0.139,-0.202 0.145,-0.173 0.158,-0.145C0.171,-0.117 0.189,-0.096 0.212,-0.082C0.235,-0.067 0.259,-0.06 0.285,-0.06C0.322,-0.06 0.354,-0.075 0.38,-0.105C0.407,-0.135 0.42,-0.176 0.42,-0.227C0.42,-0.277 0.407,-0.316 0.381,-0.344C0.354,-0.372 0.321,-0.387 0.281,-0.387C0.242,-0.387 0.208,-0.372 0.18,-0.344C0.153,-0.316 0.139,-0.278 0.139,-0.232Z" style="fill-rule:nonzero;"/>
        </g>
    </g>
    <g transform="matrix(1,0,0,1,0,10)">
        <g transform="matrix(39.5833,0,0,39.5833,38.9928,54.2059)">
            <path d="M0.441,-0.199C0.411,-0.134 0.366,-0.102 0.305,-0.102C0.28,-0.102 0.258,-0.107 0.24,-0.118C0.221,-0.127 0.206,-0.139 0.195,-0.154C0.181,-0.169 0.172,-0.189 0.167,-0.214C0.162,-0.239 0.159,-0.286 0.159,-0.356C0.159,-0.426 0.162,-0.474 0.167,-0.499C0.172,-0.523 0.181,-0.543 0.195,-0.558C0.206,-0.573 0.221,-0.585 0.24,-0.595C0.258,-0.604 0.28,-0.609 0.305,-0.61C0.34,-0.609 0.369,-0.599 0.393,-0.58C0.416,-0.56 0.432,-0.535 0.441,-0.507L0.555,-0.507C0.544,-0.566 0.516,-0.616 0.473,-0.657C0.43,-0.697 0.374,-0.717 0.305,-0.718C0.249,-0.717 0.202,-0.704 0.165,-0.678C0.127,-0.652 0.099,-0.623 0.082,-0.59C0.071,-0.573 0.063,-0.55 0.058,-0.522C0.053,-0.494 0.051,-0.439 0.051,-0.356C0.051,-0.275 0.053,-0.22 0.058,-0.191C0.061,-0.176 0.064,-0.163 0.068,-0.153C0.072,-0.143 0.077,-0.133 0.082,-0.122C0.099,-0.089 0.127,-0.06 0.165,-0.035C0.202,-0.009 0.249,0.005 0.305,0.006C0.367,0.006 0.421,-0.012 0.466,-0.047C0.51,-0.082 0.54,-0.133 0.555,-0.199L0.441,-0.199Z" style="fill-rule:nonzero;"/>
        </g>
    </g>
</svg>
