<?xml version="1.0" encoding="UTF-8" standalone="no"?>
<!DOCTYPE svg PUBLIC "-//W3C//DTD SVG 1.1//EN" "http://www.w3.org/Graphics/SVG/1.1/DTD/svg11.dtd">
<svg width="100%" height="100%" viewBox="0 0 100 100" version="1.1" xmlns="http://www.w3.org/2000/svg" xmlns:xlink="http://www.w3.org/1999/xlink" xml:space="preserve" xmlns:serif="http://www.serif.com/" style="fill-rule:evenodd;clip-rule:evenodd;stroke-linecap:round;stroke-linejoin:round;stroke-miterlimit:1.5;">
    <g transform="matrix(1.125,0,0,1.125,-6.25,-6.25)">
        <path d="M90,18L90,82C90,86.415 86.415,90 82,90L18,90C13.585,90 10,86.415 10,82L10,18C10,13.585 13.585,10 18,10L82,10C86.415,10 90,13.585 90,18Z" style="fill:rgb(13,242,121);stroke:black;stroke-width:1.78px;"/>
    </g>
    <g transform="matrix(1,0,0,1,-10.3523,8.88178e-16)">
        <g transform="matrix(12.5,0,0,12.5,86.4485,18.9539)">
            <path d="M0.373,-0L0.285,-0L0.285,-0.56C0.264,-0.54 0.236,-0.52 0.201,-0.5C0.167,-0.479 0.136,-0.464 0.109,-0.454L0.109,-0.539C0.158,-0.562 0.201,-0.59 0.238,-0.623C0.275,-0.656 0.301,-0.688 0.316,-0.719L0.373,-0.719L0.373,-0Z" style="fill-rule:nonzero;"/>
        </g>
        <g transform="matrix(12.5,0,0,12.5,93.4004,18.9539)">
            <path d="M0.047,-0.622L0.047,-0.707L0.511,-0.707L0.511,-0.638C0.465,-0.59 0.42,-0.525 0.375,-0.445C0.33,-0.364 0.296,-0.282 0.271,-0.197C0.254,-0.137 0.243,-0.071 0.238,-0L0.147,-0C0.148,-0.056 0.16,-0.124 0.181,-0.204C0.202,-0.284 0.232,-0.361 0.272,-0.435C0.311,-0.509 0.353,-0.571 0.398,-0.622L0.047,-0.622Z" style="fill-rule:nonzero;"/>
        </g>
    </g>
    <g transform="matrix(1,0,0,1,0,10)">
        <g transform="matrix(39.5833,0,0,39.5833,33.8903,54.2059)">
            <path d="M0.441,-0.199C0.411,-0.134 0.366,-0.102 0.305,-0.102C0.28,-0.102 0.258,-0.107 0.24,-0.118C0.221,-0.127 0.206,-0.139 0.195,-0.154C0.181,-0.169 0.172,-0.189 0.167,-0.214C0.162,-0.239 0.159,-0.286 0.159,-0.356C0.159,-0.426 0.162,-0.474 0.167,-0.499C0.172,-0.523 0.181,-0.543 0.195,-0.558C0.206,-0.573 0.221,-0.585 0.24,-0.595C0.258,-0.604 0.28,-0.609 0.305,-0.61C0.34,-0.609 0.369,-0.599 0.393,-0.58C0.416,-0.56 0.432,-0.535 0.441,-0.507L0.555,-0.507C0.544,-0.566 0.516,-0.616 0.473,-0.657C0.43,-0.697 0.374,-0.717 0.305,-0.718C0.249,-0.717 0.202,-0.704 0.165,-0.678C0.127,-0.652 0.099,-0.623 0.082,-0.59C0.071,-0.573 0.063,-0.55 0.058,-0.522C0.053,-0.494 0.051,-0.439 0.051,-0.356C0.051,-0.275 0.053,-0.22 0.058,-0.191C0.061,-0.176 0.064,-0.163 0.068,-0.153C0.072,-0.143 0.077,-0.133 0.082,-0.122C0.099,-0.089 0.127,-0.06 0.165,-0.035C0.202,-0.009 0.249,0.005 0.305,0.006C0.367,0.006 0.421,-0.012 0.466,-0.047C0.51,-0.082 0.54,-0.133 0.555,-0.199L0.441,-0.199Z" style="fill-rule:nonzero;"/>
        </g>
        <g transform="matrix(39.5833,0,0,39.5833,55.9046,54.2059)">
            <path d="M0.066,-0.123C0.066,-0.078 0.079,-0.047 0.104,-0.028C0.128,-0.009 0.159,-0 0.196,-0L0.241,-0L0.241,-0.096L0.206,-0.096C0.181,-0.096 0.168,-0.108 0.168,-0.131L0.168,-0.712L0.066,-0.712L0.066,-0.123Z" style="fill-rule:nonzero;"/>
        </g>
    </g>
</svg>
