<?xml version="1.0" encoding="UTF-8" standalone="no"?>
<!DOCTYPE svg PUBLIC "-//W3C//DTD SVG 1.1//EN" "http://www.w3.org/Graphics/SVG/1.1/DTD/svg11.dtd">
<svg width="100%" height="100%" viewBox="0 0 100 100" version="1.1" xmlns="http://www.w3.org/2000/svg" xmlns:xlink="http://www.w3.org/1999/xlink" xml:space="preserve" xmlns:serif="http://www.serif.com/" style="fill-rule:evenodd;clip-rule:evenodd;stroke-linecap:round;stroke-linejoin:round;stroke-miterlimit:1.5;">
    <g transform="matrix(1.125,0,0,1.125,-6.25,-6.25)">
        <path d="M90,18L90,82C90,86.415 86.415,90 82,90L18,90C13.585,90 10,86.415 10,82L10,18C10,13.585 13.585,10 18,10L82,10C86.415,10 90,13.585 90,18Z" style="fill:rgb(229,242,13);stroke:black;stroke-width:1.78px;"/>
    </g>
    <g transform="matrix(1,0,0,1,-10.3523,8.88178e-16)">
        <g transform="matrix(12.5,0,0,12.5,80.4243,18.9539)">
            <path d="M0.373,-0L0.285,-0L0.285,-0.56C0.264,-0.54 0.236,-0.52 0.201,-0.5C0.167,-0.479 0.136,-0.464 0.109,-0.454L0.109,-0.539C0.158,-0.562 0.201,-0.59 0.238,-0.623C0.275,-0.656 0.301,-0.688 0.316,-0.719L0.373,-0.719L0.373,-0Z" style="fill-rule:nonzero;"/>
        </g>
        <g transform="matrix(12.5,0,0,12.5,86.4485,18.9539)">
            <path d="M0.373,-0L0.285,-0L0.285,-0.56C0.264,-0.54 0.236,-0.52 0.201,-0.5C0.167,-0.479 0.136,-0.464 0.109,-0.454L0.109,-0.539C0.158,-0.562 0.201,-0.59 0.238,-0.623C0.275,-0.656 0.301,-0.688 0.316,-0.719L0.373,-0.719L0.373,-0Z" style="fill-rule:nonzero;"/>
        </g>
        <g transform="matrix(12.5,0,0,12.5,93.4004,18.9539)">
            <path d="M0.042,-0.353C0.042,-0.438 0.05,-0.506 0.068,-0.557C0.085,-0.609 0.111,-0.649 0.145,-0.677C0.18,-0.705 0.223,-0.719 0.275,-0.719C0.313,-0.719 0.347,-0.711 0.376,-0.696C0.405,-0.68 0.429,-0.658 0.448,-0.629C0.467,-0.6 0.481,-0.564 0.492,-0.522C0.503,-0.48 0.508,-0.424 0.508,-0.353C0.508,-0.269 0.5,-0.201 0.482,-0.15C0.465,-0.098 0.439,-0.058 0.405,-0.03C0.371,-0.002 0.327,0.012 0.275,0.012C0.206,0.012 0.152,-0.013 0.112,-0.062C0.065,-0.122 0.042,-0.219 0.042,-0.353ZM0.132,-0.353C0.132,-0.236 0.146,-0.157 0.173,-0.118C0.201,-0.08 0.235,-0.06 0.275,-0.06C0.315,-0.06 0.349,-0.08 0.377,-0.119C0.404,-0.158 0.418,-0.236 0.418,-0.353C0.418,-0.471 0.404,-0.549 0.377,-0.588C0.349,-0.627 0.315,-0.646 0.274,-0.646C0.234,-0.646 0.201,-0.629 0.177,-0.595C0.147,-0.551 0.132,-0.471 0.132,-0.353Z" style="fill-rule:nonzero;"/>
        </g>
    </g>
    <g transform="matrix(1,0,0,1,0,10)">
        <g transform="matrix(39.5833,0,0,39.5833,28.034,54.2059)">
            <path d="M0.075,-0L0.317,-0C0.37,-0 0.415,-0.012 0.452,-0.035C0.489,-0.057 0.518,-0.085 0.539,-0.118C0.547,-0.131 0.554,-0.143 0.559,-0.155C0.564,-0.167 0.568,-0.181 0.571,-0.196C0.576,-0.226 0.579,-0.279 0.579,-0.356C0.579,-0.428 0.577,-0.479 0.574,-0.508C0.569,-0.537 0.558,-0.565 0.541,-0.592C0.493,-0.671 0.421,-0.711 0.324,-0.712L0.075,-0.712L0.075,-0ZM0.183,-0.61L0.312,-0.61C0.367,-0.611 0.409,-0.591 0.439,-0.55C0.454,-0.533 0.463,-0.512 0.467,-0.485C0.47,-0.458 0.471,-0.414 0.471,-0.352C0.471,-0.289 0.47,-0.245 0.467,-0.222C0.464,-0.199 0.456,-0.179 0.444,-0.164C0.417,-0.123 0.373,-0.102 0.312,-0.102L0.183,-0.102L0.183,-0.61Z" style="fill-rule:nonzero;"/>
        </g>
        <g transform="matrix(39.5833,0,0,39.5833,52.9668,54.2059)">
            <path d="M0.081,-0.155L0.01,-0.085C0.076,-0.024 0.15,0.006 0.233,0.006C0.294,0.005 0.344,-0.009 0.383,-0.036C0.422,-0.063 0.442,-0.101 0.443,-0.15C0.443,-0.192 0.432,-0.227 0.41,-0.254C0.387,-0.282 0.349,-0.298 0.296,-0.302L0.212,-0.308C0.187,-0.311 0.17,-0.317 0.16,-0.326C0.149,-0.335 0.144,-0.345 0.145,-0.356C0.145,-0.374 0.152,-0.389 0.165,-0.4C0.178,-0.411 0.2,-0.417 0.232,-0.417C0.26,-0.417 0.285,-0.413 0.306,-0.405C0.328,-0.396 0.349,-0.384 0.368,-0.37L0.431,-0.444C0.406,-0.465 0.378,-0.482 0.347,-0.495C0.331,-0.501 0.313,-0.506 0.295,-0.509C0.276,-0.512 0.255,-0.513 0.232,-0.513C0.178,-0.513 0.133,-0.5 0.098,-0.474C0.062,-0.448 0.044,-0.409 0.043,-0.357C0.044,-0.314 0.058,-0.28 0.085,-0.256C0.112,-0.231 0.146,-0.217 0.189,-0.213L0.279,-0.205C0.298,-0.204 0.313,-0.2 0.324,-0.193C0.335,-0.186 0.341,-0.173 0.341,-0.155C0.341,-0.134 0.332,-0.118 0.313,-0.107C0.294,-0.096 0.271,-0.09 0.241,-0.09C0.176,-0.09 0.122,-0.111 0.081,-0.155Z" style="fill-rule:nonzero;"/>
        </g>
    </g>
</svg>
