<?xml version="1.0" encoding="UTF-8" standalone="no"?>
<!DOCTYPE svg PUBLIC "-//W3C//DTD SVG 1.1//EN" "http://www.w3.org/Graphics/SVG/1.1/DTD/svg11.dtd">
<svg width="100%" height="100%" viewBox="0 0 100 100" version="1.1" xmlns="http://www.w3.org/2000/svg" xmlns:xlink="http://www.w3.org/1999/xlink" xml:space="preserve" xmlns:serif="http://www.serif.com/" style="fill-rule:evenodd;clip-rule:evenodd;stroke-linecap:round;stroke-linejoin:round;stroke-miterlimit:1.5;">
    <g transform="matrix(1.125,0,0,1.125,-6.25,-6.25)">
        <path d="M90,18L90,82C90,86.415 86.415,90 82,90L18,90C13.585,90 10,86.415 10,82L10,18C10,13.585 13.585,10 18,10L82,10C86.415,10 90,13.585 90,18Z" style="fill:rgb(229,242,13);stroke:black;stroke-width:1.78px;"/>
    </g>
    <g transform="matrix(1,0,0,1,-10.3523,8.88178e-16)">
        <g transform="matrix(12.5,0,0,12.5,81.352,18.9539)">
            <path d="M0.373,-0L0.285,-0L0.285,-0.56C0.264,-0.54 0.236,-0.52 0.201,-0.5C0.167,-0.479 0.136,-0.464 0.109,-0.454L0.109,-0.539C0.158,-0.562 0.201,-0.59 0.238,-0.623C0.275,-0.656 0.301,-0.688 0.316,-0.719L0.373,-0.719L0.373,-0Z" style="fill-rule:nonzero;"/>
        </g>
        <g transform="matrix(12.5,0,0,12.5,87.3762,18.9539)">
            <path d="M0.373,-0L0.285,-0L0.285,-0.56C0.264,-0.54 0.236,-0.52 0.201,-0.5C0.167,-0.479 0.136,-0.464 0.109,-0.454L0.109,-0.539C0.158,-0.562 0.201,-0.59 0.238,-0.623C0.275,-0.656 0.301,-0.688 0.316,-0.719L0.373,-0.719L0.373,-0Z" style="fill-rule:nonzero;"/>
        </g>
        <g transform="matrix(12.5,0,0,12.5,93.4004,18.9539)">
            <path d="M0.373,-0L0.285,-0L0.285,-0.56C0.264,-0.54 0.236,-0.52 0.201,-0.5C0.167,-0.479 0.136,-0.464 0.109,-0.454L0.109,-0.539C0.158,-0.562 0.201,-0.59 0.238,-0.623C0.275,-0.656 0.301,-0.688 0.316,-0.719L0.373,-0.719L0.373,-0Z" style="fill-rule:nonzero;"/>
        </g>
    </g>
    <g transform="matrix(1,0,0,1,0,10)">
        <g transform="matrix(39.5833,0,0,39.5833,27.6571,54.2059)">
            <path d="M0.183,-0.616L0.352,-0.616C0.387,-0.616 0.413,-0.608 0.431,-0.594C0.454,-0.577 0.466,-0.55 0.467,-0.513C0.467,-0.482 0.457,-0.456 0.437,-0.435C0.417,-0.412 0.387,-0.401 0.346,-0.4L0.183,-0.4L0.183,-0.616ZM0.075,-0L0.183,-0L0.183,-0.304L0.321,-0.304L0.468,-0L0.596,-0L0.431,-0.316C0.522,-0.351 0.568,-0.417 0.569,-0.513C0.567,-0.579 0.543,-0.63 0.498,-0.665C0.461,-0.696 0.412,-0.712 0.353,-0.712L0.075,-0.712L0.075,-0Z" style="fill-rule:nonzero;"/>
        </g>
        <g transform="matrix(39.5833,0,0,39.5833,51.7975,54.2059)">
            <path d="M0.351,-0.053L0.351,-0.001C0.35,0.034 0.34,0.061 0.319,0.08C0.298,0.099 0.27,0.109 0.235,0.109C0.216,0.108 0.198,0.103 0.181,0.094C0.164,0.085 0.149,0.075 0.136,0.063L0.057,0.126C0.106,0.181 0.164,0.21 0.233,0.211C0.293,0.211 0.344,0.193 0.387,0.156C0.43,0.12 0.452,0.064 0.453,-0.012L0.453,-0.507L0.351,-0.507L0.351,-0.453C0.314,-0.493 0.271,-0.513 0.22,-0.513C0.187,-0.513 0.16,-0.506 0.138,-0.494C0.115,-0.481 0.098,-0.467 0.086,-0.451C0.073,-0.435 0.063,-0.415 0.057,-0.391C0.051,-0.367 0.048,-0.321 0.048,-0.253C0.048,-0.186 0.051,-0.141 0.057,-0.117C0.063,-0.093 0.073,-0.073 0.086,-0.056C0.098,-0.042 0.115,-0.028 0.138,-0.015C0.16,-0.002 0.187,0.005 0.22,0.006C0.274,0.005 0.318,-0.015 0.351,-0.053ZM0.15,-0.253C0.15,-0.292 0.151,-0.32 0.154,-0.335C0.156,-0.35 0.161,-0.363 0.17,-0.372C0.177,-0.381 0.187,-0.39 0.201,-0.399C0.215,-0.406 0.231,-0.41 0.251,-0.411C0.271,-0.41 0.287,-0.406 0.301,-0.399C0.314,-0.39 0.324,-0.381 0.331,-0.372C0.34,-0.363 0.345,-0.35 0.348,-0.335C0.35,-0.32 0.351,-0.292 0.351,-0.253C0.351,-0.214 0.35,-0.188 0.348,-0.173C0.345,-0.158 0.34,-0.145 0.331,-0.135C0.324,-0.126 0.314,-0.117 0.301,-0.11C0.287,-0.101 0.271,-0.096 0.251,-0.096C0.231,-0.096 0.215,-0.101 0.201,-0.11C0.187,-0.117 0.177,-0.126 0.17,-0.135C0.161,-0.145 0.156,-0.158 0.154,-0.173C0.151,-0.188 0.15,-0.214 0.15,-0.253Z" style="fill-rule:nonzero;"/>
        </g>
    </g>
</svg>
