<?xml version="1.0" encoding="UTF-8" standalone="no"?>
<!DOCTYPE svg PUBLIC "-//W3C//DTD SVG 1.1//EN" "http://www.w3.org/Graphics/SVG/1.1/DTD/svg11.dtd">
<svg width="100%" height="100%" viewBox="0 0 100 100" version="1.1" xmlns="http://www.w3.org/2000/svg" xmlns:xlink="http://www.w3.org/1999/xlink" xml:space="preserve" xmlns:serif="http://www.serif.com/" style="fill-rule:evenodd;clip-rule:evenodd;stroke-linecap:round;stroke-linejoin:round;stroke-miterlimit:1.5;">
    <g transform="matrix(1.125,0,0,1.125,-6.25,-6.25)">
        <path d="M90,18L90,82C90,86.415 86.415,90 82,90L18,90C13.585,90 10,86.415 10,82L10,18C10,13.585 13.585,10 18,10L82,10C86.415,10 90,13.585 90,18Z" style="fill:rgb(38,123,217);stroke:black;stroke-width:1.78px;"/>
    </g>
    <g transform="matrix(1,0,0,1,-10.3523,8.88178e-16)">
        <g transform="matrix(12.5,0,0,12.5,93.4004,18.9539)">
            <path d="M0.503,-0.084L0.503,-0L0.03,-0C0.03,-0.021 0.033,-0.042 0.041,-0.061C0.053,-0.093 0.072,-0.125 0.098,-0.156C0.125,-0.188 0.163,-0.224 0.213,-0.265C0.291,-0.328 0.344,-0.379 0.371,-0.416C0.398,-0.454 0.412,-0.489 0.412,-0.522C0.412,-0.557 0.4,-0.586 0.375,-0.61C0.35,-0.634 0.317,-0.646 0.277,-0.646C0.235,-0.646 0.201,-0.633 0.176,-0.608C0.15,-0.583 0.138,-0.547 0.137,-0.502L0.047,-0.512C0.053,-0.579 0.076,-0.63 0.117,-0.666C0.157,-0.701 0.211,-0.719 0.279,-0.719C0.348,-0.719 0.402,-0.7 0.442,-0.662C0.482,-0.624 0.502,-0.576 0.502,-0.52C0.502,-0.491 0.497,-0.463 0.485,-0.436C0.473,-0.408 0.454,-0.379 0.427,-0.348C0.399,-0.318 0.354,-0.276 0.291,-0.222C0.238,-0.178 0.204,-0.148 0.189,-0.132C0.174,-0.116 0.162,-0.1 0.152,-0.084L0.503,-0.084Z" style="fill-rule:nonzero;"/>
        </g>
    </g>
    <g transform="matrix(1,0,0,1,0,10)">
        <g transform="matrix(39.5833,0,0,39.5833,27.2802,54.2059)">
            <path d="M0.465,-0L0.573,-0L0.573,-0.712L0.465,-0.712L0.465,-0.407L0.183,-0.407L0.183,-0.712L0.075,-0.712L0.075,-0L0.183,-0L0.183,-0.311L0.465,-0.311L0.465,-0Z" style="fill-rule:nonzero;"/>
        </g>
        <g transform="matrix(39.5833,0,0,39.5833,52.9282,54.2059)">
            <path d="M0.459,-0.215L0.459,-0.299C0.458,-0.366 0.438,-0.418 0.397,-0.456C0.357,-0.493 0.308,-0.513 0.25,-0.513C0.226,-0.513 0.201,-0.509 0.177,-0.5C0.152,-0.491 0.129,-0.477 0.109,-0.457C0.089,-0.438 0.073,-0.411 0.06,-0.377C0.047,-0.344 0.041,-0.302 0.041,-0.252C0.041,-0.2 0.048,-0.158 0.063,-0.125C0.076,-0.091 0.094,-0.065 0.115,-0.046C0.126,-0.037 0.138,-0.029 0.151,-0.023C0.163,-0.016 0.175,-0.01 0.188,-0.006C0.213,0.002 0.239,0.006 0.266,0.006C0.336,0.007 0.397,-0.021 0.449,-0.076L0.375,-0.139C0.342,-0.106 0.306,-0.09 0.264,-0.09C0.229,-0.09 0.2,-0.101 0.178,-0.122C0.155,-0.143 0.143,-0.174 0.143,-0.215L0.459,-0.215ZM0.143,-0.299C0.145,-0.338 0.156,-0.368 0.175,-0.388C0.194,-0.407 0.219,-0.417 0.25,-0.417C0.281,-0.417 0.306,-0.407 0.325,-0.388C0.345,-0.368 0.356,-0.338 0.357,-0.299L0.143,-0.299Z" style="fill-rule:nonzero;"/>
        </g>
    </g>
</svg>
