<?xml version="1.0" encoding="UTF-8" standalone="no"?>
<!DOCTYPE svg PUBLIC "-//W3C//DTD SVG 1.1//EN" "http://www.w3.org/Graphics/SVG/1.1/DTD/svg11.dtd">
<svg width="100%" height="100%" viewBox="0 0 100 100" version="1.1" xmlns="http://www.w3.org/2000/svg" xmlns:xlink="http://www.w3.org/1999/xlink" xml:space="preserve" xmlns:serif="http://www.serif.com/" style="fill-rule:evenodd;clip-rule:evenodd;stroke-linecap:round;stroke-linejoin:round;stroke-miterlimit:1.5;">
    <g transform="matrix(1.125,0,0,1.125,-6.25,-6.25)">
        <path d="M90,18L90,82C90,86.415 86.415,90 82,90L18,90C13.585,90 10,86.415 10,82L10,18C10,13.585 13.585,10 18,10L82,10C86.415,10 90,13.585 90,18Z" style="fill:rgb(242,175,13);stroke:black;stroke-width:1.78px;"/>
    </g>
    <g transform="matrix(1,0,0,1,-10.3523,8.88178e-16)">
        <g transform="matrix(12.5,0,0,12.5,86.4485,18.9539)">
            <path d="M0.373,-0L0.285,-0L0.285,-0.56C0.264,-0.54 0.236,-0.52 0.201,-0.5C0.167,-0.479 0.136,-0.464 0.109,-0.454L0.109,-0.539C0.158,-0.562 0.201,-0.59 0.238,-0.623C0.275,-0.656 0.301,-0.688 0.316,-0.719L0.373,-0.719L0.373,-0Z" style="fill-rule:nonzero;"/>
        </g>
        <g transform="matrix(12.5,0,0,12.5,93.4004,18.9539)">
            <path d="M0.503,-0.084L0.503,-0L0.03,-0C0.03,-0.021 0.033,-0.042 0.041,-0.061C0.053,-0.093 0.072,-0.125 0.098,-0.156C0.125,-0.188 0.163,-0.224 0.213,-0.265C0.291,-0.328 0.344,-0.379 0.371,-0.416C0.398,-0.454 0.412,-0.489 0.412,-0.522C0.412,-0.557 0.4,-0.586 0.375,-0.61C0.35,-0.634 0.317,-0.646 0.277,-0.646C0.235,-0.646 0.201,-0.633 0.176,-0.608C0.15,-0.583 0.138,-0.547 0.137,-0.502L0.047,-0.512C0.053,-0.579 0.076,-0.63 0.117,-0.666C0.157,-0.701 0.211,-0.719 0.279,-0.719C0.348,-0.719 0.402,-0.7 0.442,-0.662C0.482,-0.624 0.502,-0.576 0.502,-0.52C0.502,-0.491 0.497,-0.463 0.485,-0.436C0.473,-0.408 0.454,-0.379 0.427,-0.348C0.399,-0.318 0.354,-0.276 0.291,-0.222C0.238,-0.178 0.204,-0.148 0.189,-0.132C0.174,-0.116 0.162,-0.1 0.152,-0.084L0.503,-0.084Z" style="fill-rule:nonzero;"/>
        </g>
    </g>
    <g transform="matrix(1,0,0,1,0,10)">
        <g transform="matrix(39.5833,0,0,39.5833,24.7289,54.2059)">
            <path d="M0.075,-0L0.183,-0L0.183,-0.444L0.185,-0.444L0.334,-0.102L0.424,-0.102L0.573,-0.444L0.575,-0.444L0.575,-0L0.683,-0L0.683,-0.712L0.581,-0.712L0.381,-0.248L0.177,-0.712L0.075,-0.712L0.075,-0Z" style="fill-rule:nonzero;"/>
        </g>
        <g transform="matrix(39.5833,0,0,39.5833,54.7256,54.2059)">
            <path d="M0.351,-0.053L0.351,-0.001C0.35,0.034 0.34,0.061 0.319,0.08C0.298,0.099 0.27,0.109 0.235,0.109C0.216,0.108 0.198,0.103 0.181,0.094C0.164,0.085 0.149,0.075 0.136,0.063L0.057,0.126C0.106,0.181 0.164,0.21 0.233,0.211C0.293,0.211 0.344,0.193 0.387,0.156C0.43,0.12 0.452,0.064 0.453,-0.012L0.453,-0.507L0.351,-0.507L0.351,-0.453C0.314,-0.493 0.271,-0.513 0.22,-0.513C0.187,-0.513 0.16,-0.506 0.138,-0.494C0.115,-0.481 0.098,-0.467 0.086,-0.451C0.073,-0.435 0.063,-0.415 0.057,-0.391C0.051,-0.367 0.048,-0.321 0.048,-0.253C0.048,-0.186 0.051,-0.141 0.057,-0.117C0.063,-0.093 0.073,-0.073 0.086,-0.056C0.098,-0.042 0.115,-0.028 0.138,-0.015C0.16,-0.002 0.187,0.005 0.22,0.006C0.274,0.005 0.318,-0.015 0.351,-0.053ZM0.15,-0.253C0.15,-0.292 0.151,-0.32 0.154,-0.335C0.156,-0.35 0.161,-0.363 0.17,-0.372C0.177,-0.381 0.187,-0.39 0.201,-0.399C0.215,-0.406 0.231,-0.41 0.251,-0.411C0.271,-0.41 0.287,-0.406 0.301,-0.399C0.314,-0.39 0.324,-0.381 0.331,-0.372C0.34,-0.363 0.345,-0.35 0.348,-0.335C0.35,-0.32 0.351,-0.292 0.351,-0.253C0.351,-0.214 0.35,-0.188 0.348,-0.173C0.345,-0.158 0.34,-0.145 0.331,-0.135C0.324,-0.126 0.314,-0.117 0.301,-0.11C0.287,-0.101 0.271,-0.096 0.251,-0.096C0.231,-0.096 0.215,-0.101 0.201,-0.11C0.187,-0.117 0.177,-0.126 0.17,-0.135C0.161,-0.145 0.156,-0.158 0.154,-0.173C0.151,-0.188 0.15,-0.214 0.15,-0.253Z" style="fill-rule:nonzero;"/>
        </g>
    </g>
</svg>
