<?xml version="1.0" encoding="UTF-8" standalone="no"?>
<!DOCTYPE svg PUBLIC "-//W3C//DTD SVG 1.1//EN" "http://www.w3.org/Graphics/SVG/1.1/DTD/svg11.dtd">
<svg width="100%" height="100%" viewBox="0 0 100 100" version="1.1" xmlns="http://www.w3.org/2000/svg" xmlns:xlink="http://www.w3.org/1999/xlink" xml:space="preserve" xmlns:serif="http://www.serif.com/" style="fill-rule:evenodd;clip-rule:evenodd;stroke-linecap:round;stroke-linejoin:round;stroke-miterlimit:1.5;">
    <g transform="matrix(1.125,0,0,1.125,-6.25,-6.25)">
        <path d="M90,18L90,82C90,86.415 86.415,90 82,90L18,90C13.585,90 10,86.415 10,82L10,18C10,13.585 13.585,10 18,10L82,10C86.415,10 90,13.585 90,18Z" style="fill:rgb(164,118,196);stroke:black;stroke-width:1.78px;"/>
    </g>
    <g transform="matrix(1,0,0,1,-10.3523,8.88178e-16)">
        <g transform="matrix(12.5,0,0,12.5,86.4485,18.9539)">
            <path d="M0.498,-0.541L0.41,-0.534C0.402,-0.568 0.391,-0.593 0.377,-0.609C0.353,-0.634 0.324,-0.646 0.289,-0.646C0.261,-0.646 0.236,-0.639 0.215,-0.623C0.188,-0.603 0.166,-0.573 0.15,-0.535C0.134,-0.496 0.126,-0.441 0.125,-0.369C0.146,-0.401 0.172,-0.425 0.203,-0.441C0.233,-0.457 0.265,-0.464 0.299,-0.464C0.357,-0.464 0.407,-0.443 0.448,-0.4C0.49,-0.357 0.51,-0.301 0.51,-0.232C0.51,-0.188 0.501,-0.146 0.481,-0.107C0.462,-0.069 0.435,-0.039 0.401,-0.019C0.368,0.002 0.329,0.012 0.286,0.012C0.213,0.012 0.153,-0.015 0.107,-0.069C0.061,-0.122 0.038,-0.211 0.038,-0.335C0.038,-0.473 0.063,-0.574 0.114,-0.637C0.159,-0.691 0.219,-0.719 0.294,-0.719C0.351,-0.719 0.397,-0.703 0.433,-0.671C0.469,-0.64 0.49,-0.596 0.498,-0.541ZM0.139,-0.232C0.139,-0.202 0.145,-0.173 0.158,-0.145C0.171,-0.117 0.189,-0.096 0.212,-0.082C0.235,-0.067 0.259,-0.06 0.285,-0.06C0.322,-0.06 0.354,-0.075 0.38,-0.105C0.407,-0.135 0.42,-0.176 0.42,-0.227C0.42,-0.277 0.407,-0.316 0.381,-0.344C0.354,-0.372 0.321,-0.387 0.281,-0.387C0.242,-0.387 0.208,-0.372 0.18,-0.344C0.153,-0.316 0.139,-0.278 0.139,-0.232Z" style="fill-rule:nonzero;"/>
        </g>
        <g transform="matrix(12.5,0,0,12.5,93.4004,18.9539)">
            <path d="M0.047,-0.622L0.047,-0.707L0.511,-0.707L0.511,-0.638C0.465,-0.59 0.42,-0.525 0.375,-0.445C0.33,-0.364 0.296,-0.282 0.271,-0.197C0.254,-0.137 0.243,-0.071 0.238,-0L0.147,-0C0.148,-0.056 0.16,-0.124 0.181,-0.204C0.202,-0.284 0.232,-0.361 0.272,-0.435C0.311,-0.509 0.353,-0.571 0.398,-0.622L0.047,-0.622Z" style="fill-rule:nonzero;"/>
        </g>
    </g>
    <g transform="matrix(1,0,0,1,0,10)">
        <g transform="matrix(39.5833,0,0,39.5833,27.2802,54.2059)">
            <path d="M0.465,-0L0.573,-0L0.573,-0.712L0.465,-0.712L0.465,-0.407L0.183,-0.407L0.183,-0.712L0.075,-0.712L0.075,-0L0.183,-0L0.183,-0.311L0.465,-0.311L0.465,-0Z" style="fill-rule:nonzero;"/>
        </g>
        <g transform="matrix(39.5833,0,0,39.5833,52.9282,54.2059)">
            <path d="M0.041,-0.254C0.041,-0.201 0.045,-0.16 0.054,-0.132C0.063,-0.104 0.077,-0.08 0.096,-0.059C0.11,-0.043 0.13,-0.029 0.155,-0.016C0.18,-0.002 0.211,0.005 0.25,0.006C0.29,0.005 0.322,-0.002 0.347,-0.016C0.361,-0.022 0.371,-0.029 0.38,-0.037C0.389,-0.044 0.397,-0.052 0.404,-0.059C0.424,-0.08 0.438,-0.104 0.447,-0.132C0.455,-0.16 0.459,-0.201 0.459,-0.254C0.459,-0.307 0.455,-0.348 0.447,-0.377C0.438,-0.405 0.424,-0.429 0.404,-0.448C0.39,-0.465 0.372,-0.48 0.347,-0.493C0.322,-0.506 0.29,-0.513 0.25,-0.513C0.211,-0.513 0.18,-0.506 0.155,-0.493C0.13,-0.48 0.11,-0.465 0.096,-0.448C0.077,-0.429 0.063,-0.405 0.054,-0.377C0.045,-0.348 0.041,-0.307 0.041,-0.254ZM0.357,-0.253C0.357,-0.218 0.355,-0.193 0.352,-0.177C0.349,-0.16 0.342,-0.146 0.332,-0.133C0.325,-0.123 0.313,-0.114 0.299,-0.107C0.285,-0.1 0.269,-0.096 0.25,-0.096C0.233,-0.096 0.217,-0.1 0.202,-0.107C0.188,-0.114 0.177,-0.123 0.168,-0.133C0.159,-0.146 0.153,-0.16 0.149,-0.177C0.145,-0.193 0.143,-0.219 0.143,-0.254C0.143,-0.289 0.145,-0.315 0.149,-0.332C0.153,-0.348 0.159,-0.362 0.168,-0.374C0.177,-0.385 0.188,-0.394 0.202,-0.401C0.217,-0.408 0.233,-0.411 0.25,-0.411C0.269,-0.411 0.285,-0.408 0.299,-0.401C0.313,-0.394 0.325,-0.385 0.332,-0.374C0.342,-0.362 0.349,-0.348 0.352,-0.332C0.355,-0.315 0.357,-0.289 0.357,-0.253Z" style="fill-rule:nonzero;"/>
        </g>
    </g>
</svg>
