<?xml version="1.0" encoding="UTF-8" standalone="no"?>
<!DOCTYPE svg PUBLIC "-//W3C//DTD SVG 1.1//EN" "http://www.w3.org/Graphics/SVG/1.1/DTD/svg11.dtd">
<svg width="100%" height="100%" viewBox="0 0 100 100" version="1.1" xmlns="http://www.w3.org/2000/svg" xmlns:xlink="http://www.w3.org/1999/xlink" xml:space="preserve" xmlns:serif="http://www.serif.com/" style="fill-rule:evenodd;clip-rule:evenodd;stroke-linecap:round;stroke-linejoin:round;stroke-miterlimit:1.5;">
    <g transform="matrix(1.125,0,0,1.125,-6.25,-6.25)">
        <path d="M90,18L90,82C90,86.415 86.415,90 82,90L18,90C13.585,90 10,86.415 10,82L10,18C10,13.585 13.585,10 18,10L82,10C86.415,10 90,13.585 90,18Z" style="fill:rgb(148,242,13);stroke:black;stroke-width:1.78px;"/>
    </g>
    <g transform="matrix(1,0,0,1,-10.3523,8.88178e-16)">
        <g transform="matrix(12.5,0,0,12.5,86.4485,18.9539)">
            <path d="M0.055,-0.166L0.139,-0.173C0.146,-0.134 0.16,-0.105 0.18,-0.087C0.2,-0.069 0.226,-0.06 0.258,-0.06C0.285,-0.06 0.309,-0.066 0.329,-0.079C0.349,-0.091 0.366,-0.108 0.379,-0.128C0.392,-0.149 0.403,-0.177 0.412,-0.212C0.42,-0.247 0.425,-0.283 0.425,-0.319C0.425,-0.323 0.425,-0.329 0.424,-0.337C0.407,-0.309 0.383,-0.286 0.352,-0.269C0.322,-0.251 0.289,-0.243 0.253,-0.243C0.194,-0.243 0.144,-0.264 0.103,-0.307C0.062,-0.35 0.042,-0.407 0.042,-0.477C0.042,-0.55 0.063,-0.608 0.106,-0.652C0.149,-0.697 0.202,-0.719 0.267,-0.719C0.313,-0.719 0.356,-0.706 0.394,-0.681C0.433,-0.656 0.462,-0.62 0.482,-0.574C0.502,-0.528 0.512,-0.46 0.512,-0.373C0.512,-0.281 0.502,-0.208 0.482,-0.154C0.463,-0.1 0.433,-0.059 0.394,-0.03C0.355,-0.002 0.309,0.012 0.256,0.012C0.2,0.012 0.154,-0.003 0.119,-0.034C0.083,-0.066 0.062,-0.109 0.055,-0.166ZM0.415,-0.481C0.415,-0.532 0.401,-0.572 0.374,-0.602C0.347,-0.631 0.315,-0.646 0.277,-0.646C0.238,-0.646 0.204,-0.63 0.175,-0.598C0.146,-0.566 0.132,-0.525 0.132,-0.474C0.132,-0.429 0.146,-0.392 0.173,-0.363C0.201,-0.335 0.235,-0.32 0.275,-0.32C0.316,-0.32 0.349,-0.335 0.375,-0.363C0.401,-0.392 0.415,-0.431 0.415,-0.481Z" style="fill-rule:nonzero;"/>
        </g>
        <g transform="matrix(12.5,0,0,12.5,93.4004,18.9539)">
            <path d="M0.373,-0L0.285,-0L0.285,-0.56C0.264,-0.54 0.236,-0.52 0.201,-0.5C0.167,-0.479 0.136,-0.464 0.109,-0.454L0.109,-0.539C0.158,-0.562 0.201,-0.59 0.238,-0.623C0.275,-0.656 0.301,-0.688 0.316,-0.719L0.373,-0.719L0.373,-0Z" style="fill-rule:nonzero;"/>
        </g>
    </g>
    <g transform="matrix(1,0,0,1,0,10)">
        <g transform="matrix(39.5833,0,0,39.5833,28.8651,54.2059)">
            <path d="M0.183,-0.61L0.339,-0.61C0.368,-0.611 0.394,-0.604 0.416,-0.59C0.431,-0.581 0.442,-0.57 0.45,-0.555C0.458,-0.539 0.462,-0.519 0.462,-0.495C0.462,-0.466 0.452,-0.44 0.433,-0.417C0.413,-0.393 0.383,-0.381 0.343,-0.38L0.183,-0.38L0.183,-0.61ZM0.075,-0L0.183,-0L0.183,-0.278L0.347,-0.278C0.42,-0.279 0.476,-0.303 0.514,-0.348C0.551,-0.391 0.57,-0.439 0.57,-0.492C0.57,-0.531 0.563,-0.565 0.548,-0.594C0.534,-0.623 0.516,-0.646 0.493,-0.662C0.466,-0.683 0.44,-0.697 0.414,-0.704C0.388,-0.709 0.361,-0.712 0.333,-0.712L0.075,-0.712L0.075,-0Z" style="fill-rule:nonzero;"/>
        </g>
        <g transform="matrix(39.5833,0,0,39.5833,51.3433,54.2059)">
            <path d="M0.332,-0L0.434,-0L0.434,-0.346C0.433,-0.408 0.414,-0.452 0.376,-0.477C0.338,-0.502 0.287,-0.514 0.223,-0.513C0.148,-0.514 0.09,-0.49 0.052,-0.439L0.132,-0.378C0.141,-0.393 0.153,-0.403 0.168,-0.409C0.183,-0.414 0.203,-0.417 0.228,-0.417C0.298,-0.418 0.333,-0.397 0.332,-0.352L0.332,-0.299L0.191,-0.299C0.137,-0.298 0.096,-0.284 0.068,-0.255C0.04,-0.227 0.026,-0.192 0.026,-0.149C0.026,-0.104 0.042,-0.068 0.074,-0.039C0.105,-0.01 0.148,0.005 0.205,0.006C0.24,0.006 0.267,0.002 0.286,-0.007C0.306,-0.015 0.321,-0.028 0.33,-0.045L0.332,-0.045L0.332,-0ZM0.332,-0.178C0.332,-0.14 0.324,-0.116 0.308,-0.105C0.291,-0.094 0.26,-0.089 0.218,-0.09C0.184,-0.09 0.16,-0.097 0.145,-0.11C0.13,-0.122 0.122,-0.137 0.122,-0.154C0.121,-0.193 0.151,-0.214 0.21,-0.215L0.332,-0.215L0.332,-0.178Z" style="fill-rule:nonzero;"/>
        </g>
    </g>
</svg>
