<?xml version="1.0" encoding="UTF-8" standalone="no"?>
<!DOCTYPE svg PUBLIC "-//W3C//DTD SVG 1.1//EN" "http://www.w3.org/Graphics/SVG/1.1/DTD/svg11.dtd">
<svg width="100%" height="100%" viewBox="0 0 100 100" version="1.1" xmlns="http://www.w3.org/2000/svg" xmlns:xlink="http://www.w3.org/1999/xlink" xml:space="preserve" xmlns:serif="http://www.serif.com/" style="fill-rule:evenodd;clip-rule:evenodd;stroke-linecap:round;stroke-linejoin:round;stroke-miterlimit:1.5;">
    <g transform="matrix(1.125,0,0,1.125,-6.25,-6.25)">
        <path d="M90,18L90,82C90,86.415 86.415,90 82,90L18,90C13.585,90 10,86.415 10,82L10,18C10,13.585 13.585,10 18,10L82,10C86.415,10 90,13.585 90,18Z" style="fill:rgb(228,77,242);stroke:black;stroke-width:1.78px;"/>
    </g>
    <g transform="matrix(1,0,0,1,-10.3523,8.88178e-16)">
        <g transform="matrix(12.5,0,0,12.5,86.4485,18.9539)">
            <path d="M0.042,-0.188L0.134,-0.195C0.141,-0.15 0.156,-0.117 0.181,-0.094C0.206,-0.071 0.236,-0.06 0.271,-0.06C0.314,-0.06 0.35,-0.076 0.379,-0.108C0.408,-0.14 0.423,-0.182 0.423,-0.235C0.423,-0.285 0.409,-0.325 0.381,-0.354C0.352,-0.382 0.316,-0.397 0.27,-0.397C0.242,-0.397 0.216,-0.391 0.193,-0.378C0.171,-0.365 0.153,-0.348 0.14,-0.328L0.057,-0.338L0.126,-0.706L0.482,-0.706L0.482,-0.622L0.197,-0.622L0.158,-0.43C0.201,-0.46 0.246,-0.475 0.293,-0.475C0.356,-0.475 0.409,-0.453 0.452,-0.41C0.495,-0.366 0.516,-0.311 0.516,-0.243C0.516,-0.178 0.497,-0.122 0.459,-0.075C0.414,-0.017 0.351,0.012 0.271,0.012C0.206,0.012 0.153,-0.006 0.112,-0.042C0.071,-0.079 0.047,-0.127 0.042,-0.188Z" style="fill-rule:nonzero;"/>
        </g>
        <g transform="matrix(12.5,0,0,12.5,93.4004,18.9539)">
            <path d="M0.373,-0L0.285,-0L0.285,-0.56C0.264,-0.54 0.236,-0.52 0.201,-0.5C0.167,-0.479 0.136,-0.464 0.109,-0.454L0.109,-0.539C0.158,-0.562 0.201,-0.59 0.238,-0.623C0.275,-0.656 0.301,-0.688 0.316,-0.719L0.373,-0.719L0.373,-0Z" style="fill-rule:nonzero;"/>
        </g>
    </g>
    <g transform="matrix(1,0,0,1,0,10)">
        <g transform="matrix(39.5833,0,0,39.5833,28.3722,54.2059)">
            <path d="M0.084,-0.173L0.013,-0.092C0.089,-0.027 0.18,0.006 0.285,0.006C0.448,0.004 0.532,-0.065 0.535,-0.201C0.535,-0.252 0.519,-0.296 0.488,-0.334C0.456,-0.373 0.407,-0.397 0.34,-0.406C0.306,-0.41 0.279,-0.414 0.26,-0.417C0.225,-0.424 0.199,-0.435 0.183,-0.452C0.167,-0.469 0.159,-0.487 0.159,-0.508C0.16,-0.542 0.172,-0.568 0.195,-0.585C0.217,-0.602 0.245,-0.61 0.278,-0.61C0.342,-0.609 0.401,-0.59 0.454,-0.555L0.514,-0.644C0.449,-0.691 0.372,-0.716 0.283,-0.718C0.21,-0.717 0.153,-0.698 0.113,-0.66C0.071,-0.622 0.051,-0.572 0.051,-0.51C0.051,-0.458 0.067,-0.414 0.1,-0.378C0.132,-0.343 0.179,-0.32 0.24,-0.31C0.274,-0.305 0.305,-0.301 0.334,-0.297C0.396,-0.286 0.427,-0.254 0.427,-0.201C0.425,-0.136 0.379,-0.103 0.286,-0.102C0.208,-0.103 0.141,-0.126 0.084,-0.173Z" style="fill-rule:nonzero;"/>
        </g>
        <g transform="matrix(39.5833,0,0,39.5833,51.0824,54.2059)">
            <path d="M0.066,-0L0.168,-0L0.168,-0.053C0.202,-0.015 0.245,0.005 0.299,0.006C0.33,0.005 0.357,-0.001 0.38,-0.013C0.403,-0.025 0.421,-0.041 0.435,-0.06C0.449,-0.076 0.459,-0.098 0.464,-0.125C0.469,-0.151 0.471,-0.194 0.471,-0.254C0.471,-0.315 0.469,-0.358 0.464,-0.384C0.459,-0.41 0.449,-0.431 0.435,-0.447C0.406,-0.489 0.361,-0.512 0.299,-0.513C0.273,-0.513 0.25,-0.508 0.229,-0.497C0.207,-0.486 0.187,-0.471 0.168,-0.453L0.168,-0.712L0.066,-0.712L0.066,-0ZM0.268,-0.411C0.292,-0.411 0.311,-0.407 0.325,-0.399C0.339,-0.39 0.349,-0.378 0.355,-0.363C0.361,-0.347 0.366,-0.331 0.368,-0.313C0.369,-0.294 0.369,-0.274 0.369,-0.254C0.369,-0.235 0.369,-0.216 0.368,-0.198C0.366,-0.179 0.361,-0.161 0.355,-0.146C0.349,-0.131 0.339,-0.119 0.325,-0.11C0.311,-0.101 0.292,-0.096 0.268,-0.096C0.245,-0.096 0.227,-0.101 0.214,-0.111C0.2,-0.12 0.19,-0.133 0.183,-0.148C0.177,-0.163 0.173,-0.18 0.171,-0.199C0.169,-0.218 0.168,-0.236 0.168,-0.254C0.168,-0.273 0.169,-0.292 0.171,-0.31C0.173,-0.328 0.177,-0.345 0.183,-0.36C0.19,-0.375 0.2,-0.388 0.214,-0.397C0.227,-0.406 0.245,-0.411 0.268,-0.411Z" style="fill-rule:nonzero;"/>
        </g>
    </g>
</svg>
