<?xml version="1.0" encoding="UTF-8" standalone="no"?>
<!DOCTYPE svg PUBLIC "-//W3C//DTD SVG 1.1//EN" "http://www.w3.org/Graphics/SVG/1.1/DTD/svg11.dtd">
<svg width="100%" height="100%" viewBox="0 0 100 100" version="1.1" xmlns="http://www.w3.org/2000/svg" xmlns:xlink="http://www.w3.org/1999/xlink" xml:space="preserve" xmlns:serif="http://www.serif.com/" style="fill-rule:evenodd;clip-rule:evenodd;stroke-linecap:round;stroke-linejoin:round;stroke-miterlimit:1.5;">
    <g transform="matrix(1.125,0,0,1.125,-6.25,-6.25)">
        <path d="M90,18L90,82C90,86.415 86.415,90 82,90L18,90C13.585,90 10,86.415 10,82L10,18C10,13.585 13.585,10 18,10L82,10C86.415,10 90,13.585 90,18Z" style="fill:rgb(229,242,13);stroke:black;stroke-width:1.78px;"/>
    </g>
    <g transform="matrix(1,0,0,1,-10.3523,8.88178e-16)">
        <g transform="matrix(12.5,0,0,12.5,79.4965,18.9539)">
            <path d="M0.373,-0L0.285,-0L0.285,-0.56C0.264,-0.54 0.236,-0.52 0.201,-0.5C0.167,-0.479 0.136,-0.464 0.109,-0.454L0.109,-0.539C0.158,-0.562 0.201,-0.59 0.238,-0.623C0.275,-0.656 0.301,-0.688 0.316,-0.719L0.373,-0.719L0.373,-0Z" style="fill-rule:nonzero;"/>
        </g>
        <g transform="matrix(12.5,0,0,12.5,86.4485,18.9539)">
            <path d="M0.042,-0.353C0.042,-0.438 0.05,-0.506 0.068,-0.557C0.085,-0.609 0.111,-0.649 0.145,-0.677C0.18,-0.705 0.223,-0.719 0.275,-0.719C0.313,-0.719 0.347,-0.711 0.376,-0.696C0.405,-0.68 0.429,-0.658 0.448,-0.629C0.467,-0.6 0.481,-0.564 0.492,-0.522C0.503,-0.48 0.508,-0.424 0.508,-0.353C0.508,-0.269 0.5,-0.201 0.482,-0.15C0.465,-0.098 0.439,-0.058 0.405,-0.03C0.371,-0.002 0.327,0.012 0.275,0.012C0.206,0.012 0.152,-0.013 0.112,-0.062C0.065,-0.122 0.042,-0.219 0.042,-0.353ZM0.132,-0.353C0.132,-0.236 0.146,-0.157 0.173,-0.118C0.201,-0.08 0.235,-0.06 0.275,-0.06C0.315,-0.06 0.349,-0.08 0.377,-0.119C0.404,-0.158 0.418,-0.236 0.418,-0.353C0.418,-0.471 0.404,-0.549 0.377,-0.588C0.349,-0.627 0.315,-0.646 0.274,-0.646C0.234,-0.646 0.201,-0.629 0.177,-0.595C0.147,-0.551 0.132,-0.471 0.132,-0.353Z" style="fill-rule:nonzero;"/>
        </g>
        <g transform="matrix(12.5,0,0,12.5,93.4004,18.9539)">
            <path d="M0.498,-0.541L0.41,-0.534C0.402,-0.568 0.391,-0.593 0.377,-0.609C0.353,-0.634 0.324,-0.646 0.289,-0.646C0.261,-0.646 0.236,-0.639 0.215,-0.623C0.188,-0.603 0.166,-0.573 0.15,-0.535C0.134,-0.496 0.126,-0.441 0.125,-0.369C0.146,-0.401 0.172,-0.425 0.203,-0.441C0.233,-0.457 0.265,-0.464 0.299,-0.464C0.357,-0.464 0.407,-0.443 0.448,-0.4C0.49,-0.357 0.51,-0.301 0.51,-0.232C0.51,-0.188 0.501,-0.146 0.481,-0.107C0.462,-0.069 0.435,-0.039 0.401,-0.019C0.368,0.002 0.329,0.012 0.286,0.012C0.213,0.012 0.153,-0.015 0.107,-0.069C0.061,-0.122 0.038,-0.211 0.038,-0.335C0.038,-0.473 0.063,-0.574 0.114,-0.637C0.159,-0.691 0.219,-0.719 0.294,-0.719C0.351,-0.719 0.397,-0.703 0.433,-0.671C0.469,-0.64 0.49,-0.596 0.498,-0.541ZM0.139,-0.232C0.139,-0.202 0.145,-0.173 0.158,-0.145C0.171,-0.117 0.189,-0.096 0.212,-0.082C0.235,-0.067 0.259,-0.06 0.285,-0.06C0.322,-0.06 0.354,-0.075 0.38,-0.105C0.407,-0.135 0.42,-0.176 0.42,-0.227C0.42,-0.277 0.407,-0.316 0.381,-0.344C0.354,-0.372 0.321,-0.387 0.281,-0.387C0.242,-0.387 0.208,-0.372 0.18,-0.344C0.153,-0.316 0.139,-0.278 0.139,-0.232Z" style="fill-rule:nonzero;"/>
        </g>
    </g>
    <g transform="matrix(1,0,0,1,0,10)">
        <g transform="matrix(39.5833,0,0,39.5833,28.3722,54.2059)">
            <path d="M0.084,-0.173L0.013,-0.092C0.089,-0.027 0.18,0.006 0.285,0.006C0.448,0.004 0.532,-0.065 0.535,-0.201C0.535,-0.252 0.519,-0.296 0.488,-0.334C0.456,-0.373 0.407,-0.397 0.34,-0.406C0.306,-0.41 0.279,-0.414 0.26,-0.417C0.225,-0.424 0.199,-0.435 0.183,-0.452C0.167,-0.469 0.159,-0.487 0.159,-0.508C0.16,-0.542 0.172,-0.568 0.195,-0.585C0.217,-0.602 0.245,-0.61 0.278,-0.61C0.342,-0.609 0.401,-0.59 0.454,-0.555L0.514,-0.644C0.449,-0.691 0.372,-0.716 0.283,-0.718C0.21,-0.717 0.153,-0.698 0.113,-0.66C0.071,-0.622 0.051,-0.572 0.051,-0.51C0.051,-0.458 0.067,-0.414 0.1,-0.378C0.132,-0.343 0.179,-0.32 0.24,-0.31C0.274,-0.305 0.305,-0.301 0.334,-0.297C0.396,-0.286 0.427,-0.254 0.427,-0.201C0.425,-0.136 0.379,-0.103 0.286,-0.102C0.208,-0.103 0.141,-0.126 0.084,-0.173Z" style="fill-rule:nonzero;"/>
        </g>
        <g transform="matrix(39.5833,0,0,39.5833,51.0824,54.2059)">
            <path d="M0.351,-0.053L0.351,-0.001C0.35,0.034 0.34,0.061 0.319,0.08C0.298,0.099 0.27,0.109 0.235,0.109C0.216,0.108 0.198,0.103 0.181,0.094C0.164,0.085 0.149,0.075 0.136,0.063L0.057,0.126C0.106,0.181 0.164,0.21 0.233,0.211C0.293,0.211 0.344,0.193 0.387,0.156C0.43,0.12 0.452,0.064 0.453,-0.012L0.453,-0.507L0.351,-0.507L0.351,-0.453C0.314,-0.493 0.271,-0.513 0.22,-0.513C0.187,-0.513 0.16,-0.506 0.138,-0.494C0.115,-0.481 0.098,-0.467 0.086,-0.451C0.073,-0.435 0.063,-0.415 0.057,-0.391C0.051,-0.367 0.048,-0.321 0.048,-0.253C0.048,-0.186 0.051,-0.141 0.057,-0.117C0.063,-0.093 0.073,-0.073 0.086,-0.056C0.098,-0.042 0.115,-0.028 0.138,-0.015C0.16,-0.002 0.187,0.005 0.22,0.006C0.274,0.005 0.318,-0.015 0.351,-0.053ZM0.15,-0.253C0.15,-0.292 0.151,-0.32 0.154,-0.335C0.156,-0.35 0.161,-0.363 0.17,-0.372C0.177,-0.381 0.187,-0.39 0.201,-0.399C0.215,-0.406 0.231,-0.41 0.251,-0.411C0.271,-0.41 0.287,-0.406 0.301,-0.399C0.314,-0.39 0.324,-0.381 0.331,-0.372C0.34,-0.363 0.345,-0.35 0.348,-0.335C0.35,-0.32 0.351,-0.292 0.351,-0.253C0.351,-0.214 0.35,-0.188 0.348,-0.173C0.345,-0.158 0.34,-0.145 0.331,-0.135C0.324,-0.126 0.314,-0.117 0.301,-0.11C0.287,-0.101 0.271,-0.096 0.251,-0.096C0.231,-0.096 0.215,-0.101 0.201,-0.11C0.187,-0.117 0.177,-0.126 0.17,-0.135C0.161,-0.145 0.156,-0.158 0.154,-0.173C0.151,-0.188 0.15,-0.214 0.15,-0.253Z" style="fill-rule:nonzero;"/>
        </g>
    </g>
</svg>
