<?xml version="1.0" encoding="UTF-8" standalone="no"?>
<!DOCTYPE svg PUBLIC "-//W3C//DTD SVG 1.1//EN" "http://www.w3.org/Graphics/SVG/1.1/DTD/svg11.dtd">
<svg width="100%" height="100%" viewBox="0 0 100 100" version="1.1" xmlns="http://www.w3.org/2000/svg" xmlns:xlink="http://www.w3.org/1999/xlink" xml:space="preserve" xmlns:serif="http://www.serif.com/" style="fill-rule:evenodd;clip-rule:evenodd;stroke-linecap:round;stroke-linejoin:round;stroke-miterlimit:1.5;">
    <g transform="matrix(1.125,0,0,1.125,-6.25,-6.25)">
        <path d="M90,18L90,82C90,86.415 86.415,90 82,90L18,90C13.585,90 10,86.415 10,82L10,18C10,13.585 13.585,10 18,10L82,10C86.415,10 90,13.585 90,18Z" style="fill:rgb(229,242,13);stroke:black;stroke-width:1.78px;"/>
    </g>
    <g transform="matrix(1,0,0,1,-10.3523,8.88178e-16)">
        <g transform="matrix(12.5,0,0,12.5,79.4965,18.9539)">
            <path d="M0.373,-0L0.285,-0L0.285,-0.56C0.264,-0.54 0.236,-0.52 0.201,-0.5C0.167,-0.479 0.136,-0.464 0.109,-0.454L0.109,-0.539C0.158,-0.562 0.201,-0.59 0.238,-0.623C0.275,-0.656 0.301,-0.688 0.316,-0.719L0.373,-0.719L0.373,-0Z" style="fill-rule:nonzero;"/>
        </g>
        <g transform="matrix(12.5,0,0,12.5,86.4485,18.9539)">
            <path d="M0.042,-0.353C0.042,-0.438 0.05,-0.506 0.068,-0.557C0.085,-0.609 0.111,-0.649 0.145,-0.677C0.18,-0.705 0.223,-0.719 0.275,-0.719C0.313,-0.719 0.347,-0.711 0.376,-0.696C0.405,-0.68 0.429,-0.658 0.448,-0.629C0.467,-0.6 0.481,-0.564 0.492,-0.522C0.503,-0.48 0.508,-0.424 0.508,-0.353C0.508,-0.269 0.5,-0.201 0.482,-0.15C0.465,-0.098 0.439,-0.058 0.405,-0.03C0.371,-0.002 0.327,0.012 0.275,0.012C0.206,0.012 0.152,-0.013 0.112,-0.062C0.065,-0.122 0.042,-0.219 0.042,-0.353ZM0.132,-0.353C0.132,-0.236 0.146,-0.157 0.173,-0.118C0.201,-0.08 0.235,-0.06 0.275,-0.06C0.315,-0.06 0.349,-0.08 0.377,-0.119C0.404,-0.158 0.418,-0.236 0.418,-0.353C0.418,-0.471 0.404,-0.549 0.377,-0.588C0.349,-0.627 0.315,-0.646 0.274,-0.646C0.234,-0.646 0.201,-0.629 0.177,-0.595C0.147,-0.551 0.132,-0.471 0.132,-0.353Z" style="fill-rule:nonzero;"/>
        </g>
        <g transform="matrix(12.5,0,0,12.5,93.4004,18.9539)">
            <path d="M0.323,-0L0.323,-0.171L0.013,-0.171L0.013,-0.252L0.339,-0.716L0.411,-0.716L0.411,-0.252L0.508,-0.252L0.508,-0.171L0.411,-0.171L0.411,-0L0.323,-0ZM0.323,-0.252L0.323,-0.575L0.099,-0.252L0.323,-0.252Z" style="fill-rule:nonzero;"/>
        </g>
    </g>
    <g transform="matrix(1,0,0,1,0,10)">
        <g transform="matrix(39.5833,0,0,39.5833,32.431,54.2059)">
            <path d="M0.183,-0.616L0.352,-0.616C0.387,-0.616 0.413,-0.608 0.431,-0.594C0.454,-0.577 0.466,-0.55 0.467,-0.513C0.467,-0.482 0.457,-0.456 0.437,-0.435C0.417,-0.412 0.387,-0.401 0.346,-0.4L0.183,-0.4L0.183,-0.616ZM0.075,-0L0.183,-0L0.183,-0.304L0.321,-0.304L0.468,-0L0.596,-0L0.431,-0.316C0.522,-0.351 0.568,-0.417 0.569,-0.513C0.567,-0.579 0.543,-0.63 0.498,-0.665C0.461,-0.696 0.412,-0.712 0.353,-0.712L0.075,-0.712L0.075,-0Z" style="fill-rule:nonzero;"/>
        </g>
        <g transform="matrix(39.5833,0,0,39.5833,56.5715,54.2059)">
            <path d="M0.082,-0L0.184,-0L0.184,-0.429L0.286,-0.429L0.286,-0.507L0.184,-0.507L0.184,-0.574C0.183,-0.603 0.197,-0.617 0.228,-0.616L0.286,-0.616L0.286,-0.712L0.22,-0.712C0.181,-0.712 0.148,-0.701 0.122,-0.68C0.095,-0.657 0.082,-0.622 0.082,-0.574L0.082,-0.507L0.031,-0.507L0.031,-0.429L0.082,-0.429L0.082,-0Z" style="fill-rule:nonzero;"/>
        </g>
    </g>
</svg>
