<?xml version="1.0" encoding="UTF-8" standalone="no"?>
<!DOCTYPE svg PUBLIC "-//W3C//DTD SVG 1.1//EN" "http://www.w3.org/Graphics/SVG/1.1/DTD/svg11.dtd">
<svg width="100%" height="100%" viewBox="0 0 100 100" version="1.1" xmlns="http://www.w3.org/2000/svg" xmlns:xlink="http://www.w3.org/1999/xlink" xml:space="preserve" xmlns:serif="http://www.serif.com/" style="fill-rule:evenodd;clip-rule:evenodd;stroke-linecap:round;stroke-linejoin:round;stroke-miterlimit:1.5;">
    <g transform="matrix(1.125,0,0,1.125,-6.25,-6.25)">
        <path d="M90,18L90,82C90,86.415 86.415,90 82,90L18,90C13.585,90 10,86.415 10,82L10,18C10,13.585 13.585,10 18,10L82,10C86.415,10 90,13.585 90,18Z" style="fill:rgb(242,175,13);stroke:black;stroke-width:1.78px;"/>
    </g>
    <g transform="matrix(1,0,0,1,-10.3523,8.88178e-16)">
        <g transform="matrix(12.5,0,0,12.5,93.4004,18.9539)">
            <path d="M0.323,-0L0.323,-0.171L0.013,-0.171L0.013,-0.252L0.339,-0.716L0.411,-0.716L0.411,-0.252L0.508,-0.252L0.508,-0.171L0.411,-0.171L0.411,-0L0.323,-0ZM0.323,-0.252L0.323,-0.575L0.099,-0.252L0.323,-0.252Z" style="fill-rule:nonzero;"/>
        </g>
    </g>
    <g transform="matrix(1,0,0,1,0,10)">
        <g transform="matrix(39.5833,0,0,39.5833,28.034,54.2059)">
            <path d="M0.075,-0L0.375,-0C0.431,-0 0.478,-0.019 0.515,-0.056C0.553,-0.092 0.572,-0.141 0.573,-0.202C0.573,-0.239 0.563,-0.274 0.545,-0.305C0.525,-0.336 0.496,-0.356 0.457,-0.366L0.457,-0.368C0.478,-0.378 0.495,-0.389 0.509,-0.401C0.523,-0.412 0.534,-0.424 0.541,-0.437C0.556,-0.464 0.563,-0.492 0.562,-0.521C0.562,-0.578 0.544,-0.624 0.509,-0.659C0.474,-0.694 0.421,-0.711 0.351,-0.712L0.075,-0.712L0.075,-0ZM0.349,-0.316C0.389,-0.315 0.418,-0.305 0.437,-0.284C0.456,-0.263 0.465,-0.238 0.465,-0.209C0.465,-0.18 0.456,-0.156 0.437,-0.135C0.418,-0.114 0.389,-0.103 0.349,-0.102L0.183,-0.102L0.183,-0.316L0.349,-0.316ZM0.339,-0.616C0.378,-0.615 0.407,-0.605 0.426,-0.587C0.445,-0.567 0.454,-0.543 0.454,-0.514C0.454,-0.486 0.445,-0.462 0.426,-0.443C0.407,-0.422 0.378,-0.412 0.339,-0.412L0.183,-0.412L0.183,-0.616L0.339,-0.616Z" style="fill-rule:nonzero;"/>
        </g>
        <g transform="matrix(39.5833,0,0,39.5833,52.1744,54.2059)">
            <path d="M0.459,-0.215L0.459,-0.299C0.458,-0.366 0.438,-0.418 0.397,-0.456C0.357,-0.493 0.308,-0.513 0.25,-0.513C0.226,-0.513 0.201,-0.509 0.177,-0.5C0.152,-0.491 0.129,-0.477 0.109,-0.457C0.089,-0.438 0.073,-0.411 0.06,-0.377C0.047,-0.344 0.041,-0.302 0.041,-0.252C0.041,-0.2 0.048,-0.158 0.063,-0.125C0.076,-0.091 0.094,-0.065 0.115,-0.046C0.126,-0.037 0.138,-0.029 0.151,-0.023C0.163,-0.016 0.175,-0.01 0.188,-0.006C0.213,0.002 0.239,0.006 0.266,0.006C0.336,0.007 0.397,-0.021 0.449,-0.076L0.375,-0.139C0.342,-0.106 0.306,-0.09 0.264,-0.09C0.229,-0.09 0.2,-0.101 0.178,-0.122C0.155,-0.143 0.143,-0.174 0.143,-0.215L0.459,-0.215ZM0.143,-0.299C0.145,-0.338 0.156,-0.368 0.175,-0.388C0.194,-0.407 0.219,-0.417 0.25,-0.417C0.281,-0.417 0.306,-0.407 0.325,-0.388C0.345,-0.368 0.356,-0.338 0.357,-0.299L0.143,-0.299Z" style="fill-rule:nonzero;"/>
        </g>
    </g>
</svg>
