<?xml version="1.0" encoding="UTF-8" standalone="no"?>
<!DOCTYPE svg PUBLIC "-//W3C//DTD SVG 1.1//EN" "http://www.w3.org/Graphics/SVG/1.1/DTD/svg11.dtd">
<svg width="100%" height="100%" viewBox="0 0 100 100" version="1.1" xmlns="http://www.w3.org/2000/svg" xmlns:xlink="http://www.w3.org/1999/xlink" xml:space="preserve" xmlns:serif="http://www.serif.com/" style="fill-rule:evenodd;clip-rule:evenodd;stroke-linecap:round;stroke-linejoin:round;stroke-miterlimit:1.5;">
    <g transform="matrix(1.125,0,0,1.125,-6.25,-6.25)">
        <path d="M90,18L90,82C90,86.415 86.415,90 82,90L18,90C13.585,90 10,86.415 10,82L10,18C10,13.585 13.585,10 18,10L82,10C86.415,10 90,13.585 90,18Z" style="fill:rgb(223,132,82);stroke:black;stroke-width:1.78px;"/>
    </g>
    <g transform="matrix(1,0,0,1,-10.3523,8.88178e-16)">
        <g transform="matrix(12.5,0,0,12.5,86.4485,18.9539)">
            <path d="M0.323,-0L0.323,-0.171L0.013,-0.171L0.013,-0.252L0.339,-0.716L0.411,-0.716L0.411,-0.252L0.508,-0.252L0.508,-0.171L0.411,-0.171L0.411,-0L0.323,-0ZM0.323,-0.252L0.323,-0.575L0.099,-0.252L0.323,-0.252Z" style="fill-rule:nonzero;"/>
        </g>
        <g transform="matrix(12.5,0,0,12.5,93.4004,18.9539)">
            <path d="M0.055,-0.166L0.139,-0.173C0.146,-0.134 0.16,-0.105 0.18,-0.087C0.2,-0.069 0.226,-0.06 0.258,-0.06C0.285,-0.06 0.309,-0.066 0.329,-0.079C0.349,-0.091 0.366,-0.108 0.379,-0.128C0.392,-0.149 0.403,-0.177 0.412,-0.212C0.42,-0.247 0.425,-0.283 0.425,-0.319C0.425,-0.323 0.425,-0.329 0.424,-0.337C0.407,-0.309 0.383,-0.286 0.352,-0.269C0.322,-0.251 0.289,-0.243 0.253,-0.243C0.194,-0.243 0.144,-0.264 0.103,-0.307C0.062,-0.35 0.042,-0.407 0.042,-0.477C0.042,-0.55 0.063,-0.608 0.106,-0.652C0.149,-0.697 0.202,-0.719 0.267,-0.719C0.313,-0.719 0.356,-0.706 0.394,-0.681C0.433,-0.656 0.462,-0.62 0.482,-0.574C0.502,-0.528 0.512,-0.46 0.512,-0.373C0.512,-0.281 0.502,-0.208 0.482,-0.154C0.463,-0.1 0.433,-0.059 0.394,-0.03C0.355,-0.002 0.309,0.012 0.256,0.012C0.2,0.012 0.154,-0.003 0.119,-0.034C0.083,-0.066 0.062,-0.109 0.055,-0.166ZM0.415,-0.481C0.415,-0.532 0.401,-0.572 0.374,-0.602C0.347,-0.631 0.315,-0.646 0.277,-0.646C0.238,-0.646 0.204,-0.63 0.175,-0.598C0.146,-0.566 0.132,-0.525 0.132,-0.474C0.132,-0.429 0.146,-0.392 0.173,-0.363C0.201,-0.335 0.235,-0.32 0.275,-0.32C0.316,-0.32 0.349,-0.335 0.375,-0.363C0.401,-0.392 0.415,-0.431 0.415,-0.481Z" style="fill-rule:nonzero;"/>
        </g>
    </g>
    <g transform="matrix(1,0,0,1,0,10)">
        <g transform="matrix(39.5833,0,0,39.5833,34.2672,54.2059)">
            <rect x="0.075" y="-0.712" width="0.108" height="0.712" style="fill-rule:nonzero;"/>
        </g>
        <g transform="matrix(39.5833,0,0,39.5833,44.4722,54.2059)">
            <path d="M0.066,-0L0.168,-0L0.168,-0.302C0.168,-0.337 0.178,-0.364 0.197,-0.383C0.216,-0.402 0.24,-0.411 0.269,-0.411C0.298,-0.411 0.322,-0.402 0.341,-0.383C0.36,-0.364 0.369,-0.337 0.369,-0.302L0.369,-0L0.471,-0L0.471,-0.337C0.47,-0.395 0.451,-0.439 0.417,-0.469C0.382,-0.498 0.344,-0.513 0.302,-0.513C0.247,-0.513 0.203,-0.493 0.17,-0.453L0.168,-0.453L0.168,-0.507L0.066,-0.507L0.066,-0Z" style="fill-rule:nonzero;"/>
        </g>
    </g>
</svg>
